<?xml version="1.0" encoding="iso-8859-1"?>
<!-- Generator: Adobe Illustrator 19.0.0, SVG Export Plug-In . SVG Version: 6.00 Build 0)  -->
<svg version="1.1" id="Layer_1" xmlns="http://www.w3.org/2000/svg" xmlns:xlink="http://www.w3.org/1999/xlink" x="0px" y="0px"
	 viewBox="0 0 512.001 512.001" style="enable-background:new 0 0 512.001 512.001;" xml:space="preserve">
<g>
	<path style="fill:#F5CDB3;" d="M271.125,93.746c17.804-2.619,31.472-17.952,31.472-36.482V37.424
		c0-20.37-16.512-36.882-36.883-36.882h-19.839c-20.37,0-36.882,16.512-36.882,36.882v19.841c0,18.528,13.667,33.862,31.469,36.482
		c4.39,0,9.457-0.001,15.337-0.001C261.673,93.745,266.737,93.745,271.125,93.746z"/>
	<path style="fill:#F5CDB3;" d="M172.796,438.965c0.093,5.628,1.431,11.32,4.176,16.664c6.719,13.083,19.993,20.601,33.754,20.601
		c5.832,0,11.75-1.349,17.293-4.198l183.799-95.058c12.791-6.57,20.257-19.405,20.586-32.831c-0.12-5.567-1.471-11.194-4.186-16.48
		c-6.719-13.083-19.991-20.6-33.75-20.6c-5.832,0-11.751,1.35-17.294,4.199l-183.8,95.058
		C180.645,412.86,173.189,425.608,172.796,438.965z"/>
	<path style="fill:#F5CDB3;" d="M117.578,305.338c-13.485,0.272-26.393,7.751-32.987,20.59c-9.568,18.622-2.227,41.477,16.4,51.046
		l54.758,28.367c6.117-9.721,14.737-17.671,25.216-23.065l44.844-23.193l-103.94-53.754h-4.291L117.578,305.338L117.578,305.338z"/>
</g>
<path style="fill:#FF8546;" d="M454.096,370.867c-5.947,13.762-16.377,24.948-29.883,31.895l-183.762,95.039
	c-0.022,0.011-0.042,0.023-0.064,0.032c-9.155,4.704-19.41,7.189-29.66,7.189c-24.487,0-46.643-13.525-57.821-35.292
	c-5.045-9.817-7.453-20.509-7.181-31.244c-0.008-2.554,0.129-5.107,0.423-7.648l-57.571-29.822
	c-13.482-6.941-23.898-18.105-29.845-31.841L1.943,484.833c-2.875,5.854-2.546,12.385,0.902,17.918
	c3.447,5.535,9.165,8.707,15.686,8.707H493.47c6.52,0,12.238-3.174,15.686-8.707c3.449-5.533,3.777-12.064,0.902-17.917
	L454.096,370.867z"/>
<g>
	<path style="fill:#F0A479;" d="M256,93.745c5.786,0,10.79,0,15.126,0.001c17.804-2.619,31.472-17.952,31.472-36.482V37.424
		c0-20.37-16.512-36.882-36.883-36.882H256V93.745z"/>
	<path style="fill:#F0A479;" d="M394.469,307.065c-5.832,0-11.751,1.35-17.294,4.199l-121.173,62.669v83.628l155.819-80.587
		c12.791-6.57,20.257-19.405,20.586-32.831c-0.12-5.567-1.471-11.194-4.186-16.48C421.5,314.581,408.228,307.065,394.469,307.065z"
		/>
</g>
<path style="fill:#E03905;" d="M510.057,484.834l-55.961-113.966c-5.947,13.762-16.377,24.948-29.883,31.895L256,489.759v21.7
	h237.469c6.52,0,12.239-3.174,15.686-8.707C512.603,497.218,512.932,490.687,510.057,484.834z"/>
<path style="fill:#F0A479;" d="M59.228,267.057l89.014-27.64c3.863-1.203,7.256-3.192,10.097-5.715
	c0.556-0.419,19.639-17.128,19.639-17.128v89.034l77.817,38.225l77.819-38.225v-89.402c0,0,19.49,17.068,20.048,17.488
	c2.841,2.522,6.233,4.512,10.097,5.715l89.013,27.64c14.563,4.534,30.036-3.595,34.569-18.155
	c4.532-14.559-3.593-30.034-18.156-34.567l-83.617-25.965l-67.054-58.963c-5.728-5.045-12.96-7.284-20.019-6.831
	c-0.679-0.037-84.712-0.037-85.388,0c-6.931-0.345-13.997,1.89-19.616,6.839l-67.055,58.963l-83.619,25.965
	c-14.562,4.534-22.689,20.008-18.155,34.567C29.192,263.463,44.667,271.59,59.228,267.057z"/>
<path style="fill:#F5CDB3;" d="M59.228,267.057l89.014-27.64c3.863-1.203,7.256-3.192,10.097-5.715
	c0.556-0.419,19.639-17.128,19.639-17.128v89.034l77.817,38.225V122.539c-21.177,0-42.352,0.009-42.69,0.028
	c-6.931-0.345-13.997,1.89-19.616,6.839l-67.055,58.963l-83.619,25.965c-14.562,4.534-22.689,20.008-18.155,34.567
	C29.192,263.463,44.667,271.59,59.228,267.057z"/>
<g>
</g>
<g>
</g>
<g>
</g>
<g>
</g>
<g>
</g>
<g>
</g>
<g>
</g>
<g>
</g>
<g>
</g>
<g>
</g>
<g>
</g>
<g>
</g>
<g>
</g>
<g>
</g>
<g>
</g>
</svg>
