<?xml version="1.0" encoding="utf-8"?>
<!-- Generator: Adobe Illustrator 16.0.4, SVG Export Plug-In . SVG Version: 6.00 Build 0)  -->
<!DOCTYPE svg PUBLIC "-//W3C//DTD SVG 1.1//EN" "http://www.w3.org/Graphics/SVG/1.1/DTD/svg11.dtd">
<svg version="1.1" id="Layer_1" xmlns="http://www.w3.org/2000/svg" xmlns:xlink="http://www.w3.org/1999/xlink" x="0px" y="0px"
	 width="270px" height="41.944px" viewBox="0 0 270 41.944" enable-background="new 0 0 270 41.944" xml:space="preserve">
<rect x="-391.5" y="-40.961" fill="none" width="1024" height="770"/>
<g>
	<g>
		<path fill="#FFFFFF" d="M3.662,4.535h14.982c5.984,0,8.999,2.431,8.999,7.2c0,2.52-0.9,4.185-2.789,5.04
			c3.914,0.988,5.849,4.094,5.849,9.448c0,6.929-3.689,10.393-11.068,10.393H3.662V4.535z M19.455,9.53H8.657v6.489h10.798
			c2.115,0,3.149-1.9,3.149-3.699C22.604,10.475,21.57,9.53,19.455,9.53z M19.859,20.013H8.657v11.607H19.95
			c3.824,0,5.714-1.979,5.714-5.848C25.664,21.949,23.774,20.013,19.859,20.013z"/>
		<path fill="#FFFFFF" d="M50.141,37.201c-9.044,0-16.603-7.559-16.603-16.602c0-9.044,7.559-16.603,16.603-16.603
			c9.089,0,16.604,7.559,16.604,16.603C66.744,29.597,59.139,37.201,50.141,37.201z M50.141,8.99
			c-6.389,0-11.607,5.309-11.607,11.609c0,6.388,5.219,11.607,11.607,11.607c6.299,0,11.608-5.22,11.608-11.607
			C61.749,14.298,56.439,8.99,50.141,8.99z"/>
		<path fill="#FFFFFF" d="M70.838,36.616h-6.254l10.664-16.017L64.584,4.535h6.345l7.108,11.654l7.063-11.654h5.759L80.782,20.599
			L91.49,36.616h-6.254l-7.199-11.788L70.838,36.616z"/>
		<path fill="#FFFFFF" d="M103.189,20.779L92.212,4.535h6.343l7.109,11.654l7.198-11.654h5.715l-10.438,16.244v15.837h-4.949V20.779
			z"/>
		<path fill="#FFFFFF" d="M159.264,25.341l4.614,1.926c-2.529,5.195-7.124,8.849-12.833,9.611
			c-9.009,1.204-17.502-5.289-18.699-14.251c-1.197-8.965,5.295-17.457,14.303-18.66c2.676-0.358,5.754-0.089,8.225,1.079
			l-2.174,4.467l-0.9-0.289c-1.428-0.49-2.967-0.466-4.488-0.307c-6.289,0.84-10.849,6.804-10.014,13.048
			c0.845,6.333,6.799,10.802,13.086,9.963c3.166-0.423,5.759-2.085,7.575-4.46C158.461,26.809,158.867,26.119,159.264,25.341z"/>
		<path fill="#FFFFFF" d="M198.307,36.616h-5.715l-2.609-5.04H171.49l-2.429,5.04h-5.714l17.187-34.6L198.307,36.616z
			 M173.831,26.539h13.767L180.76,12.14L173.831,26.539z"/>
		<path fill="#FFFFFF" d="M199.883,4.535h15.343c7.827,0,11.698,3.602,11.698,10.889c0,6.795-3.24,10.484-9.81,11.068l5.85,10.124
			h-5.444l-5.76-10.077h-6.883v10.077h-4.994V4.535z M215.855,9.53h-10.979v12.013h10.979c4.184,0,6.254-2.023,6.254-6.073
			C222.109,11.51,220.039,9.53,215.855,9.53z"/>
		<path fill="#FFFFFF" d="M230.298,4.535h11.519c10.483,0,15.793,5.176,15.793,15.479c0,11.068-5.265,16.603-15.702,16.603h-11.609
			V4.535z M243.211,9.53h-7.918v22.046h7.918c6.164,0,9.314-3.824,9.314-11.562C252.525,13.039,249.375,9.53,243.211,9.53z"/>
	</g>
	<text transform="matrix(1 0 0 1 259.9053 37.9419)" fill="#FFFFFF" font-family="'Stentiga-Regular'" font-size="41.203">.</text>
</g>
<g>
	<g>
		<polygon points="67.118,9.947 67.118,32.3 49.422,41.944 49.422,19.366 		"/>
		<polygon points="31.727,9.947 31.727,32.3 49.422,41.944 49.422,19.366 		"/>
		<polygon points="49.422,19.366 67.118,9.947 49.422,0 31.727,9.947 		"/>
	</g>
	<g>
		<polygon fill="#0EA6DB" points="62.36,12.912 62.36,29.255 49.422,36.306 49.422,19.797 		"/>
		<polygon fill="#5910E5" points="36.484,12.912 36.484,29.255 49.422,36.306 49.422,19.797 		"/>
		<polygon fill="#00FFFF" points="49.422,19.797 62.36,12.912 49.422,5.638 36.484,12.912 		"/>
	</g>
</g>
<rect x="-419.5" y="-57.961" fill-rule="evenodd" clip-rule="evenodd" fill="none" width="1080" height="1096"/>
</svg>
