<svg xmlns="http://www.w3.org/2000/svg" viewBox="0 0 43 42.31"><defs><style>.cls-1{fill:#acb3b5;}</style></defs><title>Asset 13</title><g id="Layer_2" data-name="Layer 2"><g id="Layer_1-2" data-name="Layer 1"><path class="cls-1" d="M32.52,9.14a17.28,17.28,0,1,0-22,24,17.28,17.28,0,1,0,22-24ZM31.91,17l-6.4-6.4h.3a13.94,13.94,0,0,1,2.05.16l3.79,3.79A14.25,14.25,0,0,1,31.91,17Zm-19.75,3.1a14.8,14.8,0,0,1,.69-1.58l11.6,11.6a12,12,0,0,1-1.53.74ZM22,31.17a13.69,13.69,0,0,1-2.12.53l-8.48-8.48a16.18,16.18,0,0,1,.45-2.2ZM13.32,17.65a14.27,14.27,0,0,1,.88-1.31L26.53,28.68a13.77,13.77,0,0,1-1.23.89Zm1.45-2a14,14,0,0,1,1.43-1.45L28.62,26.6a13.23,13.23,0,0,1-1.42,1.48Zm2.13-2a16.61,16.61,0,0,1,1.72-1.15L30.27,24.1a13.41,13.41,0,0,1-1.1,1.77ZM19.47,12a15.39,15.39,0,0,1,1.88-.76l10,10a13,13,0,0,1-.69,2Zm2.9-1a13.52,13.52,0,0,1,1.92-.34l7.6,7.59a13.57,13.57,0,0,1-.25,2Zm8.27.41c.19.44.37.89.53,1.35L29.46,11C29.86,11.13,30.25,11.25,30.64,11.38ZM11.24,25.11c0-.23,0-.47,0-.7l7.45,7.45c-.45,0-.91.07-1.37.07a14.76,14.76,0,0,1-1.5-.08l-4.42-4.41A14.84,14.84,0,0,1,11.24,25.11Zm1.29,6a14.53,14.53,0,0,1-.73-2l2.53,2.53A13.75,13.75,0,0,1,12.53,31.09Zm13.28,8.59a14.52,14.52,0,0,1-11.28-5.35,17.7,17.7,0,0,0,2.75.22A17.28,17.28,0,0,0,34,13.1a14.56,14.56,0,0,1-8.23,26.58Z"/></g></g></svg>