<svg xmlns="http://www.w3.org/2000/svg" viewBox="0 0 25.54 43.35"><defs><style>.cls-1{fill:#9fa2a8;}</style></defs><title>Asset 30</title><g id="Layer_2" data-name="Layer 2"><g id="Layer_1-2" data-name="Layer 1"><path class="cls-1" d="M3.5,3.72Q7,0,13.1,0a12.65,12.65,0,0,1,9,3.19,10.63,10.63,0,0,1,3.4,8.14,8.73,8.73,0,0,1-1.23,4.87,38.15,38.15,0,0,1-5,5.49,15.92,15.92,0,0,0-3.61,4.46,13.41,13.41,0,0,0-.84,5.39h-5a18.35,18.35,0,0,1,1-6.52A17.13,17.13,0,0,1,15,19.34l2.31-2.24a9.65,9.65,0,0,0,1.68-2,7,7,0,0,0,1.18-3.82A7.32,7.32,0,0,0,18.5,6.46q-1.7-2-5.6-2-4.83,0-6.67,3.51A13.31,13.31,0,0,0,5,13.56H0A13.82,13.82,0,0,1,3.5,3.72Z"/><circle class="cls-1" cx="12.77" cy="39.69" r="3.65"/></g></g></svg>