<svg xmlns="http://www.w3.org/2000/svg" viewBox="0 0 41.05 46.54"><defs><style>.cls-1{fill:#eee;}.cls-2{fill:#9fa2a8;}</style></defs><title>Asset 28</title><g id="Layer_2" data-name="Layer 2"><g id="Layer_1-2" data-name="Layer 1"><polygon class="cls-1" points="39.91 10.34 39.91 34.83 20.52 45.4 20.52 20.66 39.91 10.34"/><path class="cls-2" d="M20.52,46.54a1.1,1.1,0,0,1-.58-.16,1.13,1.13,0,0,1-.56-1V20.66a1.13,1.13,0,0,1,.61-1L39.37,9.34a1.14,1.14,0,0,1,1.13,0,1.12,1.12,0,0,1,.55,1V34.83a1.14,1.14,0,0,1-.59,1L21.07,46.4A1.18,1.18,0,0,1,20.52,46.54Zm1.14-25.19V43.48l17.11-9.32V12.24Z"/><polygon class="cls-1" points="1.14 10.34 1.14 34.83 20.52 45.4 20.52 20.66 1.14 10.34"/><path class="cls-2" d="M20.52,46.54A1.14,1.14,0,0,1,20,46.4L.59,35.83a1.14,1.14,0,0,1-.59-1V10.34a1.12,1.12,0,0,1,.55-1,1.14,1.14,0,0,1,1.13,0L21.06,19.66a1.12,1.12,0,0,1,.6,1V45.4a1.13,1.13,0,0,1-1.14,1.14ZM2.28,34.16l17.1,9.32V21.35L2.28,12.24Z"/><polygon class="cls-2" points="20.52 20.66 39.91 10.34 20.52 1.14 1.14 10.34 20.52 20.66"/><path class="cls-2" d="M20.52,21.8a1.09,1.09,0,0,1-.53-.13L.6,11.35a1.13,1.13,0,0,1-.6-1,1.15,1.15,0,0,1,.65-1L20,.11a1.12,1.12,0,0,1,1,0L40.4,9.31a1.15,1.15,0,0,1,.65,1,1.13,1.13,0,0,1-.6,1L21.06,21.67A1.13,1.13,0,0,1,20.52,21.8ZM3.68,10.4l16.84,9,16.85-9-16.85-8Z"/></g></g></svg>