<svg xmlns="http://www.w3.org/2000/svg" xmlns:xlink="http://www.w3.org/1999/xlink" viewBox="0 0 123.08 133.02"><defs><style>.cls-1{fill:none;}.cls-2{clip-path:url(#clip-path);}.cls-3{fill:#fff;}</style><clipPath id="clip-path"><path class="cls-1" d="M35.26,108.63H95.07V48.83H35.26Z"/></clipPath></defs><title>Asset 3</title><g id="Layer_2" data-name="Layer 2"><g id="Layer_1-2" data-name="Layer 1"><g class="cls-2"><path class="cls-3" d="M117.74,86.27,121.92,82l-1.61-1.65-3.43,5-2.71-2.79L117,76.91l3.33,3.42,2-2.86-3.69-3.79,4.51-9.12L60.24,0,22.39,38.88l.24.24L15.94,46l.64.66L10,53.37l2,2.09L4.83,62.91l2.8,2.88L0,73.62l54.46,56,3.66-1.1L7.07,76l5.26-5.4L66.27,126l-8.15,2.44,2.61,2.68,7.2-3.42L73.07,133l2.8-2-4.71-4.84L77.83,123,81.65,127,75.87,131l1.83,1.88,4.88-5,2.66,2.74L99.38,116.1,113,112l-4.2-4.31,9-6.4-2-2.09,7.25-7.45ZM111.64,80,52,18.66l4.17-4.29,58.59,60.21ZM32.8,49.58l60.33,62L88.81,116,28.48,54Zm62.46,59.3L35.17,47.15l5-5.15L99,102.38ZM26.12,56.45l60.64,62.31-5.7,2.72L21.94,60.74Zm60,63.64-3.2,3.28-1.75-1.8Zm20.7-22.58.9-1.81.43.44Zm-6.11,1.8L39.75,36.69,45,31.28l59.55,61.2ZM45.33,26.76l4.89-5L109.9,83.07l-3.6,6.34ZM62.57,7.26l57.07,58.63-3.18,5.62L58.25,11.7Zm7.36,117.68L14.7,68.19l4.88-5,57.91,59.5Zm41-30.79,2-2.91-2.4,2.47-1.21-1.24,3.29-6.65,2.36,2.42-2,3,2.48-2.54.63.65-4.88,5Z"/></g></g></g></svg>