<svg xmlns="http://www.w3.org/2000/svg" viewBox="0 0 64 38.82"><defs><style>.cls-1{isolation:isolate;}.cls-2,.cls-3{fill:#fff;}.cls-2{opacity:0.31;mix-blend-mode:multiply;}</style></defs><title>Asset 1</title><g class="cls-1"><g id="Layer_2" data-name="Layer 2"><g id="Layer_1-2" data-name="Layer 1"><path class="cls-2" d="M64,35.43c0,1.87-14.33,3.39-32,3.39S0,37.3,0,35.43,14.33,32,32,32,64,33.55,64,35.43Z"/><path class="cls-3" d="M51.44,31.63a.85.85,0,0,1-.85-.85.86.86,0,0,1,.85-.86c1.12,0,2.07-.71,2.07-1.55V5.86c0-.85-.95-1.56-2.07-1.56a.85.85,0,0,1,0-1.7,3.54,3.54,0,0,1,3.77,3.26V28.37A3.54,3.54,0,0,1,51.44,31.63Z"/><path class="cls-3" d="M12.56,31.63a3.54,3.54,0,0,1-3.77-3.26V5.86A3.54,3.54,0,0,1,12.56,2.6a.85.85,0,0,1,0,1.7c-1.12,0-2.07.71-2.07,1.56V28.37c0,.84.95,1.55,2.07,1.55a.86.86,0,0,1,.85.86A.86.86,0,0,1,12.56,31.63Z"/><path class="cls-3" d="M33.53,30.32A13.27,13.27,0,1,1,46.8,17.05,13.28,13.28,0,0,1,33.53,30.32Zm0-24.84A11.57,11.57,0,1,0,45.1,17.05,11.58,11.58,0,0,0,33.53,5.48Z"/><path class="cls-3" d="M33.53,27.19A10.14,10.14,0,1,1,43.67,17.05,10.15,10.15,0,0,1,33.53,27.19Zm0-19.06a8.92,8.92,0,1,0,8.92,8.92A8.94,8.94,0,0,0,33.53,8.13Z"/><path class="cls-3" d="M22.44,2.57A.61.61,0,0,1,21.83,2a.76.76,0,0,0-.75-.75h-3.4a.75.75,0,0,0-.74.75.61.61,0,0,1-.61.61A.61.61,0,0,1,15.72,2a2,2,0,0,1,2-2h3.4a2,2,0,0,1,2,2A.61.61,0,0,1,22.44,2.57Z"/></g></g></g></svg>