<svg xmlns="http://www.w3.org/2000/svg" viewBox="0 0 43.58 38.14"><defs><style>.cls-1{fill:#3f4652;}</style></defs><title>Asset 32</title><g id="Layer_2" data-name="Layer 2"><g id="Layer_1-2" data-name="Layer 1"><path class="cls-1" d="M19.07,2.72V2A2.05,2.05,0,0,0,17,0H10.21a2,2,0,0,0-2,2v.68H0V8.17H8.17v.68a2.05,2.05,0,0,0,2,2.05H17a2.05,2.05,0,0,0,2.05-2.05V8.17H43.58V2.72Zm-8.17,0h5.44V8.17H10.9ZM35.41,15.66a2,2,0,0,0-2-2H26.56a2,2,0,0,0-2,2v.68H0v5.45H24.52v.68a2.05,2.05,0,0,0,2,2.05h6.81a2.05,2.05,0,0,0,2-2.05v-.68h8.17V16.34H35.41Zm-8.17.68h5.45v5.45H27.24ZM19.07,29.28a2.05,2.05,0,0,0-2.05-2H10.21a2,2,0,0,0-2,2V30H0v5.45H8.17v.68a2.05,2.05,0,0,0,2,2H17a2.05,2.05,0,0,0,2.05-2v-.68H43.58V30H19.07ZM10.9,30h5.44v5.45H10.9Z"/></g></g></svg>