<svg xmlns="http://www.w3.org/2000/svg" viewBox="0 0 37.74 37.13"><defs><style>.cls-1{fill:#3f4652;}</style></defs><title>Asset 24</title><g id="Layer_2" data-name="Layer 2"><g id="Layer_1-2" data-name="Layer 1"><path class="cls-1" d="M28.54,8A15.16,15.16,0,1,0,9.2,29.11,15.16,15.16,0,1,0,28.54,8ZM28,14.89,22.39,9.27h.26a11.82,11.82,0,0,1,1.8.14l3.33,3.33A12.75,12.75,0,0,1,28,14.89ZM10.67,17.61a13.29,13.29,0,0,1,.61-1.39L21.46,26.41a12.74,12.74,0,0,1-1.34.65Zm8.62,9.75a12.66,12.66,0,0,1-1.86.47L10,20.38a11.4,11.4,0,0,1,.4-1.93Zm-7.6-11.87a11.37,11.37,0,0,1,.77-1.14L23.29,25.17q-.52.42-1.08.78ZM13,13.72a12.59,12.59,0,0,1,1.26-1.27l10.9,10.9a12.7,12.7,0,0,1-1.24,1.3Zm1.88-1.78a13.57,13.57,0,0,1,1.5-1L26.57,21.16a13.77,13.77,0,0,1-1,1.55Zm2.25-1.39a13.29,13.29,0,0,1,1.65-.68l8.81,8.8a13.44,13.44,0,0,1-.61,1.72Zm2.54-.92a13.57,13.57,0,0,1,1.69-.3L28,16a14.51,14.51,0,0,1-.21,1.77Zm7.26.36c.17.39.33.78.47,1.18l-1.5-1.49C26.21,9.77,26.55,9.87,26.89,10Zm-17,12.06c0-.21,0-.42,0-.62L16.44,28c-.4,0-.79.06-1.2.06s-.88,0-1.32-.07L10,24.08A13.56,13.56,0,0,1,9.87,22.05ZM11,27.29a13.17,13.17,0,0,1-.64-1.76l2.22,2.22A14.29,14.29,0,0,1,11,27.29Zm11.65,7.54a12.76,12.76,0,0,1-9.9-4.7,14.79,14.79,0,0,0,2.41.2A15.17,15.17,0,0,0,30.33,15.16a15.37,15.37,0,0,0-.45-3.67,12.79,12.79,0,0,1-7.23,23.34Z"/></g></g></svg>