<svg xmlns="http://www.w3.org/2000/svg" viewBox="0 0 50.38 50.38"><defs><style>.cls-1{fill:#acb3b5;}</style></defs><title>Asset 10</title><g id="Layer_2" data-name="Layer 2"><g id="Layer_1-2" data-name="Layer 1"><path class="cls-1" d="M15.74,3.15H3.15V15.74H15.74ZM18.89,0h0V18.89H0V0ZM6.3,6.3h6.29v6.29H6.3ZM47.23,3.15H34.64V15.74H47.23ZM50.38,0h0V18.89H31.49V0ZM37.78,6.3h6.3v6.29h-6.3Zm-22,28.34H3.15V47.23H15.74Zm3.15-3.15h0V50.38H0V31.49ZM6.3,37.78h6.29v6.3H6.3ZM22,0h3.15V3.15H22Zm3.15,3.15h3.15V6.3H25.19ZM22,6.3h3.15V9.45H22Zm3.15,3.15h3.15v3.14H25.19ZM22,12.59h3.15v3.15H22Zm3.15,3.15h3.15v3.15H25.19ZM22,18.89h3.15V22H22Zm0,6.3h3.15v3.15H22Zm3.15,3.15h3.15v3.15H25.19ZM22,31.49h3.15v3.15H22Zm3.15,3.15h3.15v3.14H25.19ZM22,37.78h3.15v3.15H22Zm3.15,3.15h3.15v3.15H25.19ZM22,44.08h3.15v3.15H22Zm3.15,3.15h3.15v3.15H25.19Zm22-22h3.15v3.15H47.23Zm-44.08,0H6.3v3.15H3.15ZM6.3,22H9.45v3.15H6.3ZM0,22H3.15v3.15H0Zm12.59,0h3.15v3.15H12.59Zm3.15,3.15h3.15v3.15H15.74ZM18.89,22H22v3.15H18.89Zm9.45,3.15h3.15v3.15H28.34ZM31.49,22h3.15v3.15H31.49Zm3.15,3.15h3.14v3.15H34.64ZM37.78,22h3.15v3.15H37.78Zm3.15,3.15h3.15v3.15H40.93ZM44.08,22h3.15v3.15H44.08Zm3.15,9.45h3.15v3.15H47.23Zm-18.89,0h3.15v3.15H28.34Zm3.15-3.15h3.15v3.15H31.49Zm3.15,3.15h3.14v3.15H34.64Zm6.29,0h3.15v3.15H40.93Zm3.15-3.15h3.15v3.15H44.08Zm3.15,9.44h3.15v3.15H47.23Zm-18.89,0h3.15v3.15H28.34Zm3.15-3.14h3.15v3.14H31.49Zm6.29,0h3.15v3.14H37.78Zm3.15,3.14h3.15v3.15H40.93Zm3.15-3.14h3.15v3.14H44.08Zm3.15,9.44h3.15v3.15H47.23ZM31.49,40.93h3.15v3.15H31.49Zm3.15,3.15h3.14v3.15H34.64Zm3.14-3.15h3.15v3.15H37.78Zm3.15,3.15h3.15v3.15H40.93Zm-9.44,3.15h3.15v3.15H31.49Zm6.29,0h3.15v3.15H37.78Zm6.3,0h3.15v3.15H44.08Z"/></g></g></svg>