<svg xmlns="http://www.w3.org/2000/svg" viewBox="0 0 26.81 35.75"><defs><style>.cls-1{fill:#3f4652;}</style></defs><title>Asset 26</title><g id="Layer_2" data-name="Layer 2"><g id="Layer_1-2" data-name="Layer 1"><path class="cls-1" d="M23.46,4.47H3.35A3.35,3.35,0,0,0,0,7.82V8.94H26.81V7.82a3.35,3.35,0,0,0-3.35-3.35M17.61,2.24l.49,3.52H8.71l.5-3.52h8.4M17.87,0H8.94A2,2,0,0,0,7,1.66L6.38,6.34A1.41,1.41,0,0,0,7.82,8H19a1.42,1.42,0,0,0,1.45-1.66l-.66-4.68A2,2,0,0,0,17.87,0M24,11.17H2.79a2,2,0,0,0-2,2.23L2.59,33.52A2.5,2.5,0,0,0,5,35.75H21.79a2.5,2.5,0,0,0,2.43-2.23L26.05,13.4a2,2,0,0,0-2-2.23M8.94,31.28H5.58L4.47,15.64H8.94Zm6.7,0H11.17V15.64h4.47Zm5.59,0H17.87V15.64h4.47Z"/></g></g></svg>