<svg xmlns="http://www.w3.org/2000/svg" viewBox="0 0 35.94 43.82"><defs><style>.cls-1{opacity:0.55;}.cls-2,.cls-3{fill:#3f4652;}.cls-3,.cls-4{stroke:#3f4652;stroke-linecap:round;stroke-linejoin:round;stroke-width:2px;}.cls-4{fill:#eee;}</style></defs><title>Asset 20</title><g id="Layer_2" data-name="Layer 2"><g id="Layer_1-2" data-name="Layer 1"><g class="cls-1"><polygon class="cls-2" points="35.94 13.65 35.94 34.73 18.1 43.82 18.1 22.53 35.94 13.65"/><polygon class="cls-2" points="0.26 13.65 0.26 34.73 18.1 43.82 18.1 22.53 0.26 13.65"/><polygon class="cls-2" points="18.1 22.53 35.94 13.65 18.1 5.72 0.26 13.65 18.1 22.53"/></g><polygon class="cls-3" points="33.42 8.7 33.42 29.18 17.21 38.02 17.21 17.33 33.42 8.7"/><polygon class="cls-4" points="1 8.7 1 29.18 17.21 38.02 17.21 17.33 1 8.7"/><polygon class="cls-4" points="17.21 17.33 33.42 8.7 17.21 1 1 8.7 17.21 17.33"/></g></g></svg>