<svg xmlns="http://www.w3.org/2000/svg" viewBox="0 0 55.51 55.51"><defs><style>.cls-1{fill:#acb3b5;}</style></defs><title>Asset 9</title><g id="Layer_2" data-name="Layer 2"><g id="Layer_1-2" data-name="Layer 1"><path class="cls-1" d="M27.76,55.51A27.76,27.76,0,1,0,0,27.76,27.75,27.75,0,0,0,27.76,55.51m0-50.3A22.55,22.55,0,1,1,5.2,27.76,22.55,22.55,0,0,1,27.76,5.21M10.41,27.76v3.47A13.91,13.91,0,0,0,24.29,45.1h6.94A13.91,13.91,0,0,0,45.1,31.23V27.76ZM20.81,41a10.55,10.55,0,0,1-3.87-2.46,10.33,10.33,0,0,1-3.06-7.35h6.93Zm10.42.59H24.29V31.23h6.94Zm7.34-3.05A10.42,10.42,0,0,1,34.69,41V31.23h6.94a10.33,10.33,0,0,1-3.06,7.35M12.21,20.82h0a1.08,1.08,0,0,0,1.07-.91,4.12,4.12,0,0,1,8.13,0,1.08,1.08,0,0,0,2.13,0,6,6,0,0,0,.09-1,6.29,6.29,0,1,0-12.58,0,6.09,6.09,0,0,0,.09,1,1.08,1.08,0,0,0,1.07.91m20.82,0h0a1.08,1.08,0,0,0,1.07-.91,4.12,4.12,0,0,1,8.12,0,1.08,1.08,0,0,0,2.14,0,6,6,0,0,0,.09-1,6.29,6.29,0,0,0-12.58,0,6.09,6.09,0,0,0,.09,1,1.08,1.08,0,0,0,1.07.91"/></g></g></svg>