<svg xmlns="http://www.w3.org/2000/svg" viewBox="0 0 30.97 41.97"><defs><style>.cls-1{fill:#acb3b5;}</style></defs><title>Asset 12</title><g id="Layer_2" data-name="Layer 2"><g id="Layer_1-2" data-name="Layer 1"><path class="cls-1" d="M18.24,42H1.73A1.73,1.73,0,0,1,0,40.24V1.73A1.74,1.74,0,0,1,1.73,0H15.49A12.72,12.72,0,0,1,26.33,19.41,12.73,12.73,0,0,1,18.24,42ZM3.47,38.5H18.24A9.26,9.26,0,0,0,23,21.3a1.78,1.78,0,0,1-.82-1.21,1.74,1.74,0,0,1,.39-1.4A9.25,9.25,0,0,0,15.49,3.47h-12Zm13.35-2H10a1.73,1.73,0,0,1-1.74-1.73v-11A1.74,1.74,0,0,1,10,22h6.83c3.47,0,6.29,3.25,6.29,7.24S20.29,36.47,16.82,36.47ZM11.72,33h5.1c1.53,0,2.82-1.72,2.82-3.76s-1.29-3.77-2.82-3.77h-5.1Zm2.63-13H10a1.74,1.74,0,0,1-1.74-1.73v-11A1.73,1.73,0,0,1,10,5.5h4.36c3.36,0,6.09,3.24,6.09,7.23S17.71,20,14.35,20ZM11.72,16.5h2.63c1.42,0,2.62-1.72,2.62-3.77S15.77,9,14.35,9H11.72Z"/></g></g></svg>