<svg xmlns="http://www.w3.org/2000/svg" viewBox="0 0 33.04 36.43"><defs><style>.cls-1{fill:#fff;}</style></defs><title>Asset 2</title><g id="Layer_2" data-name="Layer 2"><g id="Layer_1-2" data-name="Layer 1"><path class="cls-1" d="M3.64,0H5.41l.25,1.19H27.28L27.48,0h1.85L33,10.36l-2.27.81a13.16,13.16,0,0,0-3.89-5.83,9.37,9.37,0,0,0-5.76-1.68,6.68,6.68,0,0,0-1.74.12.67.67,0,0,0-.4.39,7.68,7.68,0,0,0-.11,1.77V30.39a9.25,9.25,0,0,0,.19,2.35,2.2,2.2,0,0,0,.54.93,2,2,0,0,0,1,.47,17,17,0,0,0,2.76.16v2.13H9.75V34.3a15.87,15.87,0,0,0,2.75-.15,2,2,0,0,0,1.27-1,6.17,6.17,0,0,0,.38-2.61v-25A4.68,4.68,0,0,0,14,4.19a.79.79,0,0,0-.43-.39,3.91,3.91,0,0,0-1.3-.14,11.48,11.48,0,0,0-4.41.71,8.63,8.63,0,0,0-3.11,2.4,14.57,14.57,0,0,0-2.51,4.4L0,10.36Z"/></g></g></svg>