# 3ds Max Wavefront OBJ Exporter v0.97b - (c)2007 guruware
# File Created: 22.04.2017 11:57:57

mtllib box.mtl

#
# object outside
#

v  -2.5400 -2.5400 2.5400
v  2.5400 -2.5400 2.5400
v  2.5300 2.5400 2.5300
v  -2.5300 2.5400 2.5300
v  2.5400 -2.5400 -2.5400
v  2.5300 2.5400 -2.5300
v  -2.5400 -2.5400 -2.5400
v  -2.5300 2.5400 -2.5300
v  2.5300 -2.5000 2.5300
v  -2.5300 -2.5000 2.5300
v  2.5300 -2.5000 -2.5300
v  -2.5300 -2.5000 -2.5300
# 12 vertices

vn 0.0000 0.0020 1.0000
vn 1.0000 0.0020 -0.0000
vn 0.0000 0.0020 -1.0000
vn -1.0000 0.0020 -0.0000
vn 0.0000 0.0000 -1.0000
vn -1.0000 0.0000 -0.0000
vn 0.0000 0.0000 1.0000
vn 1.0000 0.0000 -0.0000
# 8 vertex normals

vt -0.2481 0.2848 0.0000
vt -0.2481 0.0686 0.0000
vt -0.0319 0.0686 0.0000
vt -0.0319 0.2848 0.0000
vt -0.5188 0.7844 0.0000
vt -0.7342 0.7844 0.0000
vt -0.7600 1.0247 0.0000
vt -0.9753 1.0247 0.0000
vt -0.7342 0.5699 0.0000
vt -0.5188 0.5699 0.0000
vt -0.9753 0.8102 0.0000
vt -0.7600 0.8102 0.0000
vt 0.2541 0.3523 0.0000
vt 0.5006 0.3523 0.0000
vt 0.5001 0.5987 0.0000
vt 0.2546 0.5987 0.0000
vt 0.7481 0.3517 0.0000
vt 0.9946 0.3517 0.0000
vt 0.9941 0.5982 0.0000
vt 0.7486 0.5982 0.0000
vt 0.5013 0.3517 0.0000
vt 0.7478 0.3517 0.0000
vt 0.7473 0.5981 0.0000
vt 0.5018 0.5981 0.0000
vt 0.0070 0.3532 0.0000
vt 0.2535 0.3532 0.0000
vt 0.2530 0.5997 0.0000
vt 0.0075 0.5997 0.0000
vt -0.7495 0.2848 0.0000
vt -0.7495 0.0694 0.0000
vt -0.5341 0.0694 0.0000
vt -0.5341 0.2848 0.0000
vt -0.7600 0.7844 0.0000
vt -0.9753 0.7844 0.0000
vt -0.9753 0.5699 0.0000
vt -0.7600 0.5699 0.0000
vt -0.5188 1.0247 0.0000
vt -0.7342 1.0247 0.0000
vt -0.7342 0.8102 0.0000
vt -0.5188 0.8102 0.0000
# 40 texture coords

g outside
usemtl outside
s 8
f 1/25/1 2/26/1 3/27/1 
f 3/27/1 4/28/1 1/25/1 
s 16
f 2/13/2 5/14/2 6/15/2 
f 6/15/2 3/16/2 2/13/2 
s 32
f 5/21/3 7/22/3 8/23/3 
f 8/23/3 6/24/3 5/21/3 
s 64
f 7/17/4 1/18/4 4/19/4 
f 4/19/4 8/20/4 7/17/4 
s off
f 4/5/5 3/6/5 9/9/5 
f 9/9/5 10/10/5 4/5/5 
f 3/37/6 6/38/6 11/39/6 
f 11/39/6 9/40/6 3/37/6 
f 6/7/7 8/8/7 12/11/7 
f 12/11/7 11/12/7 6/7/7 
f 8/33/8 4/34/8 10/35/8 
f 10/35/8 12/36/8 8/33/8 
# 16 faces

#
# object inside
#

v  -2.5373 -2.5373 2.5373
v  2.5373 -2.5373 2.5373
v  2.5273 2.5373 2.5273
v  -2.5273 2.5373 2.5273
v  2.5373 -2.5373 -2.5373
v  2.5273 2.5373 -2.5273
v  -2.5373 -2.5373 -2.5373
v  -2.5273 2.5373 -2.5273
v  2.5273 -2.4973 2.5273
v  -2.5273 -2.4973 2.5273
v  2.5273 -2.4973 -2.5273
v  -2.5273 -2.4973 -2.5273
# 12 vertices

vn 0.0000 0.0020 1.0000
vn 1.0000 0.0020 -0.0000
vn 0.0000 0.0020 -1.0000
vn -1.0000 0.0020 -0.0000
vn 0.0000 0.0000 -1.0000
vn -1.0000 0.0000 -0.0000
vn 0.0000 0.0000 1.0000
vn 1.0000 0.0000 -0.0000
# 8 vertex normals

vt -0.3391 0.7746 0.0000
vt -0.1177 0.7746 0.0000
vt -0.1182 0.9959 0.0000
vt -0.3387 0.9959 0.0000
vt 0.2509 0.9969 0.0000
vt 0.0034 0.9969 0.0000
vt 0.7473 0.9958 0.0000
vt 0.4998 0.9958 0.0000
vt 0.0034 0.7504 0.0000
vt 0.2509 0.7504 0.0000
vt 0.4998 0.7493 0.0000
vt 0.7473 0.7493 0.0000
vt -0.5693 0.5443 0.0000
vt -0.3479 0.5443 0.0000
vt -0.3484 0.7657 0.0000
vt -0.5689 0.7657 0.0000
vt -0.5693 0.7746 0.0000
vt -0.3479 0.7746 0.0000
vt -0.3484 0.9959 0.0000
vt -0.5689 0.9959 0.0000
vt -0.3391 0.5443 0.0000
vt -0.1177 0.5443 0.0000
vt -0.1182 0.7657 0.0000
vt -0.3387 0.7657 0.0000
vt 0.4993 0.9963 0.0000
vt 0.2518 0.9963 0.0000
vt 0.2518 0.7498 0.0000
vt 0.4993 0.7498 0.0000
vt 0.9948 0.9952 0.0000
vt 0.7474 0.9952 0.0000
vt 0.7474 0.7488 0.0000
vt 0.9948 0.7488 0.0000
# 32 texture coords

g inside
usemtl inside
s 8
f 13/61/9 14/62/9 15/63/9 
f 15/63/9 16/64/9 13/61/9 
s 16
f 14/41/10 17/42/10 18/43/10 
f 18/43/10 15/44/10 14/41/10 
s 32
f 17/57/11 19/58/11 20/59/11 
f 20/59/11 18/60/11 17/57/11 
s 64
f 19/53/12 13/54/12 16/55/12 
f 16/55/12 20/56/12 19/53/12 
s off
f 16/45/13 15/46/13 21/49/13 
f 21/49/13 22/50/13 16/45/13 
f 15/69/14 18/70/14 23/71/14 
f 23/71/14 21/72/14 15/69/14 
f 18/47/15 20/48/15 24/51/15 
f 24/51/15 23/52/15 18/47/15 
f 20/65/16 16/66/16 22/67/16 
f 22/67/16 24/68/16 20/65/16 
# 16 faces

