<?xml version="1.0" encoding="utf-8"?>
<!-- Generator: Adobe Illustrator 16.0.4, SVG Export Plug-In . SVG Version: 6.00 Build 0)  -->
<!DOCTYPE svg PUBLIC "-//W3C//DTD SVG 1.1//EN" "http://www.w3.org/Graphics/SVG/1.1/DTD/svg11.dtd">
<svg version="1.1" id="Layer_1" xmlns="http://www.w3.org/2000/svg" xmlns:xlink="http://www.w3.org/1999/xlink" x="0px" y="0px"
	 width="1000px" height="1498.612px" viewBox="-112.5 -332.612 1000 1498.612"
	 enable-background="new -112.5 -332.612 1000 1498.612" xml:space="preserve">
<polygon fill="#E5E5E5" points="-27.274,-332.74 -30.34,-332.74 -30.34,897.141 -106.385,1013.506 10.229,1089.715 86.436,973.101 
	-27.274,898.79 "/>
<polygon fill="#E5E5E5" points="204.086,-332.74 201.022,-332.74 201.022,1031.844 146.709,1027.308 137.497,1137.632 
	247.82,1146.846 257.034,1036.523 204.086,1032.1 "/>
<polygon fill="#E5E5E5" points="317.111,-332.612 314.046,-332.612 314.046,926.226 304.365,917.995 251.917,979.67 
	313.593,1032.118 366.042,970.441 317.111,928.834 "/>
<polygon fill="#E5E5E5" points="696.866,-332.74 693.801,-332.74 693.801,748.063 677.237,743.48 652.676,832.222 741.418,856.783 
	765.978,768.038 696.866,748.912 "/>
<polygon fill="#E5E5E5" points="99.676,789.961 31.125,769.885 31.125,-332.74 28.059,-332.74 28.059,768.987 12.808,764.521 
	-12.633,851.388 74.236,876.828 "/>
<polygon fill="#E5E5E5" points="115.796,874.443 115.796,-332.74 112.73,-332.74 112.73,873.593 102.594,870.788 83.454,939.95 
	152.618,959.093 171.758,889.928 "/>
<polygon fill="#E5E5E5" points="468.485,883.664 468.485,-332.612 465.419,-332.612 465.419,884.448 409.441,898.721 
	434.278,996.11 531.665,971.272 506.827,873.888 "/>
<polygon fill="#E5E5E5" points="566.632,1072.404 566.632,-332.74 563.566,-332.74 563.566,1072.948 522.154,1080.313 
	535.746,1156.726 612.156,1143.133 598.565,1066.724 "/>
<polygon fill="#E5E5E5" points="638.466,906.957 638.466,-332.74 635.4,-332.74 635.4,907.501 582.389,916.932 605.619,1047.523 
	736.21,1024.293 712.979,893.703 "/>
<polygon fill="#E5E5E5" points="862.559,863.396 812.354,871.745 812.354,-332.74 809.289,-332.74 809.289,872.255 776.615,877.688 
	790.908,963.635 876.853,949.34 "/>
</svg>
