<?xml version="1.0" encoding="utf-8"?>
<!-- Generator: Adobe Illustrator 15.0.0, SVG Export Plug-In . SVG Version: 6.00 Build 0)  -->
<!DOCTYPE svg PUBLIC "-//W3C//DTD SVG 1.1//EN" "http://www.w3.org/Graphics/SVG/1.1/DTD/svg11.dtd">
<svg version="1.1" id="Layer_1" xmlns="http://www.w3.org/2000/svg" xmlns:xlink="http://www.w3.org/1999/xlink" x="0px" y="0px"
	 width="615.271px" height="658.663px" viewBox="0 0 615.271 658.663" enable-background="new 0 0 615.271 658.663"
	 xml:space="preserve">
<path fill="#FFFBC5" d="M83.496,153.325v330h435v-330H83.496z M463.496,428.325h-327v-220h327V428.325z"/>
<path fill="#2B282A" d="M78.621,487.667h444.65V149.108H78.621V487.667z M94.223,473.624V163.151h415.006v310.473H94.223z"/>
<path fill="#0C0B0C" d="M85.568,483.368h432.297V154.511H85.568V483.368z M99.465,469.472V168.407h404.506v301.064H99.465z"/>
<path fill="#1C120D" d="M80.938,486.454h440.018v-335.03H80.938V486.454z M96.377,472.56v-307.24h410.682v307.24H96.377z"/>
<linearGradient id="SVGID_1_" gradientUnits="userSpaceOnUse" x1="6495.6797" y1="-6255.5981" x2="6653.9297" y2="-6255.5981" gradientTransform="matrix(0 1 1 0 6344.2554 -6344.2549)">
	<stop  offset="0" style="stop-color:#000000"/>
	<stop  offset="0.6315" style="stop-color:#343434;stop-opacity:0.3685"/>
	<stop  offset="1" style="stop-color:#4D4D4D;stop-opacity:0"/>
</linearGradient>
<path fill="url(#SVGID_1_)" d="M96.377,309.675V165.319l-15.439-13.895v158.25H96.377z"/>
<linearGradient id="SVGID_2_" gradientUnits="userSpaceOnUse" x1="-2697.2148" y1="-6255.5981" x2="-2538.9629" y2="-6255.5981" gradientTransform="matrix(0 -1 1 0 6344.2554 -2210.7607)">
	<stop  offset="0" style="stop-color:#000000"/>
	<stop  offset="0.6315" style="stop-color:#343434;stop-opacity:0.3685"/>
	<stop  offset="1" style="stop-color:#4D4D4D;stop-opacity:0"/>
</linearGradient>
<path fill="url(#SVGID_2_)" d="M80.938,328.202v158.252l15.439-13.895V328.202H80.938z"/>
<linearGradient id="SVGID_3_" gradientUnits="userSpaceOnUse" x1="-2741.7158" y1="6957.6719" x2="-2583.4639" y2="6957.6719" gradientTransform="matrix(0 -1 -1 0 7470.9072 -2255.2617)">
	<stop  offset="0" style="stop-color:#000000"/>
	<stop  offset="0.6315" style="stop-color:#343434;stop-opacity:0.3685"/>
	<stop  offset="1" style="stop-color:#4D4D4D;stop-opacity:0"/>
</linearGradient>
<path fill="url(#SVGID_3_)" d="M505.516,328.202V472.56l15.439,13.895V328.202H505.516z"/>
<linearGradient id="SVGID_4_" gradientUnits="userSpaceOnUse" x1="6540.1807" y1="6957.6719" x2="6698.4316" y2="6957.6719" gradientTransform="matrix(0 1 -1 0 7470.9072 -6388.7568)">
	<stop  offset="0" style="stop-color:#000000"/>
	<stop  offset="0.6315" style="stop-color:#343434;stop-opacity:0.3685"/>
	<stop  offset="1" style="stop-color:#4D4D4D;stop-opacity:0"/>
</linearGradient>
<path fill="url(#SVGID_4_)" d="M520.955,309.675v-158.25l-15.439,13.895v144.355H520.955z"/>
<rect x="131.371" y="203.712" opacity="0.1" fill="#8C8678" width="337.605" height="231.27"/>
<polyline opacity="0.3" fill="#999999" points="337.498,228.292 514.516,405.31 514.516,222.325 338.945,227.534 "/>
<g>
	<g>
		<path fill="#FFFBC5" d="M340.391,225.767h271.986V19.205H340.391V225.767z"/>
		<path fill="#2B282A" d="M337.498,228.292h277.773V16.793H337.498V228.292z M347.246,219.521V25.566h259.252v193.955H347.246z"/>
		<path fill="#0C0B0C" d="M341.838,225.606h270.057V20.168H341.838V225.606z M350.518,216.925V28.85h252.697v188.075H350.518z"/>
		<path fill="#1C120D" d="M338.945,227.534h274.879V18.241H338.945V227.534z M348.59,218.854V26.919h256.555v191.935H348.59z"/>
		
			<linearGradient id="SVGID_5_" gradientUnits="userSpaceOnUse" x1="6362.4961" y1="-6000.4878" x2="6461.3555" y2="-6000.4878" gradientTransform="matrix(0 1 1 0 6344.2554 -6344.2549)">
			<stop  offset="0" style="stop-color:#000000"/>
			<stop  offset="0.6315" style="stop-color:#343434;stop-opacity:0.3685"/>
			<stop  offset="1" style="stop-color:#4D4D4D;stop-opacity:0"/>
		</linearGradient>
		<path fill="url(#SVGID_5_)" d="M348.59,117.1V26.919l-9.645-8.679V117.1H348.59z"/>
		
			<linearGradient id="SVGID_6_" gradientUnits="userSpaceOnUse" x1="-2438.2949" y1="-6000.4878" x2="-2339.4351" y2="-6000.4878" gradientTransform="matrix(0 -1 1 0 6344.2554 -2210.7607)">
			<stop  offset="0" style="stop-color:#000000"/>
			<stop  offset="0.6315" style="stop-color:#343434;stop-opacity:0.3685"/>
			<stop  offset="1" style="stop-color:#4D4D4D;stop-opacity:0"/>
		</linearGradient>
		<path fill="url(#SVGID_6_)" d="M338.945,128.674v98.86l9.645-8.68v-90.18H338.945z"/>
		
			<linearGradient id="SVGID_7_" gradientUnits="userSpaceOnUse" x1="-2482.7959" y1="6861.9053" x2="-2383.936" y2="6861.9053" gradientTransform="matrix(0 -1 -1 0 7470.9072 -2255.2617)">
			<stop  offset="0" style="stop-color:#000000"/>
			<stop  offset="0.6315" style="stop-color:#343434;stop-opacity:0.3685"/>
			<stop  offset="1" style="stop-color:#4D4D4D;stop-opacity:0"/>
		</linearGradient>
		<path fill="url(#SVGID_7_)" d="M604.18,128.674v90.18l9.645,8.68v-98.86H604.18z"/>
		
			<linearGradient id="SVGID_8_" gradientUnits="userSpaceOnUse" x1="6406.9971" y1="6861.9053" x2="6505.8564" y2="6861.9053" gradientTransform="matrix(0 1 -1 0 7470.9072 -6388.7568)">
			<stop  offset="0" style="stop-color:#000000"/>
			<stop  offset="0.6315" style="stop-color:#343434;stop-opacity:0.3685"/>
			<stop  offset="1" style="stop-color:#4D4D4D;stop-opacity:0"/>
		</linearGradient>
		<path fill="url(#SVGID_8_)" d="M613.824,117.1V18.241l-9.645,8.679V117.1H613.824z"/>
	</g>
	<g>
		<rect x="370.451" y="50.905" opacity="0.1" fill="#1F1D1E" width="210.902" height="144.473"/>
		<rect x="373.666" y="54.064" fill="#BA0D6A" width="204.471" height="136.957"/>
	</g>
</g>
<polygon opacity="0.3" fill="#999999" points="277.773,398.396 365.268,485.89 271.834,485.89 "/>
<g>
	<path fill="#FFFBC5" d="M121.101,458.107v-2.365l4.72-3.519l-4.72-3.527v-2.346l6.771,4.71h6.779v2.346h-6.779L121.101,458.107z"/>
	<path fill="#FFFBC5" d="M121.816,471.771c-0.478-0.458-0.716-1.023-0.716-1.697v-8.868c0-0.687,0.235-1.265,0.706-1.735
		c0.471-0.47,1.049-0.705,1.734-0.705h8.668c0.668,0,1.241,0.239,1.721,0.72c0.48,0.479,0.721,1.054,0.721,1.721v8.811
		c0,0.687-0.235,1.265-0.706,1.735c-0.47,0.471-1.049,0.706-1.735,0.706h-8.668C122.868,472.457,122.293,472.228,121.816,471.771z
		 M132.314,461.11h-8.877v9.001h8.877V461.11z"/>
	<path fill="#FFFBC5" d="M121.101,485.987v-2.365h11.214v-7.046h-11.214v-2.346h11.108c0.668,0,1.241,0.239,1.721,0.72
		c0.48,0.479,0.721,1.054,0.721,1.721v6.875c0,0.674-0.238,1.249-0.716,1.726c-0.477,0.477-1.052,0.716-1.726,0.716H121.101z"/>
	<path fill="#FFFBC5" d="M129.244,495.517v1.562c0,0.673-0.238,1.247-0.716,1.724c-0.477,0.477-1.052,0.715-1.726,0.715h-3.262
		c-0.686,0-1.264-0.235-1.734-0.706s-0.706-1.049-0.706-1.735v-9.315h13.55v2.346h-5.406v2.012l5.406,4.1v3.303L129.244,495.517z
		 M126.908,497.152v-7.046h-3.471v7.046H126.908z"/>
	<path fill="#FFFBC5" d="M121.101,518.749v-11.757h2.337v4.71h11.213v2.346h-11.213v4.701H121.101z"/>
	<path fill="#FFFBC5" d="M132.314,531.573v-9.411h-3.281v9.411h-2.336v-9.411h-3.26v9.411h-2.337v-9.316
		c0-0.687,0.235-1.265,0.706-1.735c0.471-0.47,1.049-0.705,1.734-0.705h8.668c0.668,0,1.241,0.239,1.721,0.72
		c0.48,0.479,0.721,1.054,0.721,1.721v9.316H132.314z"/>
	<path fill="#FFFBC5" d="M121.101,544.067v-2.759l4.724-3.127l-4.724-3.139v-2.735l6.774,4.512l6.775-4.512v2.735l-4.725,3.139
		l4.725,3.127v2.759l-6.775-4.513L121.101,544.067z"/>
	<path fill="#FFFBC5" d="M121.101,556.603v-11.757h2.337v4.71h11.213v2.346h-11.213v4.701H121.101z"/>
</g>
<g>
	<path fill="#FFFBC5" d="M139.898,487.676v-2.365h5.597v-7.046h-5.597v-2.346h13.549v2.346h-5.616v7.046h5.616v2.365H139.898z"/>
	<path fill="#FFFBC5" d="M151.111,501.215v-9.411h-3.28v9.411h-2.336v-9.411h-3.261v9.411h-2.336v-9.316
		c0-0.687,0.234-1.265,0.705-1.735c0.471-0.47,1.049-0.705,1.735-0.705h8.667c0.668,0,1.242,0.239,1.722,0.72
		c0.479,0.479,0.72,1.054,0.72,1.721v9.316H151.111z"/>
	<path fill="#FFFBC5" d="M148.041,510.048v1.562c0,0.673-0.238,1.247-0.715,1.724s-1.053,0.715-1.727,0.715h-3.261
		c-0.687,0-1.265-0.235-1.735-0.706s-0.705-1.049-0.705-1.735v-9.315h13.549v2.346h-5.406v2.012l5.406,4.1v3.303L148.041,510.048z
		 M145.705,511.684v-7.046h-3.471v7.046H145.705z"/>
	<path fill="#FFFBC5" d="M151.111,527.503v-9.411h-3.28v9.411h-2.336v-9.411h-3.261v9.411h-2.336v-9.316
		c0-0.687,0.234-1.265,0.705-1.735c0.471-0.47,1.049-0.705,1.735-0.705h8.667c0.668,0,1.242,0.239,1.722,0.72
		c0.479,0.479,0.72,1.054,0.72,1.721v9.316H151.111z"/>
</g>
<g>
	<g>
		<path fill="#FFFBC5" d="M2.893,607.37h271.986V400.808H2.893V607.37z"/>
		<path fill="#2B282A" d="M0,609.896h277.773v-211.5H0V609.896z M9.746,601.122V407.169H269v193.953H9.746z"/>
		<path fill="#0C0B0C" d="M4.34,607.208h270.057V401.772H4.34V607.208z M13.02,598.528V410.452h252.697v188.076H13.02z"/>
		<path fill="#21140D" d="M1.447,609.138h274.879V399.843H1.447V609.138z M11.092,600.458V408.522h256.553v191.936H11.092z"/>
		
			<linearGradient id="SVGID_9_" gradientUnits="userSpaceOnUse" x1="6744.0977" y1="-6337.9858" x2="6842.957" y2="-6337.9858" gradientTransform="matrix(0 1 1 0 6344.2554 -6344.2549)">
			<stop  offset="0" style="stop-color:#000000"/>
			<stop  offset="0.6315" style="stop-color:#343434;stop-opacity:0.3685"/>
			<stop  offset="1" style="stop-color:#4D4D4D;stop-opacity:0"/>
		</linearGradient>
		<path fill="url(#SVGID_9_)" d="M11.092,498.702v-90.18l-9.645-8.68v98.859H11.092z"/>
		
			<linearGradient id="SVGID_10_" gradientUnits="userSpaceOnUse" x1="-2819.8984" y1="-6337.9858" x2="-2721.0391" y2="-6337.9858" gradientTransform="matrix(0 -1 1 0 6344.2554 -2210.7607)">
			<stop  offset="0" style="stop-color:#000000"/>
			<stop  offset="0.6315" style="stop-color:#343434;stop-opacity:0.3685"/>
			<stop  offset="1" style="stop-color:#4D4D4D;stop-opacity:0"/>
		</linearGradient>
		<path fill="url(#SVGID_10_)" d="M1.447,510.278v98.859l9.645-8.68v-90.18H1.447z"/>
		
			<linearGradient id="SVGID_11_" gradientUnits="userSpaceOnUse" x1="-2864.3994" y1="7199.4033" x2="-2765.54" y2="7199.4033" gradientTransform="matrix(0 -1 -1 0 7470.9072 -2255.2617)">
			<stop  offset="0" style="stop-color:#000000"/>
			<stop  offset="0.6315" style="stop-color:#343434;stop-opacity:0.3685"/>
			<stop  offset="1" style="stop-color:#4D4D4D;stop-opacity:0"/>
		</linearGradient>
		<path fill="url(#SVGID_11_)" d="M266.682,510.278v90.18l9.645,8.68v-98.859H266.682z"/>
		
			<linearGradient id="SVGID_12_" gradientUnits="userSpaceOnUse" x1="6788.5996" y1="7199.4033" x2="6887.459" y2="7199.4033" gradientTransform="matrix(0 1 -1 0 7470.9072 -6388.7568)">
			<stop  offset="0" style="stop-color:#000000"/>
			<stop  offset="0.6315" style="stop-color:#343434;stop-opacity:0.3685"/>
			<stop  offset="1" style="stop-color:#4D4D4D;stop-opacity:0"/>
		</linearGradient>
		<path fill="url(#SVGID_12_)" d="M276.326,498.702v-98.859l-9.645,8.68v90.18H276.326z"/>
	</g>
	<g>
		<rect x="32.953" y="432.509" opacity="0.1" fill="#1F1D1E" width="210.902" height="144.473"/>
		<rect x="36.168" y="435.667" fill="#CB120D" width="204.471" height="136.957"/>
	</g>
</g>
<g>
	<g>
		<path fill="#1C120D" d="M480.287,8.122l13.453,13.454l1.195-1.194c1.311-1.312,1.311-3.439,0-4.75L480.287,0.984
			c-1.312-1.312-3.439-1.312-4.75,0l-14.648,14.647c-1.311,1.312-1.311,3.438,0,4.75l1.193,1.194l13.455-13.454
			C476.848,6.81,478.975,6.81,480.287,8.122z"/>
	</g>
</g>
<g>
	<g>
		<path fill="#1C120D" d="M291.953,140.622l13.453,13.454l1.195-1.194c1.311-1.312,1.311-3.439,0-4.75l-14.648-14.647
			c-1.312-1.312-3.439-1.312-4.75,0l-14.648,14.647c-1.311,1.312-1.311,3.438,0,4.75l1.193,1.194l13.455-13.454
			C288.514,139.31,290.641,139.31,291.953,140.622z"/>
	</g>
</g>
<g>
	<g>
		<path fill="#21140D" d="M132.961,391.109l13.453,13.454l1.195-1.194c1.311-1.312,1.311-3.438,0-4.751l-14.648-14.646
			c-1.312-1.312-3.439-1.312-4.75,0l-14.648,14.646c-1.311,1.312-1.311,3.439,0,4.751l1.193,1.194l13.455-13.454
			C129.521,389.798,131.648,389.798,132.961,391.109z"/>
	</g>
</g>
</svg>
