<?xml version="1.0" encoding="utf-8"?>
<!-- Generator: Adobe Illustrator 15.0.0, SVG Export Plug-In  -->
<!DOCTYPE svg PUBLIC "-//W3C//DTD SVG 1.1//EN" "http://www.w3.org/Graphics/SVG/1.1/DTD/svg11.dtd" [
	<!ENTITY ns_flows "http://ns.adobe.com/Flows/1.0/">
]>
<svg version="1.1"
	 xmlns="http://www.w3.org/2000/svg" xmlns:xlink="http://www.w3.org/1999/xlink" xmlns:a="http://ns.adobe.com/AdobeSVGViewerExtensions/3.0/"
	 x="0px" y="0px" width="450px" height="67px" viewBox="2.939 -9.973 450 67"
	 overflow="visible" enable-background="new 2.939 -9.973 450 67" xml:space="preserve">
<defs>
</defs>
<path d="M9.5,20.926c0.036-0.186,0.261-0.606,0.672-1.26c0.41-0.653,0.849-1.344,1.315-2.072s0.915-1.39,1.345-1.988
	c0.429-0.597,0.681-0.952,0.756-1.064c0.373-0.448,0.756-0.784,1.147-1.008c0.393-0.224,0.709-0.326,0.952-0.308
	c0.242,0.019,0.401,0.159,0.477,0.42c0.074,0.262-0.02,0.672-0.28,1.232c-0.224,0.523-0.468,1.092-0.729,1.708
	c-0.261,0.616-0.485,1.223-0.672,1.82c0.261-0.41,0.532-0.83,0.812-1.26c0.28-0.429,0.55-0.831,0.812-1.204
	c0.261-0.373,0.477-0.681,0.645-0.924c0.168-0.243,0.288-0.401,0.363-0.476c0.373-0.448,0.757-0.784,1.148-1.008
	c0.392-0.224,0.709-0.326,0.952-0.308c0.242,0.019,0.4,0.159,0.476,0.42c0.074,0.262-0.019,0.672-0.279,1.232
	c-0.225,0.523-0.468,1.12-0.729,1.792c-0.262,0.672-0.504,1.326-0.728,1.96c-0.225,0.635-0.42,1.186-0.588,1.652
	c-0.168,0.467-0.271,0.756-0.309,0.868c-0.224,0.411-0.541,0.738-0.952,0.98c-0.411,0.243-0.831,0.392-1.26,0.448
	c-0.43,0.056-0.821,0.028-1.176-0.084c-0.355-0.112-0.588-0.336-0.7-0.672c-0.336,0.299-0.737,0.523-1.204,0.672
	c-0.467,0.15-0.896,0.196-1.288,0.14c-0.392-0.056-0.691-0.224-0.896-0.504C9.377,21.851,9.349,21.45,9.5,20.926z"/>
<path d="M55.083,31.734c-0.859,0.821-1.7,1.466-2.521,1.933c-0.821,0.467-1.605,0.821-2.352,1.063
	c-0.748,0.243-1.438,0.384-2.072,0.42c-0.636,0.038-1.176,0.038-1.624,0c0.074,0.598,0.326,1.092,0.756,1.483
	c0.429,0.393,0.971,0.645,1.624,0.757c0.652,0.112,1.4,0.084,2.24-0.084c0.84-0.169,1.708-0.532,2.604-1.093
	c0.448-0.26,0.905-0.578,1.372-0.951s0.924-0.766,1.372-1.176c0.448-0.411,0.868-0.812,1.26-1.205
	c0.393-0.392,0.7-0.756,0.925-1.092c0.224-0.336,0.531-0.512,0.924-0.531c0.392-0.019,0.746,0.047,1.063,0.195
	c0.317,0.15,0.551,0.384,0.7,0.7c0.148,0.317,0.112,0.644-0.112,0.979c-0.224,0.336-0.531,0.72-0.924,1.148
	c-0.392,0.43-0.821,0.887-1.288,1.372s-0.971,0.972-1.512,1.456c-0.542,0.486-1.092,0.934-1.652,1.344
	c-1.12,0.859-2.323,1.466-3.611,1.82c-1.288,0.355-2.521,0.494-3.696,0.42s-2.222-0.354-3.136-0.84
	c-0.916-0.484-1.56-1.156-1.933-2.016c-0.522-1.157-0.699-2.361-0.531-3.612s0.551-2.417,1.147-3.5
	c0.709-1.232,1.54-2.324,2.492-3.276c0.952-0.951,1.94-1.727,2.968-2.324c1.026-0.596,2.072-0.97,3.136-1.12
	c1.064-0.149,2.044-0.056,2.94,0.28c0.82,0.336,1.344,0.84,1.568,1.512c0.224,0.672,0.252,1.383,0.084,2.129
	c-0.168,0.747-0.468,1.465-0.896,2.156C55.969,30.773,55.531,31.324,55.083,31.734z M47.131,32.351
	c0.82,0.037,1.688-0.103,2.604-0.42c0.914-0.316,1.782-0.868,2.604-1.652c0.896-0.858,1.418-1.66,1.567-2.408
	c0.149-0.746-0.149-1.119-0.896-1.119c-0.374,0-0.804,0.14-1.288,0.42c-0.485,0.279-0.989,0.672-1.512,1.176
	c-0.523,0.504-1.046,1.092-1.568,1.764c-0.523,0.672-1.008,1.4-1.456,2.184L47.131,32.351z"/>
<path d="M68.075,22.831l-4.648,8.176c-0.411,0.747-0.812,1.455-1.204,2.127c-0.392,0.673-0.709,1.289-0.952,1.849
	s-0.411,1.036-0.504,1.428s-0.047,0.663,0.141,0.812c0.187,0.187,0.456,0.233,0.812,0.14c0.354-0.093,0.729-0.271,1.12-0.531
	c0.393-0.262,0.793-0.561,1.204-0.896c0.41-0.336,0.784-0.672,1.12-1.008c0.672-0.672,1.194-1.204,1.568-1.596
	c0.372-0.393,0.802-0.905,1.287-1.541c0.225-0.336,0.532-0.512,0.925-0.531c0.392-0.019,0.756,0.056,1.092,0.224
	s0.578,0.401,0.728,0.7s0.093,0.615-0.168,0.951c-0.373,0.486-0.877,1.102-1.512,1.849c-0.636,0.747-1.438,1.605-2.408,2.576
	c-0.635,0.598-1.214,1.102-1.735,1.512c-0.523,0.411-1.046,0.747-1.568,1.008c-0.523,0.262-1.064,0.448-1.624,0.56
	c-0.561,0.113-1.176,0.169-1.848,0.169c-1.904,0-3.015-0.774-3.332-2.324c-0.317-1.549,0.289-3.612,1.819-6.188
	c0.188-0.336,0.467-0.84,0.84-1.512s0.812-1.437,1.316-2.296c0.504-0.858,1.036-1.772,1.596-2.744
	c0.561-0.97,1.101-1.922,1.624-2.856c-0.299,0.038-0.615,0.056-0.952,0.056c-0.336,0-0.672,0-1.008,0
	c-0.784,0-1.288-0.158-1.512-0.476c-0.224-0.317-0.243-0.681-0.056-1.092c0.186-0.411,0.522-0.784,1.008-1.12
	c0.484-0.336,1.026-0.522,1.624-0.56c0.298,0,0.69,0,1.176,0c0.484,0,1.026-0.019,1.624-0.056l1.232-2.016
	c0.336-0.522,0.765-0.858,1.287-1.008c0.522-0.148,1.009-0.148,1.456,0c0.448,0.15,0.774,0.402,0.98,0.756
	c0.205,0.355,0.177,0.775-0.084,1.26l-0.561,0.952c0.561,0,1.083,0,1.568,0s0.877-0.019,1.176-0.056
	c0.561,0,0.896,0.159,1.009,0.476c0.111,0.317,0.074,0.672-0.112,1.064c-0.188,0.392-0.485,0.766-0.896,1.12
	c-0.411,0.355-0.859,0.532-1.344,0.532L68.075,22.831z"/>
<path d="M123.233,7.654c0.746,1.27,1.082,2.688,1.008,4.256c-0.075,1.568-0.514,3.155-1.315,4.76
	c-0.804,1.605-1.924,3.164-3.36,4.676c-1.438,1.512-3.127,2.866-5.068,4.06c1.681,1.157,2.809,2.54,3.389,4.144
	c0.578,1.606,0.568,3.342-0.028,5.209c-0.374,1.157-0.962,2.165-1.764,3.023c-0.804,0.859-1.746,1.54-2.828,2.044
	c-1.083,0.505-2.26,0.794-3.528,0.868c-1.27,0.074-2.539-0.093-3.808-0.504c-1.084-0.336-2.054-0.812-2.912-1.428
	c-0.859-0.616-1.605-1.316-2.24-2.1c-1.157,1.27-2.399,2.268-3.724,2.995c-1.326,0.728-2.792,1.093-4.396,1.093
	c-1.12,0-2.156-0.178-3.107-0.533c-0.952-0.354-1.774-0.84-2.465-1.455c-0.69-0.616-1.213-1.344-1.567-2.185
	c-0.355-0.84-0.495-1.745-0.42-2.716c0.111-1.604,0.513-2.846,1.204-3.725c0.69-0.876,1.483-1.529,2.38-1.959
	c0.896-0.43,1.792-0.672,2.688-0.729c0.896-0.056,1.605-0.047,2.128,0.028c1.456,0.187,2.763,0.598,3.92,1.231
	c1.157,0.636,2.221,1.4,3.192,2.297c0.522-0.859,1.017-1.755,1.484-2.688c0.466-0.933,0.942-1.903,1.428-2.912
	c-1.531,0.896-3.024,1.493-4.48,1.792s-2.81,0.318-4.06,0.057c-1.251-0.262-2.361-0.793-3.332-1.597
	c-0.972-0.802-1.699-1.856-2.184-3.164c-0.523-1.306-0.626-2.771-0.309-4.396s0.998-3.248,2.044-4.872
	c1.045-1.624,2.437-3.164,4.172-4.62c1.736-1.456,3.78-2.688,6.133-3.696c2.276-0.97,4.563-1.596,6.859-1.876
	c2.296-0.28,4.433-0.27,6.412,0.028l0.112-0.112c0.372-0.484,0.802-0.792,1.288-0.924c0.484-0.13,0.914-0.13,1.288,0
	c0.372,0.131,0.644,0.383,0.812,0.756c0.168,0.374,0.103,0.803-0.196,1.288c1.083,0.299,2.081,0.756,2.996,1.372
	S122.709,6.796,123.233,7.654z M93.441,31.062c-1.195-0.149-2.184,0.094-2.968,0.728c-0.784,0.636-1.242,1.373-1.372,2.213
	c-0.132,0.84,0.103,1.623,0.7,2.352c0.597,0.729,1.66,1.092,3.191,1.092c1.045,0,2.034-0.316,2.968-0.952
	c0.934-0.634,1.829-1.493,2.688-2.575c-0.56-0.598-1.279-1.186-2.156-1.765C95.616,31.576,94.597,31.212,93.441,31.062z
	 M106.769,18.294c0.933-2.128,1.904-4.237,2.912-6.328c1.008-2.09,2.053-4.05,3.136-5.88c-1.568-0.074-3.36,0.075-5.376,0.448
	c-2.016,0.374-3.985,1.046-5.908,2.016c-1.923,0.971-3.649,2.25-5.18,3.836c-1.531,1.587-2.558,3.538-3.08,5.852
	c-0.336,1.531-0.336,2.735,0,3.612c0.336,0.877,0.887,1.484,1.652,1.82c0.765,0.336,1.68,0.439,2.743,0.308
	c1.064-0.13,2.156-0.457,3.276-0.98c1.12-0.522,2.192-1.185,3.22-1.988C105.191,20.208,106.059,19.302,106.769,18.294z
	 M106.433,27.814c-0.523,1.083-1.056,2.109-1.597,3.08c-0.541,0.972-1.11,1.886-1.708,2.743c0.522,0.598,1.12,1.205,1.792,1.82
	c0.673,0.616,1.475,1.074,2.408,1.373c1.53,0.484,2.893,0.429,4.088-0.168c1.194-0.598,1.997-1.587,2.408-2.969
	c0.225-0.672,0.309-1.353,0.252-2.044c-0.056-0.69-0.233-1.325-0.532-1.903c-0.299-0.579-0.737-1.064-1.315-1.457
	c-0.579-0.392-1.279-0.605-2.101-0.644C108.673,27.572,107.441,27.628,106.433,27.814z M116.233,6.982
	c-0.784,1.307-1.531,2.688-2.24,4.144s-1.399,2.94-2.072,4.452c-0.672,1.512-1.335,3.034-1.987,4.564
	c-0.654,1.531-1.316,3.043-1.988,4.536c1.232-0.225,2.482-0.729,3.752-1.512c1.493-0.858,2.828-1.895,4.004-3.108
	c1.176-1.213,2.118-2.473,2.828-3.78c0.709-1.306,1.148-2.594,1.316-3.864c0.168-1.269-0.028-2.371-0.588-3.304
	c-0.3-0.522-0.72-0.952-1.261-1.288S116.868,7.207,116.233,6.982z"/>
<path d="M138.577,31.79c0.224-0.336,0.532-0.512,0.924-0.531c0.393-0.019,0.746,0.047,1.064,0.195c0.316,0.15,0.54,0.384,0.672,0.7
	c0.13,0.317,0.084,0.644-0.141,0.979c-0.299,0.449-0.737,0.953-1.315,1.513c-0.579,0.56-1.26,1.056-2.044,1.483
	c-0.784,0.43-1.615,0.729-2.492,0.896c-0.878,0.168-1.728,0.084-2.548-0.252c-1.083,1.195-2.287,2.147-3.612,2.855
	c-1.325,0.71-2.642,1.064-3.948,1.064c-0.971,0-1.811-0.225-2.52-0.672c-0.71-0.448-1.242-1.045-1.596-1.792
	c-0.354-0.747-0.532-1.633-0.532-2.66c0-1.026,0.205-2.118,0.616-3.276c0.447-1.156,1.044-2.248,1.792-3.275
	c0.746-1.026,1.586-1.922,2.52-2.688c0.933-0.766,1.913-1.373,2.94-1.82c1.026-0.448,2.044-0.672,3.052-0.672
	s1.866,0.224,2.576,0.672c0.709,0.447,1.24,1.055,1.596,1.82c0.354,0.766,0.532,1.661,0.532,2.688c0,1.027-0.206,2.119-0.616,3.275
	c-0.112,0.3-0.224,0.58-0.336,0.84c-0.112,0.262-0.243,0.523-0.392,0.785c0.56,0.037,1.203-0.149,1.932-0.561
	C137.428,32.948,138.053,32.426,138.577,31.79z M131.968,32.07c0.597-1.306,0.747-2.417,0.448-3.332
	c-0.299-0.914-0.934-1.372-1.904-1.372c-0.485,0-0.999,0.122-1.54,0.364c-0.541,0.243-1.063,0.579-1.567,1.008
	c-0.504,0.43-0.98,0.925-1.428,1.484c-0.448,0.56-0.804,1.176-1.064,1.848c-0.56,1.308-0.691,2.418-0.392,3.332
	c0.298,0.915,0.933,1.372,1.903,1.372c0.485,0,0.999-0.121,1.54-0.364c0.541-0.242,1.064-0.578,1.568-1.008
	c0.504-0.429,0.961-0.933,1.372-1.512C131.315,33.312,131.669,32.706,131.968,32.07z"/>
<path d="M151.96,24.622c0.336-0.336,0.774-0.55,1.316-0.644c0.541-0.093,1.036-0.084,1.483,0.028
	c0.448,0.112,0.757,0.308,0.925,0.588c0.168,0.279,0.064,0.644-0.309,1.092c-0.224,0.224-0.607,0.607-1.147,1.148
	c-0.542,0.541-1.186,1.166-1.933,1.875c-0.747,0.71-1.55,1.476-2.408,2.297s-1.735,1.643-2.632,2.463
	c0.074,1.084,0.233,1.98,0.477,2.688c0.242,0.71,0.644,1.064,1.204,1.064c0.447,0,0.942-0.224,1.483-0.673
	c0.541-0.447,1.083-0.97,1.624-1.567c0.541-0.597,1.036-1.194,1.484-1.792c0.448-0.597,0.784-1.064,1.008-1.4
	s0.532-0.512,0.924-0.531c0.393-0.019,0.756,0.056,1.092,0.224s0.579,0.401,0.729,0.7c0.148,0.299,0.093,0.615-0.168,0.951
	c-0.188,0.225-0.588,0.757-1.204,1.597s-1.354,1.708-2.212,2.604c-0.859,0.896-1.792,1.699-2.8,2.407
	c-1.009,0.71-1.998,1.064-2.969,1.064c-0.598,0-1.11-0.121-1.54-0.364c-0.429-0.242-0.803-0.568-1.119-0.98
	c-0.318-0.41-0.58-0.867-0.784-1.371c-0.206-0.504-0.364-1.018-0.477-1.541l-3.527,3.36c-0.523,0.523-1.111,0.849-1.765,0.98
	c-0.652,0.13-1.204,0.112-1.651-0.056c-0.448-0.168-0.709-0.477-0.784-0.925c-0.074-0.448,0.224-1.008,0.896-1.68
	c0.636-0.672,1.503-1.513,2.604-2.521c1.101-1.008,2.305-2.09,3.612-3.248l-0.168-2.352c-0.486,0.747-0.916,1.382-1.288,1.904
	c-0.374,0.523-0.636,0.896-0.784,1.119c-0.3,0.374-0.645,0.57-1.036,0.589s-0.747-0.065-1.064-0.253
	c-0.317-0.186-0.54-0.438-0.672-0.756c-0.13-0.316-0.064-0.624,0.196-0.924c0.672-0.82,1.4-1.828,2.184-3.023
	c0.784-1.194,1.513-2.333,2.185-3.416c0-0.484,0.187-0.858,0.56-1.12c0.373-0.261,0.774-0.401,1.204-0.42
	c0.429-0.019,0.83,0.084,1.204,0.308c0.373,0.225,0.578,0.561,0.616,1.008c0.036,0.636,0.084,1.326,0.14,2.072
	c0.057,0.748,0.121,1.476,0.196,2.184c1.045-0.896,2.006-1.754,2.884-2.575C150.625,25.985,151.363,25.258,151.96,24.622z"/>
<path d="M170.72,31.79c0.225-0.336,0.532-0.512,0.925-0.531c0.392-0.019,0.756,0.056,1.092,0.224s0.578,0.401,0.728,0.7
	s0.093,0.615-0.168,0.951c-0.188,0.225-0.439,0.552-0.756,0.98c-0.317,0.43-0.682,0.896-1.092,1.4
	c-0.411,0.504-0.859,1.008-1.344,1.512c-0.486,0.504-0.99,0.98-1.513,1.428c-0.859,0.672-1.876,1.298-3.052,1.877
	c-1.176,0.578-2.361,1.109-3.556,1.596l-1.904,3.527c-0.934,1.755-2.091,2.996-3.472,3.725c-1.382,0.728-2.669,1.072-3.864,1.035
	c-1.194-0.037-2.156-0.401-2.884-1.092c-0.729-0.691-0.924-1.596-0.588-2.716c0.299-0.972,0.756-1.735,1.372-2.296
	c0.615-0.561,1.354-1.036,2.212-1.428c0.859-0.393,1.828-0.748,2.912-1.064c1.082-0.317,2.258-0.737,3.527-1.26l0.336-0.616
	c-0.447,0.3-0.971,0.552-1.567,0.757c-0.598,0.204-1.363,0.308-2.296,0.308c-1.904,0-3.015-0.774-3.332-2.324
	c-0.317-1.549,0.289-3.612,1.819-6.188c0.299-0.56,0.645-1.185,1.036-1.875c0.393-0.691,0.774-1.373,1.148-2.045
	c0.372-0.672,0.736-1.307,1.092-1.904c0.354-0.596,0.662-1.1,0.924-1.512c0.336-0.521,0.765-0.857,1.288-1.008
	c0.522-0.148,1.008-0.148,1.456,0c0.448,0.15,0.774,0.402,0.979,0.756c0.205,0.355,0.177,0.775-0.084,1.26
	c-0.411,0.71-0.877,1.541-1.399,2.492c-0.523,0.952-0.99,1.802-1.4,2.549c-0.411,0.747-0.812,1.455-1.204,2.127
	c-0.392,0.673-0.709,1.289-0.952,1.849s-0.411,1.036-0.504,1.428s-0.047,0.663,0.141,0.812c0.187,0.149,0.55,0.149,1.092,0
	c0.541-0.149,1.129-0.411,1.764-0.784s1.251-0.812,1.849-1.316c0.597-0.504,1.044-1.035,1.344-1.596
	c0.298-0.561,0.635-1.223,1.008-1.988c0.373-0.765,0.756-1.539,1.148-2.324c0.392-0.783,0.774-1.539,1.147-2.268
	s0.69-1.334,0.952-1.82c0.261-0.484,0.652-0.83,1.176-1.035c0.522-0.205,1.017-0.28,1.484-0.225c0.466,0.056,0.82,0.243,1.063,0.561
	s0.215,0.737-0.084,1.26c-0.299,0.598-0.69,1.335-1.176,2.212c-0.485,0.878-0.971,1.765-1.456,2.66s-0.934,1.745-1.344,2.548
	c-0.411,0.803-0.728,1.41-0.952,1.82l-1.512,2.855c1.231-0.82,2.444-1.772,3.64-2.855c0.672-0.635,1.185-1.157,1.54-1.568
	C169.815,32.948,170.235,32.426,170.72,31.79z M157.281,43.774c-1.308,0.522-2.408,0.998-3.304,1.428
	c-0.896,0.43-1.4,0.868-1.513,1.316c-0.074,0.299,0.02,0.513,0.28,0.645c0.262,0.13,0.598,0.148,1.008,0.055
	c0.411-0.093,0.877-0.326,1.4-0.699c0.522-0.374,1.008-0.934,1.456-1.68L157.281,43.774z"/>
<path d="M202.639,32.519c0-1.008-0.317-1.867-0.952-2.576s-1.392-1.381-2.268-2.016c-0.878-0.635-1.783-1.297-2.717-1.988
	c-0.934-0.69-1.68-1.53-2.239-2.52c-0.561-0.989-0.841-2.184-0.841-3.584s0.485-3.145,1.456-5.236
	c1.009-2.165,2.333-4.19,3.977-6.076c1.643-1.885,3.472-3.416,5.488-4.592c2.016-1.176,4.133-1.895,6.356-2.156
	c2.221-0.261,4.396,0.131,6.523,1.176c1.156,0.56,1.838,1.41,2.045,2.548c0.203,1.139,0.084,2.417-0.365,3.836
	c-0.447,1.419-1.139,2.884-2.072,4.396c-0.934,1.512-1.959,2.931-3.08,4.256c-1.119,1.326-2.23,2.474-3.332,3.444
	c-1.102,0.971-2.043,1.605-2.826,1.904c-0.486,0.187-0.936,0.187-1.346,0c-0.41-0.187-0.727-0.429-0.952-0.728
	c-0.224-0.298-0.336-0.616-0.336-0.952s0.149-0.578,0.448-0.728c0.634-0.336,1.41-0.905,2.324-1.708
	c0.914-0.802,1.82-1.708,2.717-2.716c0.896-1.008,1.754-2.081,2.576-3.22c0.82-1.138,1.475-2.212,1.959-3.22
	c0.484-1.008,0.736-1.913,0.756-2.716c0.02-0.802-0.289-1.39-0.924-1.764c-0.934-0.522-1.932-0.747-2.996-0.672
	c-1.064,0.076-2.146,0.346-3.248,0.812s-2.184,1.111-3.248,1.932c-1.063,0.822-2.063,1.708-2.996,2.66
	c-0.934,0.952-1.764,1.941-2.492,2.968c-0.728,1.027-1.297,1.988-1.708,2.884c-0.672,1.419-0.896,2.623-0.672,3.612
	c0.225,0.99,0.681,1.876,1.372,2.66c0.69,0.784,1.521,1.521,2.492,2.212c0.971,0.691,1.885,1.419,2.744,2.185
	c0.858,0.766,1.54,1.633,2.044,2.604c0.504,0.971,0.662,2.146,0.475,3.527c-0.223,1.568-0.775,2.922-1.651,4.061
	c-0.878,1.139-1.942,2.025-3.192,2.66c-1.251,0.635-2.623,1.008-4.116,1.12s-2.968-0.094-4.424-0.616
	c-1.867-0.635-3.229-1.568-4.088-2.8c-0.859-1.232-1.344-2.501-1.456-3.808s0.074-2.521,0.561-3.641
	c0.484-1.12,1.101-1.904,1.848-2.352c0.522-0.336,1.017-0.393,1.483-0.168c0.467,0.224,0.841,0.56,1.12,1.008
	c0.28,0.447,0.42,0.943,0.42,1.484s-0.205,0.979-0.615,1.315c-0.411,0.336-0.672,0.737-0.784,1.204s-0.104,0.943,0.028,1.428
	c0.13,0.486,0.4,0.962,0.812,1.428c0.41,0.468,0.952,0.85,1.624,1.148c1.008,0.485,2.006,0.719,2.996,0.699
	c0.988-0.018,1.876-0.223,2.66-0.615s1.418-0.933,1.903-1.624C202.396,34.208,202.639,33.415,202.639,32.519z"/>
<path d="M222.63,24.398c0.672,0.448,1.166,1.063,1.484,1.849c0.316,0.783,0.455,1.68,0.42,2.688
	c-0.039,1.008-0.244,2.072-0.617,3.191c-0.373,1.121-0.914,2.223-1.623,3.305c-0.188,0.299-0.383,0.579-0.588,0.84
	c-0.207,0.262-0.402,0.504-0.588,0.729c0.783-0.373,1.623-0.896,2.52-1.568c0.82-0.635,1.455-1.241,1.904-1.82
	c0.447-0.578,0.932-1.185,1.455-1.82c0.225-0.336,0.533-0.512,0.924-0.531c0.393-0.019,0.746,0.056,1.064,0.224
	c0.316,0.168,0.551,0.401,0.699,0.7c0.15,0.299,0.094,0.615-0.168,0.951c-0.336,0.486-0.877,1.131-1.623,1.933
	c-0.748,0.804-1.625,1.689-2.633,2.66c-0.783,0.71-1.65,1.288-2.604,1.735c-0.951,0.448-1.914,0.785-2.883,1.008
	c-0.973,0.225-1.904,0.355-2.801,0.393s-1.68,0.019-2.352-0.056c-0.934,0-1.699-0.205-2.297-0.616
	c-0.523-0.299-0.971-0.803-1.344-1.512c-0.561,1.231-1.092,2.416-1.596,3.556c-0.504,1.138-0.953,2.156-1.344,3.052
	c-0.393,0.896-0.729,1.652-1.008,2.268c-0.281,0.617-0.457,0.999-0.533,1.148c-0.26,0.522-0.662,0.868-1.204,1.036
	c-0.541,0.168-1.063,0.168-1.567,0c-0.505-0.168-0.896-0.485-1.177-0.952c-0.279-0.467-0.252-1.055,0.084-1.764
	c0.225-0.523,0.654-1.447,1.288-2.771c0.636-1.326,1.354-2.848,2.156-4.564c0.803-1.717,1.652-3.547,2.549-5.488
	c0.896-1.94,1.744-3.789,2.547-5.544s1.521-3.312,2.156-4.676c0.635-1.362,1.082-2.342,1.344-2.94
	c0.15-0.336,0.467-0.56,0.953-0.672c0.484-0.112,0.961-0.112,1.428,0c0.467,0.112,0.84,0.318,1.119,0.616
	c0.281,0.299,0.326,0.672,0.141,1.12l-1.176,2.688c1.008-0.56,1.988-0.886,2.939-0.979C221.034,23.718,221.882,23.914,222.63,24.398
	z M219.55,33.694c0.484-0.709,0.877-1.428,1.176-2.156c0.299-0.728,0.504-1.4,0.615-2.016c0.113-0.616,0.131-1.148,0.057-1.596
	c-0.076-0.448-0.244-0.766-0.504-0.952c-0.299-0.187-0.682-0.243-1.148-0.168s-0.971,0.271-1.512,0.588s-1.111,0.747-1.707,1.288
	c-0.598,0.541-1.141,1.167-1.625,1.876c-0.486,0.747-0.896,1.476-1.232,2.184c-0.336,0.71-0.568,1.363-0.699,1.96
	c-0.131,0.598-0.178,1.111-0.141,1.54c0.037,0.43,0.205,0.737,0.504,0.925c0.373,0.262,0.82,0.363,1.344,0.308
	s1.055-0.243,1.598-0.56c0.539-0.317,1.092-0.757,1.65-1.316C218.485,35.038,219.026,34.403,219.55,33.694z"/>
<path d="M238.478,31.734c-0.859,0.821-1.699,1.466-2.52,1.933c-0.822,0.467-1.605,0.821-2.352,1.063
	c-0.748,0.243-1.439,0.384-2.072,0.42c-0.637,0.038-1.176,0.038-1.625,0c0.074,0.598,0.326,1.092,0.756,1.483
	c0.43,0.393,0.971,0.645,1.625,0.757c0.652,0.112,1.4,0.084,2.24-0.084c0.84-0.169,1.707-0.532,2.604-1.093
	c0.447-0.26,0.904-0.578,1.371-0.951s0.924-0.766,1.373-1.176c0.447-0.411,0.867-0.812,1.26-1.205
	c0.393-0.392,0.699-0.756,0.924-1.092s0.531-0.512,0.924-0.531c0.393-0.019,0.746,0.047,1.064,0.195
	c0.316,0.15,0.551,0.384,0.699,0.7c0.148,0.317,0.113,0.644-0.111,0.979s-0.531,0.72-0.924,1.148
	c-0.393,0.43-0.822,0.887-1.289,1.372s-0.971,0.972-1.512,1.456c-0.541,0.486-1.092,0.934-1.652,1.344
	c-1.119,0.859-2.322,1.466-3.611,1.82c-1.287,0.355-2.52,0.494-3.695,0.42s-2.223-0.354-3.137-0.84
	c-0.916-0.484-1.559-1.156-1.932-2.016c-0.523-1.157-0.699-2.361-0.531-3.612s0.551-2.417,1.146-3.5
	c0.709-1.232,1.541-2.324,2.492-3.276c0.953-0.951,1.941-1.727,2.969-2.324c1.025-0.596,2.072-0.97,3.135-1.12
	c1.064-0.149,2.045-0.056,2.941,0.28c0.82,0.336,1.344,0.84,1.568,1.512c0.223,0.672,0.252,1.383,0.084,2.129
	c-0.168,0.747-0.469,1.465-0.896,2.156C239.364,30.773,238.925,31.324,238.478,31.734z M230.526,32.351
	c0.82,0.037,1.688-0.103,2.604-0.42c0.914-0.316,1.781-0.868,2.604-1.652c0.896-0.858,1.418-1.66,1.568-2.408
	c0.148-0.746-0.15-1.119-0.896-1.119c-0.373,0-0.803,0.14-1.287,0.42c-0.486,0.279-0.99,0.672-1.512,1.176
	c-0.523,0.504-1.047,1.092-1.568,1.764c-0.523,0.672-1.008,1.4-1.457,2.184L230.526,32.351z"/>
<path d="M259.813,31.79c0.262-0.336,0.588-0.512,0.98-0.531c0.393-0.019,0.756,0.056,1.092,0.224s0.578,0.401,0.729,0.7
	c0.148,0.299,0.092,0.615-0.168,0.951c-0.188,0.225-0.439,0.552-0.756,0.98c-0.318,0.43-0.691,0.887-1.121,1.372
	s-0.887,0.989-1.371,1.513c-0.486,0.522-0.99,1.008-1.512,1.455c-1.008,0.896-1.904,1.512-2.689,1.848
	c-0.783,0.336-1.475,0.485-2.07,0.449c-0.598-0.038-1.102-0.225-1.514-0.561c-0.41-0.336-0.766-0.729-1.062-1.176
	c-0.598,0.373-1.242,0.766-1.932,1.176c-0.691,0.411-1.729,0.616-3.109,0.616c-0.971,0-1.811-0.224-2.52-0.673
	c-0.709-0.447-1.232-1.082-1.568-1.903s-0.447-1.801-0.336-2.94c0.111-1.139,0.541-2.38,1.289-3.724
	c0.707-1.344,1.557-2.511,2.547-3.5c0.988-0.989,1.988-1.801,2.996-2.437c1.008-0.634,1.988-1.1,2.939-1.399
	c0.953-0.298,1.783-0.448,2.492-0.448c0.484,0,0.906,0.066,1.26,0.196c0.355,0.131,0.682,0.29,0.98,0.476
	c0.299,0.188,0.578,0.412,0.84,0.672c0.225-0.447,0.598-0.773,1.121-0.979c0.521-0.205,1.016-0.28,1.484-0.224
	c0.465,0.056,0.82,0.234,1.062,0.532c0.242,0.3,0.215,0.71-0.084,1.232c-0.299,0.598-0.672,1.335-1.119,2.212
	c-0.449,0.878-0.916,1.773-1.4,2.688c-0.486,0.914-0.943,1.773-1.371,2.576c-0.43,0.803-0.775,1.391-1.037,1.764
	c-0.225,0.411-0.309,0.699-0.252,0.867s0.215,0.244,0.477,0.225c0.26-0.019,0.561-0.121,0.896-0.309
	c0.336-0.186,0.672-0.447,1.008-0.783c0.633-0.672,1.146-1.204,1.539-1.596C258.946,32.938,259.366,32.426,259.813,31.79z
	 M251.581,33.358c0.561-0.709,1.018-1.428,1.373-2.156c0.354-0.728,0.615-1.4,0.783-2.016c0.168-0.616,0.234-1.156,0.197-1.624
	c-0.039-0.466-0.207-0.812-0.504-1.036c-0.301-0.225-0.682-0.289-1.148-0.195c-0.467,0.093-0.971,0.307-1.512,0.644
	c-0.543,0.336-1.102,0.784-1.68,1.344c-0.58,0.56-1.148,1.195-1.709,1.904c-0.561,0.747-1.027,1.476-1.4,2.184
	c-0.373,0.71-0.643,1.372-0.811,1.988s-0.225,1.157-0.168,1.624c0.055,0.467,0.232,0.812,0.531,1.035
	c0.26,0.225,0.625,0.3,1.092,0.225c0.467-0.074,0.98-0.279,1.539-0.615c0.561-0.337,1.129-0.785,1.709-1.345
	C250.452,34.759,251.022,34.105,251.581,33.358z"/>
<path d="M268.829,12.19c0.148-0.373,0.467-0.606,0.951-0.7c0.486-0.093,0.961-0.084,1.43,0.028c0.465,0.112,0.84,0.317,1.119,0.616
	c0.279,0.299,0.326,0.672,0.141,1.12l-4.873,11.088l0.393-0.28c1.344-0.858,2.631-1.26,3.863-1.204s2.213,0.411,2.941,1.064
	c0.727,0.654,1.092,1.54,1.092,2.661c0,1.119-0.561,2.314-1.682,3.584c-0.521,0.598-1.139,1.157-1.848,1.68
	c-0.709,0.523-1.447,0.999-2.211,1.428c-0.766,0.43-1.541,0.793-2.324,1.092c-0.785,0.299-1.494,0.504-2.129,0.616
	c0.037,0.374,0.131,0.728,0.281,1.063c0.111,0.3,0.289,0.58,0.531,0.84c0.242,0.262,0.588,0.449,1.035,0.561
	c0.373,0.112,0.99,0.084,1.85-0.084c0.857-0.168,1.996-0.812,3.416-1.932c0.857-0.635,1.539-1.241,2.043-1.82
	c0.504-0.578,0.998-1.185,1.484-1.82c0.225-0.336,0.531-0.512,0.924-0.531c0.393-0.019,0.756,0.056,1.092,0.224
	s0.578,0.401,0.729,0.7c0.148,0.299,0.092,0.615-0.168,0.951c-0.412,0.523-0.775,0.963-1.092,1.316
	c-0.318,0.355-0.635,0.7-0.953,1.036c-0.316,0.336-0.652,0.672-1.008,1.008c-0.355,0.337-0.775,0.747-1.26,1.232
	c-0.896,0.858-1.84,1.54-2.828,2.044s-1.959,0.84-2.912,1.008c-0.951,0.168-1.857,0.177-2.715,0.028
	c-0.859-0.149-1.605-0.467-2.24-0.952c-0.412-0.299-0.775-0.729-1.092-1.288c-0.318-0.56-0.588-1.12-0.812-1.681l-1.344,2.969
	c-0.262,0.523-0.664,0.858-1.205,1.008c-0.539,0.148-1.062,0.141-1.566-0.027s-0.887-0.485-1.148-0.953
	c-0.262-0.466-0.225-1.054,0.111-1.764c0.225-0.521,0.645-1.437,1.26-2.744c0.617-1.307,1.326-2.818,2.129-4.535
	s1.652-3.547,2.547-5.488c0.896-1.941,1.746-3.789,2.549-5.544s1.521-3.313,2.156-4.676C268.12,13.768,268.567,12.788,268.829,12.19
	z M268.437,27.03c-0.746,0.598-1.492,1.372-2.24,2.324c-0.746,0.952-1.438,1.914-2.072,2.884c1.195-0.224,2.361-0.662,3.5-1.315
	s2.082-1.316,2.828-1.988c0.672-0.635,1.074-1.186,1.205-1.652s0.074-0.803-0.168-1.008c-0.244-0.205-0.645-0.261-1.205-0.168
	C269.726,26.2,269.108,26.508,268.437,27.03z"/>
<path d="M319.06,30.335c-1.156,0.037-2.174,0.064-3.051,0.084c-0.879,0.019-1.729,0.027-2.549,0.027
	c-0.82,1.494-1.68,2.875-2.576,4.145c-0.895,1.27-1.857,2.361-2.883,3.275c-1.027,0.916-2.109,1.624-3.248,2.128
	c-1.141,0.505-2.381,0.757-3.725,0.757c-1.119,0-2.166-0.178-3.137-0.533c-0.971-0.354-1.801-0.84-2.492-1.455
	c-0.689-0.616-1.213-1.344-1.566-2.185c-0.355-0.84-0.496-1.745-0.42-2.716c0.148-1.604,0.588-2.828,1.314-3.668
	c0.729-0.84,1.549-1.437,2.465-1.792c0.914-0.354,1.828-0.504,2.744-0.448c0.914,0.057,1.633,0.178,2.156,0.364
	c0.484,0.224,0.83,0.523,1.035,0.896c0.205,0.374,0.281,0.729,0.225,1.064s-0.215,0.598-0.477,0.784s-0.615,0.187-1.064,0
	c-0.746-0.298-1.428-0.345-2.043-0.14c-0.617,0.205-1.111,0.541-1.484,1.008s-0.615,1.018-0.729,1.652
	c-0.111,0.635-0.064,1.241,0.141,1.819c0.205,0.579,0.598,1.063,1.176,1.456s1.391,0.588,2.436,0.588
	c1.531,0,2.941-0.625,4.229-1.876c1.289-1.251,2.529-2.921,3.725-5.012c-0.748,0-1.205-0.168-1.373-0.505
	c-0.168-0.336-0.158-0.699,0.029-1.092c0.186-0.392,0.521-0.756,1.008-1.092c0.484-0.336,1.025-0.521,1.623-0.56h0.449
	c0.148-0.336,0.297-0.663,0.447-0.979c0.148-0.317,0.316-0.645,0.504-0.98c-1.531,0.896-3.033,1.503-4.508,1.82
	s-2.848,0.354-4.115,0.111c-1.27-0.242-2.381-0.765-3.332-1.568c-0.953-0.802-1.691-1.875-2.213-3.22
	c-0.523-1.306-0.625-2.771-0.309-4.396c0.318-1.624,1.008-3.248,2.072-4.872s2.465-3.164,4.201-4.62
	c1.734-1.456,3.779-2.688,6.131-3.696c2.277-0.97,4.555-1.596,6.832-1.876c2.277-0.28,4.424-0.27,6.439,0.028l0.113-0.112
	c0.336-0.484,0.746-0.792,1.232-0.924c0.484-0.13,0.924-0.13,1.314,0c0.393,0.131,0.672,0.374,0.84,0.728
	c0.168,0.355,0.121,0.775-0.139,1.26c2.873,0.859,5.32,1.195,7.336,1.008c2.016-0.187,3.732-0.877,5.152-2.072
	c0.297-0.224,0.707-0.326,1.23-0.308c0.523,0.019,1,0.122,1.43,0.308c0.428,0.188,0.717,0.458,0.867,0.812
	c0.148,0.355,0.018,0.738-0.393,1.148c-0.746,0.748-1.707,1.4-2.883,1.96s-2.521,0.952-4.033,1.176s-3.164,0.262-4.955,0.112
	c-1.793-0.148-3.678-0.56-5.656-1.232c-0.896,1.494-1.746,3.08-2.549,4.76c-0.803,1.68-1.586,3.397-2.352,5.152
	c-0.766,1.755-1.531,3.51-2.295,5.264c-0.766,1.755-1.541,3.453-2.324,5.096c1.045,0,2.053-0.009,3.023-0.027
	c0.971-0.02,1.717-0.028,2.24-0.028c0.561,0,0.904,0.168,1.035,0.504s0.104,0.7-0.084,1.092s-0.484,0.756-0.895,1.093
	C319.993,30.167,319.546,30.335,319.06,30.335z M315.14,18.294c0.934-2.128,1.904-4.237,2.912-6.328
	c1.008-2.09,2.053-4.05,3.137-5.88c-1.568-0.074-3.369,0.075-5.404,0.448c-2.035,0.374-4.014,1.046-5.936,2.016
	c-1.924,0.971-3.641,2.25-5.152,3.836c-1.512,1.587-2.529,3.538-3.053,5.852c-0.336,1.531-0.346,2.735-0.027,3.612
	c0.316,0.877,0.859,1.484,1.625,1.82c0.764,0.336,1.688,0.439,2.771,0.308c1.082-0.13,2.184-0.457,3.303-0.98
	c1.121-0.522,2.193-1.185,3.221-1.988C313.563,20.208,314.431,19.302,315.14,18.294z"/>
<path d="M339.724,31.79c0.223-0.336,0.531-0.512,0.924-0.531c0.393-0.019,0.746,0.047,1.064,0.195c0.316,0.15,0.539,0.384,0.672,0.7
	c0.129,0.317,0.084,0.644-0.141,0.979c-0.299,0.449-0.738,0.953-1.316,1.513s-1.26,1.056-2.043,1.483
	c-0.785,0.43-1.615,0.729-2.492,0.896c-0.879,0.168-1.729,0.084-2.549-0.252c-1.082,1.195-2.287,2.147-3.611,2.855
	c-1.326,0.71-2.643,1.064-3.949,1.064c-0.971,0-1.811-0.225-2.52-0.672c-0.709-0.448-1.242-1.045-1.596-1.792
	s-0.531-1.633-0.531-2.66c0-1.026,0.205-2.118,0.615-3.276c0.447-1.156,1.045-2.248,1.793-3.275c0.746-1.026,1.586-1.922,2.52-2.688
	c0.932-0.766,1.912-1.373,2.939-1.82c1.027-0.448,2.045-0.672,3.053-0.672s1.865,0.224,2.576,0.672
	c0.709,0.447,1.24,1.055,1.596,1.82c0.354,0.766,0.531,1.661,0.531,2.688c0,1.027-0.205,2.119-0.615,3.275
	c-0.113,0.3-0.225,0.58-0.336,0.84c-0.113,0.262-0.244,0.523-0.393,0.785c0.561,0.037,1.203-0.149,1.932-0.561
	C338.575,32.948,339.2,32.426,339.724,31.79z M333.114,32.07c0.598-1.306,0.748-2.417,0.449-3.332
	c-0.299-0.914-0.934-1.372-1.904-1.372c-0.486,0-1,0.122-1.541,0.364c-0.541,0.243-1.062,0.579-1.566,1.008
	c-0.504,0.43-0.98,0.925-1.428,1.484c-0.449,0.56-0.805,1.176-1.064,1.848c-0.561,1.308-0.691,2.418-0.393,3.332
	c0.299,0.915,0.934,1.372,1.904,1.372c0.484,0,0.998-0.121,1.539-0.364c0.541-0.242,1.064-0.578,1.568-1.008
	c0.504-0.429,0.961-0.933,1.373-1.512C332.462,33.312,332.815,32.706,333.114,32.07z"/>
<path d="M339.724,31.79c0.746-0.857,1.549-1.932,2.408-3.22c0.857-1.288,1.643-2.473,2.352-3.556
	c-0.449-0.561-0.793-1.241-1.037-2.044c-0.242-0.802-0.373-1.614-0.391-2.436c-0.02-0.82,0.084-1.596,0.307-2.324
	c0.225-0.728,0.617-1.316,1.178-1.764c0.82-0.634,1.604-0.96,2.352-0.98c0.746-0.018,1.381,0.178,1.904,0.588
	c0.521,0.412,0.904,0.98,1.146,1.708s0.289,1.503,0.141,2.324c-0.074,0.486-0.262,1.045-0.561,1.68
	c-0.299,0.635-0.652,1.325-1.062,2.072c0.447,0.112,0.951,0.112,1.512,0c0.596-0.112,1.1-0.084,1.512,0.084
	c0.41,0.168,0.729,0.402,0.951,0.7c0.225,0.3,0.336,0.626,0.336,0.98c0,0.355-0.111,0.645-0.336,0.867
	c-0.148,0.15-0.447,0.486-0.895,1.009c-0.449,0.522-0.963,1.147-1.541,1.876c-0.58,0.729-1.168,1.503-1.764,2.324
	c-0.598,0.821-1.111,1.605-1.541,2.352c-0.43,0.748-0.746,1.41-0.951,1.988c-0.205,0.579-0.178,0.961,0.084,1.148
	c0.41,0.373,0.988,0.41,1.736,0.111c0.746-0.299,1.529-0.756,2.352-1.372c0.82-0.616,1.625-1.306,2.408-2.071
	s1.418-1.447,1.904-2.045c0.26-0.298,0.588-0.457,0.98-0.476c0.391-0.019,0.746,0.048,1.062,0.196
	c0.318,0.149,0.551,0.373,0.701,0.672c0.148,0.299,0.092,0.615-0.168,0.951c-0.561,0.785-1.354,1.709-2.381,2.772
	s-2.166,2.017-3.416,2.856s-2.529,1.447-3.836,1.82c-1.307,0.372-2.52,0.26-3.641-0.336c-0.971-0.485-1.512-1.251-1.623-2.297
	c-0.111-1.045,0.074-2.174,0.561-3.388c0.484-1.213,1.176-2.437,2.072-3.668c0.895-1.231,1.865-2.276,2.91-3.136
	c0.299-0.262,0.457-0.439,0.477-0.532s-0.363-0.289-1.148-0.589c-0.934,1.457-1.838,2.801-2.715,4.033
	c-0.879,1.231-1.467,2.053-1.764,2.463c-0.301,0.374-0.645,0.57-1.037,0.589c-0.391,0.019-0.736-0.065-1.035-0.253
	c-0.299-0.186-0.514-0.438-0.645-0.756C339.452,32.397,339.499,32.09,339.724,31.79z M346.892,18.294
	c-0.299,0-0.533,0.122-0.701,0.364c-0.168,0.244-0.279,0.56-0.336,0.952c-0.055,0.392-0.047,0.812,0.029,1.26
	c0.074,0.448,0.223,0.877,0.447,1.288c0.225-0.448,0.43-0.896,0.615-1.344c0.188-0.448,0.318-0.858,0.393-1.232
	c0.074-0.373,0.074-0.681,0-0.924C347.265,18.416,347.114,18.294,346.892,18.294z"/>
<path d="M401.099,2.95c0.371-0.484,0.82-0.792,1.344-0.924c0.521-0.13,0.98-0.121,1.371,0.028c0.393,0.15,0.652,0.42,0.785,0.812
	c0.129,0.392,0.008,0.868-0.365,1.428c-1.568,2.203-3.006,4.713-4.311,7.532c-1.309,2.819-2.596,5.675-3.865,8.568
	c-1.27,2.894-2.557,5.684-3.863,8.372c-1.309,2.688-2.744,5.003-4.312,6.943c0.41,0.448,0.82,0.822,1.232,1.121
	c0.41,0.299,0.857,0.484,1.344,0.56c0.746,0.038,1.539-0.205,2.379-0.728c0.842-0.523,1.578-1.102,2.213-1.736
	c0.672-0.672,1.195-1.204,1.568-1.596c0.373-0.393,0.803-0.905,1.287-1.541c0.225-0.336,0.533-0.512,0.924-0.531
	c0.393-0.019,0.756,0.056,1.094,0.224c0.336,0.168,0.578,0.401,0.727,0.7s0.094,0.615-0.168,0.951
	c-0.373,0.449-0.877,1.056-1.512,1.82c-0.635,0.766-1.438,1.634-2.408,2.604c-0.635,0.598-1.223,1.102-1.764,1.512
	c-0.541,0.411-1.074,0.747-1.596,1.008c-0.523,0.262-1.055,0.448-1.596,0.56c-0.543,0.113-1.148,0.169-1.82,0.169
	c-0.859,0-1.615-0.261-2.268-0.784c-0.654-0.522-1.279-1.176-1.877-1.96c-1.008,0.859-2.062,1.521-3.164,1.987
	c-1.102,0.468-2.287,0.701-3.555,0.701c-1.121,0-2.166-0.178-3.137-0.533c-0.971-0.354-1.803-0.84-2.492-1.455
	c-0.691-0.616-1.213-1.344-1.568-2.185c-0.355-0.84-0.494-1.745-0.42-2.716c0.111-1.492,0.504-2.678,1.176-3.556
	c0.672-0.877,1.457-1.521,2.352-1.933c0.896-0.41,1.82-0.625,2.773-0.644c0.951-0.019,1.764,0.065,2.436,0.252
	c1.381,0.411,2.482,1.063,3.305,1.96c0.82,0.896,1.604,1.867,2.352,2.912c0.896-1.307,1.771-2.801,2.631-4.48
	s1.717-3.472,2.576-5.375c-1.008,0.747-2.119,1.344-3.332,1.792c-1.213,0.448-2.529,0.672-3.947,0.672
	c-0.859,0-1.717-0.214-2.576-0.644c-0.859-0.429-1.578-1.054-2.156-1.876c-0.578-0.821-0.924-1.848-1.035-3.08
	c-0.113-1.232,0.158-2.66,0.811-4.284c0.654-1.624,1.766-3.434,3.332-5.432c1.568-1.997,3.771-4.172,6.609-6.524
	c0.596-0.485,1.184-0.719,1.764-0.7c0.578,0.019,1.064,0.168,1.455,0.448c0.393,0.28,0.625,0.635,0.701,1.064
	c0.074,0.43-0.094,0.793-0.504,1.092c-2.24,1.643-4.135,3.37-5.684,5.18c-1.551,1.811-2.68,3.5-3.389,5.068
	s-0.971,2.884-0.785,3.948c0.188,1.063,0.896,1.671,2.129,1.82c1.307,0.149,2.604-0.205,3.893-1.064
	c1.287-0.858,2.492-1.904,3.611-3.136c1.121-1.232,2.1-2.5,2.939-3.808c0.84-1.306,1.484-2.333,1.934-3.08
	c0.672-1.381,1.371-2.707,2.1-3.976C399.501,5.209,400.276,4.034,401.099,2.95z M379.202,37.446c0.82,0,1.596-0.187,2.324-0.561
	c0.727-0.372,1.445-0.896,2.156-1.567c-0.336-0.448-0.654-0.905-0.953-1.372s-0.625-0.904-0.98-1.316
	c-0.354-0.41-0.746-0.773-1.176-1.092c-0.43-0.316-0.924-0.531-1.482-0.644c-0.674-0.149-1.271-0.093-1.793,0.168
	c-0.523,0.262-0.943,0.636-1.26,1.12c-0.318,0.485-0.514,1.027-0.588,1.624c-0.076,0.597,0,1.167,0.225,1.708
	c0.223,0.541,0.623,0.999,1.203,1.371C377.456,37.26,378.231,37.446,379.202,37.446z"/>
<path d="M415.153,31.79c0.225-0.336,0.533-0.512,0.924-0.531c0.393-0.019,0.746,0.047,1.064,0.195c0.316,0.15,0.541,0.384,0.672,0.7
	c0.131,0.317,0.084,0.644-0.141,0.979c-0.299,0.449-0.736,0.953-1.314,1.513c-0.58,0.56-1.26,1.056-2.045,1.483
	c-0.783,0.43-1.615,0.729-2.492,0.896s-1.727,0.084-2.547-0.252c-1.084,1.195-2.287,2.147-3.613,2.855
	c-1.324,0.71-2.641,1.064-3.947,1.064c-0.971,0-1.811-0.225-2.52-0.672c-0.711-0.448-1.242-1.045-1.596-1.792
	c-0.355-0.747-0.533-1.633-0.533-2.66c0-1.026,0.205-2.118,0.617-3.276c0.447-1.156,1.043-2.248,1.791-3.275
	c0.746-1.026,1.586-1.922,2.52-2.688s1.914-1.373,2.941-1.82c1.025-0.448,2.043-0.672,3.051-0.672s1.867,0.224,2.576,0.672
	c0.709,0.447,1.24,1.055,1.596,1.82s0.533,1.661,0.533,2.688c0,1.027-0.207,2.119-0.617,3.275c-0.111,0.3-0.223,0.58-0.336,0.84
	c-0.111,0.262-0.242,0.523-0.391,0.785c0.559,0.037,1.203-0.149,1.932-0.561C414.005,32.948,414.63,32.426,415.153,31.79z
	 M408.546,32.07c0.596-1.306,0.746-2.417,0.447-3.332c-0.299-0.914-0.934-1.372-1.904-1.372c-0.484,0-0.998,0.122-1.539,0.364
	c-0.541,0.243-1.064,0.579-1.568,1.008c-0.504,0.43-0.98,0.925-1.428,1.484s-0.803,1.176-1.064,1.848
	c-0.559,1.308-0.691,2.418-0.391,3.332c0.297,0.915,0.932,1.372,1.902,1.372c0.486,0,1-0.121,1.541-0.364
	c0.541-0.242,1.064-0.578,1.568-1.008c0.504-0.429,0.961-0.933,1.371-1.512S408.247,32.706,408.546,32.07z"/>
<path d="M430.89,31.79c0.225-0.336,0.531-0.512,0.924-0.531c0.393-0.019,0.756,0.056,1.092,0.224s0.578,0.401,0.729,0.7
	c0.148,0.299,0.092,0.615-0.168,0.951c-0.188,0.225-0.439,0.552-0.756,0.98c-0.318,0.43-0.682,0.887-1.092,1.372
	c-0.412,0.485-0.859,0.989-1.344,1.513c-0.486,0.522-0.99,1.008-1.512,1.455c-1.047,0.896-1.961,1.512-2.744,1.848
	c-0.785,0.336-1.467,0.485-2.045,0.449c-0.578-0.038-1.074-0.225-1.484-0.561s-0.766-0.729-1.062-1.176
	c-0.301,0.188-0.607,0.383-0.926,0.588c-0.316,0.205-0.662,0.401-1.035,0.588c-0.373,0.188-0.812,0.336-1.316,0.447
	c-0.504,0.113-1.092,0.169-1.764,0.169c-1.904,0-3.014-0.774-3.332-2.324c-0.316-1.549,0.289-3.612,1.82-6.188
	c0.336-0.56,0.689-1.185,1.064-1.875c0.373-0.691,0.756-1.373,1.146-2.045c0.393-0.672,0.766-1.307,1.121-1.904
	c0.354-0.596,0.662-1.1,0.924-1.512c0.336-0.521,0.756-0.857,1.26-1.008c0.504-0.148,0.98-0.148,1.428,0
	c0.449,0.15,0.775,0.402,0.98,0.756c0.205,0.355,0.176,0.775-0.084,1.26c-0.412,0.71-0.877,1.541-1.4,2.492
	c-0.523,0.952-0.99,1.802-1.4,2.549s-0.811,1.455-1.203,2.127c-0.393,0.673-0.709,1.289-0.953,1.849
	c-0.242,0.56-0.41,1.036-0.504,1.428c-0.092,0.392-0.047,0.663,0.141,0.812c0.41,0.336,1.111,0.14,2.1-0.589
	c0.99-0.728,2.045-1.819,3.164-3.275c0.41-0.522,0.877-1.25,1.4-2.184s1.027-1.849,1.512-2.744c0.561-1.045,1.139-2.146,1.736-3.305
	c0.225-0.447,0.588-0.773,1.092-0.979c0.504-0.205,0.988-0.28,1.457-0.224c0.465,0.056,0.83,0.234,1.092,0.532
	c0.26,0.3,0.242,0.71-0.057,1.232c-0.299,0.598-0.682,1.335-1.148,2.212c-0.467,0.878-0.943,1.773-1.428,2.688
	c-0.484,0.914-0.943,1.773-1.371,2.576c-0.43,0.803-0.756,1.391-0.98,1.764c-0.225,0.411-0.309,0.699-0.252,0.867
	s0.205,0.244,0.447,0.225c0.242-0.019,0.541-0.121,0.896-0.309c0.354-0.186,0.699-0.447,1.035-0.783
	c0.635-0.672,1.139-1.204,1.514-1.596C429.974,32.938,430.403,32.426,430.89,31.79z"/>
<path d="M445.28,14.99c-0.037,0.188-0.26,0.607-0.672,1.26c-0.41,0.653-0.85,1.344-1.314,2.072
	c-0.469,0.728-0.916,1.392-1.346,1.988c-0.428,0.598-0.682,0.952-0.756,1.064c-0.373,0.448-0.756,0.784-1.146,1.008
	c-0.393,0.224-0.711,0.327-0.953,0.308c-0.242-0.019-0.4-0.158-0.477-0.42c-0.074-0.261,0.02-0.672,0.281-1.232
	c0.225-0.485,0.457-1.036,0.699-1.652c0.242-0.616,0.477-1.241,0.701-1.876l-2.633,3.864c-0.373,0.448-0.756,0.784-1.148,1.008
	c-0.391,0.224-0.709,0.327-0.951,0.308c-0.244-0.019-0.402-0.158-0.477-0.42c-0.074-0.261,0.02-0.672,0.281-1.232
	c0.223-0.522,0.465-1.12,0.727-1.792c0.262-0.672,0.504-1.325,0.729-1.96c0.225-0.634,0.42-1.185,0.588-1.652
	c0.168-0.466,0.27-0.756,0.309-0.868c0.223-0.373,0.541-0.69,0.951-0.952c0.41-0.261,0.82-0.42,1.232-0.476
	c0.41-0.056,0.793-0.019,1.148,0.112c0.354,0.131,0.588,0.364,0.699,0.7c0.336-0.298,0.736-0.522,1.205-0.672
	c0.465-0.149,0.895-0.196,1.287-0.14s0.699,0.224,0.924,0.504C445.394,14.123,445.431,14.506,445.28,14.99z"/>
<g>
	<defs>
		<path id="SVGID_2_" d="M33.879,6.708l6.25-3.333L43.004,0l4.667,1.417l-1.5,5.75l-6.167,13.5l-8.25,13.917V35.5l2.417,1
			l4.417-2.333l4.167-2.834l3.25-0.416l1.417,2.25l-2.417,4l-4.583,5.25l-5.5,1.166l-4-1.25l-4.417-2.5l-4.25,1.917L16.004,43
			l-3.417-3l-0.5-4.833l2.833-4.25l4.417-0.667l4.5,0.75l1.667-0.5l5.386-5.901l4.447-9.931L23.837,22c0,0,3,2.5-0.583,5.667
			l-3.25-0.584l-3.833-5.75l1.667-8.417l16.542-6.125"/>
	</defs>
	<clipPath id="SVGID_3_">
		<use xlink:href="#SVGID_2_"  overflow="visible"/>
	</clipPath>
	<path clip-path="url(#SVGID_3_)" d="M42.539,2.334c0.373-0.261,0.774-0.392,1.204-0.392c0.429,0,0.784,0.104,1.064,0.308
		c0.279,0.206,0.456,0.485,0.531,0.84c0.074,0.355-0.056,0.756-0.392,1.204c-1.494,2.128-2.875,4.545-4.145,7.252
		c-1.27,2.708-2.511,5.451-3.724,8.232c-1.214,2.782-2.445,5.488-3.696,8.12s-2.604,4.938-4.06,6.916
		c0.746,0.747,1.586,1.392,2.52,1.933s2.109,0.756,3.528,0.644c0.896-0.075,1.782-0.354,2.66-0.841
		c0.877-0.484,1.688-1.025,2.436-1.623s1.4-1.186,1.96-1.764c0.561-0.579,0.952-1.037,1.177-1.373
		c0.224-0.336,0.531-0.512,0.924-0.531c0.392-0.019,0.756,0.056,1.092,0.224s0.578,0.401,0.728,0.7s0.093,0.615-0.168,0.951
		c-0.373,0.486-0.934,1.158-1.68,2.017c-0.747,0.859-1.615,1.708-2.604,2.548c-0.99,0.84-2.072,1.568-3.248,2.184
		c-1.177,0.617-2.38,0.925-3.612,0.925c-1.867,0-3.407-0.308-4.62-0.925c-1.214-0.615-2.306-1.465-3.276-2.547
		c-1.083,1.082-2.239,1.923-3.472,2.52c-1.231,0.598-2.576,0.896-4.032,0.896c-1.493,0-2.632-0.252-3.416-0.757
		c-0.783-0.504-1.297-1.138-1.54-1.903s-0.233-1.577,0.028-2.437c0.261-0.858,0.709-1.624,1.344-2.296
		c0.561-0.597,1.27-1.092,2.128-1.484c0.858-0.392,1.773-0.644,2.744-0.756c0.971-0.111,1.96-0.074,2.969,0.112
		c1.008,0.187,1.96,0.56,2.855,1.12c0.746-1.082,1.456-2.287,2.128-3.612s1.362-2.734,2.072-4.228
		c-0.448,0.336-0.896,0.615-1.344,0.84c-1.531,0.821-2.94,1.241-4.229,1.26c-1.288,0.02-2.399-0.225-3.332-0.729
		c-0.934-0.504-1.643-1.213-2.128-2.127s-0.691-1.922-0.616-3.024c0.074-1.101,0.457-2.221,1.148-3.36
		c0.69-1.139,1.782-2.174,3.276-3.108c1.231-0.821,2.632-1.604,4.199-2.352c1.568-0.746,3.146-1.53,4.732-2.352
		c1.586-0.821,3.145-1.717,4.676-2.688c1.53-0.971,2.893-2.072,4.088-3.304l0.448-0.616c0.187-0.224,0.392-0.429,0.616-0.616
		l0.056-0.056V2.334z M19.915,37.446c1.643,0,3.211-0.783,4.704-2.352c-0.934-0.635-1.914-0.961-2.94-0.98
		c-1.026-0.018-1.857,0.234-2.491,0.756c-0.3,0.225-0.542,0.486-0.729,0.784c-0.188,0.3-0.262,0.579-0.224,0.84
		c0.036,0.262,0.187,0.485,0.448,0.673C18.944,37.354,19.355,37.446,19.915,37.446z M33.634,18.519
		c0.597-1.381,1.213-2.744,1.849-4.088c0.634-1.344,1.269-2.669,1.903-3.976c-1.119,0.784-2.249,1.494-3.388,2.128
		c-1.139,0.635-2.24,1.213-3.304,1.736c-1.064,0.523-2.054,1.018-2.968,1.484C26.811,16.27,26,16.746,25.291,17.23
		c-1.12,0.747-1.802,1.54-2.044,2.38c-0.243,0.84-0.168,1.559,0.224,2.156c0.393,0.598,1.045,0.98,1.961,1.148
		c0.914,0.168,1.987-0.028,3.22-0.588c0.858-0.41,1.764-0.96,2.716-1.652C32.319,19.984,33.075,19.266,33.634,18.519z"/>
</g>
<g>
	<defs>
		<path id="SVGID_1_" d="M27.337,24.208c0,2.209-1.623,4-3.625,4c-2.002,0-3.291-1.875-3.291-4.084c0-2.208,1.288-3.916,3.291-3.916
			C25.714,20.208,27.337,21.999,27.337,24.208z"/>
	</defs>
	<clipPath id="SVGID_4_">
		<use xlink:href="#SVGID_1_"  overflow="visible"/>
	</clipPath>
	<path clip-path="url(#SVGID_4_)" d="M19.859,24.124l-9.407-3.352c-0.811-0.324-1.582-0.644-2.314-0.959
		c-0.732-0.315-1.398-0.561-1.999-0.737c-0.6-0.178-1.104-0.288-1.514-0.333c-0.41-0.044-0.68,0.037-0.808,0.249
		c-0.166,0.214-0.179,0.497-0.039,0.848c0.14,0.352,0.368,0.712,0.683,1.079c0.315,0.369,0.67,0.74,1.064,1.119
		c0.394,0.376,0.783,0.716,1.167,1.018c0.768,0.601,1.375,1.068,1.82,1.4c0.446,0.33,1.021,0.705,1.729,1.121
		c0.37,0.186,0.588,0.479,0.659,0.878c0.068,0.398,0.039,0.781-0.088,1.147c-0.128,0.365-0.334,0.644-0.619,0.835
		s-0.613,0.174-0.988-0.05c-0.541-0.319-1.23-0.756-2.069-1.311c-0.84-0.555-1.814-1.266-2.924-2.135
		c-0.688-0.572-1.273-1.102-1.756-1.583c-0.484-0.483-0.892-0.975-1.224-1.476c-0.332-0.502-0.591-1.033-0.775-1.592
		c-0.186-0.56-0.321-1.183-0.407-1.871c-0.244-1.95,0.401-3.187,1.935-3.711c1.532-0.524,3.705-0.169,6.516,1.066
		c0.365,0.149,0.913,0.371,1.643,0.666s1.563,0.647,2.5,1.053c0.936,0.405,1.932,0.833,2.991,1.28
		c1.056,0.45,2.092,0.88,3.107,1.296c-0.077-0.302-0.136-0.623-0.179-0.969c-0.043-0.343-0.086-0.688-0.128-1.031
		c-0.1-0.804-0.003-1.34,0.291-1.61c0.293-0.27,0.66-0.336,1.102-0.197c0.44,0.137,0.863,0.435,1.266,0.888
		c0.403,0.453,0.661,0.984,0.776,1.592c0.038,0.304,0.088,0.707,0.15,1.204c0.062,0.497,0.15,1.049,0.264,1.656l2.204,1.002
		c0.574,0.278,0.969,0.673,1.188,1.188c0.217,0.517,0.28,1.015,0.186,1.492c-0.095,0.479-0.31,0.846-0.643,1.102
		c-0.334,0.256-0.764,0.281-1.29,0.076l-1.039-0.451"/>
</g>
</svg>
