<?xml version="1.0" encoding="utf-8"?>
<!-- Generator: Adobe Illustrator 15.0.0, SVG Export Plug-In  -->
<!DOCTYPE svg PUBLIC "-//W3C//DTD SVG 1.1//EN" "http://www.w3.org/Graphics/SVG/1.1/DTD/svg11.dtd" [
	<!ENTITY ns_flows "http://ns.adobe.com/Flows/1.0/">
]>
<svg version="1.1"
	 xmlns="http://www.w3.org/2000/svg" xmlns:xlink="http://www.w3.org/1999/xlink" xmlns:a="http://ns.adobe.com/AdobeSVGViewerExtensions/3.0/"
	 x="0px" y="0px" width="406px" height="67px" viewBox="-7.039 -12.058 406 67"
	 overflow="visible" enable-background="new -7.039 -12.058 406 67" xml:space="preserve">
<defs>
</defs>
<path d="M0.095,19.23c0.036-0.186,0.261-0.606,0.672-1.26c0.41-0.653,0.849-1.344,1.315-2.072s0.915-1.39,1.345-1.988
	c0.429-0.597,0.681-0.952,0.756-1.064c0.373-0.448,0.756-0.784,1.147-1.008c0.393-0.224,0.709-0.326,0.952-0.308
	c0.242,0.019,0.401,0.159,0.477,0.42c0.074,0.262-0.02,0.672-0.28,1.232c-0.224,0.523-0.468,1.092-0.729,1.708
	c-0.261,0.616-0.485,1.223-0.672,1.82c0.261-0.41,0.532-0.83,0.812-1.26c0.28-0.429,0.55-0.831,0.812-1.204
	c0.261-0.373,0.477-0.681,0.645-0.924c0.168-0.243,0.288-0.401,0.363-0.476c0.373-0.448,0.757-0.784,1.148-1.008
	c0.392-0.224,0.709-0.326,0.952-0.308c0.242,0.019,0.4,0.159,0.476,0.42c0.074,0.262-0.019,0.672-0.279,1.232
	c-0.225,0.523-0.468,1.12-0.729,1.792c-0.262,0.672-0.504,1.326-0.728,1.96c-0.225,0.635-0.42,1.186-0.588,1.652
	c-0.168,0.467-0.271,0.756-0.309,0.868c-0.224,0.411-0.541,0.738-0.952,0.98c-0.411,0.243-0.831,0.392-1.26,0.448
	c-0.43,0.056-0.821,0.028-1.176-0.084c-0.355-0.112-0.588-0.336-0.7-0.672c-0.336,0.299-0.737,0.523-1.204,0.672
	c-0.467,0.15-0.896,0.196-1.288,0.14c-0.392-0.056-0.691-0.224-0.896-0.504C-0.027,20.154-0.055,19.753,0.095,19.23z"/>
<path d="M19.75,30.822c0-1.008-0.317-1.866-0.952-2.576c-0.635-0.709-1.392-1.381-2.268-2.016c-0.878-0.635-1.783-1.297-2.717-1.988
	c-0.934-0.69-1.68-1.53-2.239-2.52c-0.561-0.989-0.841-2.184-0.841-3.584s0.485-3.145,1.456-5.236
	c1.009-2.165,2.333-4.19,3.977-6.076c1.643-1.885,3.472-3.416,5.488-4.592c2.016-1.176,4.134-1.895,6.355-2.156
	c2.221-0.261,4.396,0.131,6.524,1.176c1.156,0.56,1.838,1.41,2.044,2.548c0.204,1.139,0.084,2.417-0.364,3.836
	c-0.448,1.419-1.14,2.884-2.072,4.396c-0.934,1.512-1.96,2.931-3.08,4.256c-1.12,1.326-2.23,2.474-3.332,3.444
	c-1.102,0.971-2.044,1.605-2.827,1.904c-0.486,0.187-0.935,0.187-1.345,0c-0.411-0.187-0.728-0.429-0.952-0.728
	c-0.224-0.298-0.336-0.616-0.336-0.952s0.149-0.578,0.448-0.728c0.635-0.336,1.409-0.905,2.324-1.708
	c0.914-0.802,1.82-1.708,2.716-2.716c0.896-1.008,1.755-2.081,2.576-3.22c0.82-1.138,1.475-2.212,1.96-3.22
	c0.484-1.008,0.736-1.913,0.756-2.716c0.019-0.802-0.289-1.39-0.924-1.764c-0.934-0.522-1.932-0.747-2.996-0.672
	c-1.064,0.076-2.147,0.346-3.248,0.812c-1.102,0.467-2.184,1.111-3.248,1.932c-1.063,0.822-2.063,1.708-2.996,2.66
	c-0.934,0.952-1.764,1.941-2.492,2.968c-0.728,1.027-1.297,1.988-1.708,2.884c-0.672,1.419-0.896,2.623-0.672,3.612
	c0.225,0.99,0.681,1.876,1.372,2.66c0.69,0.784,1.521,1.521,2.492,2.212c0.971,0.691,1.885,1.419,2.744,2.184
	c0.858,0.766,1.54,1.634,2.044,2.604s0.662,2.147,0.476,3.528c-0.224,1.567-0.775,2.921-1.651,4.06
	c-0.878,1.14-1.942,2.025-3.192,2.66c-1.251,0.635-2.623,1.008-4.116,1.12c-1.493,0.111-2.968-0.094-4.424-0.616
	c-1.867-0.635-3.229-1.568-4.088-2.8c-0.859-1.232-1.344-2.501-1.456-3.809c-0.112-1.306,0.074-2.52,0.561-3.64
	c0.484-1.12,1.101-1.904,1.848-2.352c0.522-0.336,1.017-0.393,1.483-0.168c0.467,0.224,0.841,0.56,1.12,1.008
	c0.28,0.447,0.42,0.943,0.42,1.483c0,0.542-0.205,0.98-0.615,1.316c-0.411,0.336-0.672,0.737-0.784,1.204s-0.104,0.943,0.028,1.428
	c0.13,0.485,0.4,0.962,0.812,1.428c0.41,0.468,0.952,0.85,1.624,1.148c1.008,0.485,2.006,0.719,2.996,0.7
	c0.988-0.019,1.876-0.225,2.66-0.616c0.784-0.393,1.418-0.933,1.903-1.624C19.507,32.512,19.75,31.718,19.75,30.822z"/>
<path d="M38.342,30.038c-0.859,0.821-1.7,1.466-2.521,1.932c-0.821,0.468-1.605,0.822-2.352,1.064
	c-0.748,0.243-1.438,0.383-2.072,0.42c-0.636,0.038-1.176,0.038-1.624,0c0.074,0.598,0.326,1.092,0.756,1.484
	c0.429,0.392,0.971,0.644,1.624,0.756c0.652,0.111,1.4,0.084,2.24-0.084s1.708-0.532,2.604-1.092
	c0.448-0.261,0.905-0.579,1.372-0.952s0.924-0.765,1.372-1.176s0.868-0.812,1.26-1.204c0.393-0.393,0.7-0.757,0.925-1.093
	c0.224-0.336,0.531-0.513,0.924-0.531c0.392-0.019,0.746,0.047,1.063,0.195c0.317,0.15,0.551,0.384,0.7,0.7
	c0.148,0.317,0.112,0.645-0.112,0.98c-0.224,0.336-0.531,0.719-0.924,1.147c-0.392,0.43-0.821,0.888-1.288,1.372
	c-0.467,0.485-0.971,0.972-1.512,1.456c-0.542,0.485-1.092,0.934-1.652,1.344c-1.12,0.859-2.323,1.466-3.611,1.82
	c-1.288,0.355-2.521,0.494-3.696,0.42s-2.222-0.354-3.136-0.84c-0.916-0.484-1.56-1.157-1.933-2.016
	c-0.522-1.157-0.699-2.361-0.531-3.612s0.551-2.417,1.147-3.5c0.709-1.232,1.54-2.324,2.492-3.276s1.94-1.727,2.968-2.324
	c1.026-0.597,2.072-0.97,3.136-1.119c1.064-0.149,2.044-0.057,2.94,0.279c0.82,0.336,1.344,0.84,1.568,1.513
	c0.224,0.672,0.252,1.381,0.084,2.128s-0.468,1.465-0.896,2.155C39.228,29.077,38.79,29.628,38.342,30.038z M30.39,30.654
	c0.82,0.037,1.688-0.103,2.604-0.42c0.914-0.317,1.782-0.868,2.604-1.652c0.896-0.858,1.418-1.66,1.567-2.408
	c0.149-0.746-0.149-1.12-0.896-1.12c-0.374,0-0.804,0.141-1.288,0.421c-0.485,0.279-0.989,0.672-1.512,1.176
	c-0.523,0.504-1.046,1.092-1.568,1.764c-0.523,0.672-1.008,1.4-1.456,2.184L30.39,30.654z"/>
<path d="M55.198,22.59c-0.972,0.896-2.008,1.83-3.108,2.801c-1.102,0.971-2.138,1.867-3.108,2.688
	c-1.157,0.972-2.296,1.904-3.416,2.8c-0.299,0.71-0.457,1.438-0.476,2.185c-0.02,0.747,0.13,1.354,0.448,1.819
	c0.316,0.468,0.802,0.71,1.456,0.729c0.652,0.019,1.483-0.345,2.491-1.092c0.821-0.635,1.615-1.372,2.381-2.213
	c0.765-0.84,1.408-1.576,1.932-2.212c0.224-0.336,0.532-0.513,0.924-0.531c0.393-0.019,0.746,0.056,1.064,0.224
	c0.316,0.168,0.55,0.401,0.699,0.7s0.093,0.616-0.168,0.952c-0.187,0.224-0.43,0.551-0.728,0.979
	c-0.299,0.43-0.653,0.888-1.064,1.372c-0.411,0.485-0.867,0.989-1.372,1.512c-0.504,0.523-1.018,1.009-1.539,1.456
	c-1.009,0.896-2.008,1.521-2.996,1.876c-0.99,0.355-1.904,0.513-2.744,0.477c-0.84-0.038-1.597-0.225-2.269-0.561
	s-1.195-0.746-1.567-1.231c-0.448-0.561-0.737-1.194-0.868-1.904c-0.131-0.709-0.148-1.437-0.056-2.184s0.252-1.475,0.476-2.185
	c0.224-0.709,0.484-1.381,0.784-2.016c1.008-2.24,2.164-4.358,3.472-6.356c1.307-1.997,2.66-3.808,4.061-5.432
	c1.399-1.624,2.8-3.033,4.199-4.228c1.4-1.194,2.697-2.072,3.893-2.632c0.896-0.448,1.567-0.625,2.016-0.532
	c0.448,0.094,0.821,0.495,1.12,1.204c0.261,0.598,0.364,1.279,0.308,2.044c-0.056,0.766-0.308,1.624-0.756,2.576
	c-0.448,0.952-1.12,2.007-2.016,3.164C57.773,19.996,56.616,21.246,55.198,22.59z M57.885,13.686
	c-1.568,1.195-2.912,2.427-4.032,3.696c-1.12,1.27-2.054,2.428-2.8,3.472c-0.896,1.232-1.644,2.427-2.24,3.584
	c1.829-1.681,3.435-3.249,4.816-4.704c0.597-0.597,1.166-1.213,1.708-1.848c0.541-0.634,1.017-1.223,1.428-1.764
	c0.41-0.541,0.719-1.026,0.924-1.456C57.894,14.237,57.959,13.91,57.885,13.686z"/>
<path d="M67.069,22.59c-0.972,0.896-2.008,1.83-3.108,2.801c-1.102,0.971-2.138,1.867-3.108,2.688
	c-1.157,0.972-2.296,1.904-3.416,2.8c-0.299,0.71-0.457,1.438-0.476,2.185c-0.02,0.747,0.13,1.354,0.448,1.819
	c0.316,0.468,0.802,0.71,1.456,0.729c0.652,0.019,1.483-0.345,2.491-1.092c0.821-0.635,1.615-1.372,2.381-2.213
	c0.765-0.84,1.408-1.576,1.932-2.212c0.224-0.336,0.532-0.513,0.924-0.531c0.393-0.019,0.746,0.056,1.064,0.224
	c0.316,0.168,0.55,0.401,0.699,0.7s0.093,0.616-0.168,0.952c-0.187,0.224-0.43,0.551-0.728,0.979
	c-0.299,0.43-0.653,0.888-1.064,1.372c-0.411,0.485-0.867,0.989-1.372,1.512c-0.504,0.523-1.018,1.009-1.539,1.456
	c-1.009,0.896-2.008,1.521-2.996,1.876c-0.99,0.355-1.904,0.513-2.744,0.477c-0.84-0.038-1.597-0.225-2.269-0.561
	s-1.195-0.746-1.567-1.231c-0.448-0.561-0.737-1.194-0.868-1.904c-0.131-0.709-0.148-1.437-0.056-2.184s0.252-1.475,0.476-2.185
	c0.224-0.709,0.484-1.381,0.784-2.016c1.008-2.24,2.164-4.358,3.472-6.356c1.307-1.997,2.66-3.808,4.061-5.432
	c1.399-1.624,2.8-3.033,4.199-4.228c1.4-1.194,2.697-2.072,3.893-2.632c0.896-0.448,1.567-0.625,2.016-0.532
	c0.448,0.094,0.821,0.495,1.12,1.204c0.261,0.598,0.364,1.279,0.308,2.044c-0.056,0.766-0.308,1.624-0.756,2.576
	c-0.448,0.952-1.12,2.007-2.016,3.164C69.644,19.996,68.487,21.246,67.069,22.59z M69.756,13.686
	c-1.568,1.195-2.912,2.427-4.032,3.696c-1.12,1.27-2.054,2.428-2.8,3.472c-0.896,1.232-1.644,2.427-2.24,3.584
	c1.829-1.681,3.435-3.249,4.816-4.704c0.597-0.597,1.166-1.213,1.708-1.848c0.541-0.634,1.017-1.223,1.428-1.764
	c0.41-0.541,0.719-1.026,0.924-1.456C69.765,14.237,69.831,13.91,69.756,13.686z"/>
<path d="M120.883,5.958c0.746,1.27,1.082,2.688,1.008,4.256c-0.075,1.568-0.514,3.155-1.315,4.76
	c-0.804,1.605-1.924,3.164-3.36,4.676c-1.438,1.512-3.127,2.866-5.068,4.06c1.681,1.158,2.809,2.539,3.389,4.145
	c0.578,1.605,0.568,3.341-0.028,5.208c-0.374,1.157-0.962,2.165-1.764,3.023c-0.804,0.859-1.746,1.54-2.828,2.044
	c-1.083,0.504-2.26,0.794-3.528,0.868c-1.27,0.074-2.539-0.093-3.808-0.504c-1.084-0.336-2.054-0.812-2.912-1.428
	c-0.859-0.616-1.605-1.316-2.24-2.101c-1.157,1.27-2.399,2.269-3.724,2.996c-1.326,0.729-2.792,1.092-4.396,1.092
	c-1.12,0-2.156-0.177-3.107-0.531c-0.952-0.354-1.774-0.841-2.465-1.456c-0.69-0.616-1.213-1.345-1.567-2.185
	c-0.355-0.84-0.495-1.744-0.42-2.716c0.111-1.604,0.513-2.847,1.204-3.724c0.69-0.877,1.483-1.53,2.38-1.96
	c0.896-0.429,1.792-0.672,2.688-0.729c0.896-0.056,1.605-0.046,2.128,0.028c1.456,0.188,2.763,0.598,3.92,1.231
	c1.157,0.636,2.221,1.4,3.192,2.297c0.522-0.858,1.017-1.755,1.484-2.688c0.466-0.933,0.942-1.904,1.428-2.912
	c-1.531,0.896-3.024,1.494-4.48,1.792c-1.456,0.3-2.81,0.317-4.06,0.057c-1.251-0.262-2.361-0.793-3.332-1.597
	c-0.972-0.802-1.699-1.856-2.184-3.164c-0.523-1.306-0.626-2.771-0.309-4.396s0.998-3.248,2.044-4.872
	c1.045-1.624,2.437-3.164,4.172-4.62c1.736-1.456,3.78-2.688,6.133-3.696c2.276-0.97,4.563-1.596,6.859-1.876
	c2.296-0.28,4.433-0.27,6.412,0.028l0.112-0.112c0.372-0.484,0.802-0.792,1.288-0.924c0.484-0.13,0.914-0.13,1.288,0
	c0.372,0.131,0.644,0.383,0.812,0.756c0.168,0.374,0.103,0.803-0.196,1.288c1.083,0.299,2.081,0.756,2.996,1.372
	S120.36,5.1,120.883,5.958z M91.091,29.366c-1.195-0.148-2.184,0.094-2.968,0.728c-0.784,0.636-1.242,1.372-1.372,2.212
	c-0.132,0.841,0.103,1.624,0.7,2.353c0.597,0.728,1.66,1.092,3.191,1.092c1.045,0,2.034-0.316,2.968-0.952
	c0.934-0.634,1.829-1.492,2.688-2.576c-0.56-0.597-1.279-1.185-2.156-1.764C93.266,29.88,92.248,29.516,91.091,29.366z
	 M104.419,16.598c0.933-2.128,1.904-4.237,2.912-6.328c1.008-2.09,2.053-4.05,3.136-5.88c-1.568-0.074-3.36,0.075-5.376,0.448
	c-2.016,0.374-3.985,1.046-5.908,2.016c-1.923,0.971-3.649,2.25-5.18,3.836c-1.531,1.587-2.558,3.538-3.08,5.852
	c-0.336,1.531-0.336,2.735,0,3.612c0.336,0.877,0.887,1.484,1.652,1.82c0.765,0.336,1.68,0.439,2.743,0.308
	c1.064-0.131,2.156-0.457,3.276-0.98c1.12-0.522,2.192-1.185,3.22-1.988C102.841,18.512,103.709,17.606,104.419,16.598z
	 M104.083,26.118c-0.523,1.083-1.056,2.109-1.597,3.08s-1.11,1.886-1.708,2.744c0.522,0.598,1.12,1.204,1.792,1.819
	c0.673,0.616,1.475,1.074,2.408,1.372c1.53,0.486,2.893,0.43,4.088-0.168c1.194-0.597,1.997-1.586,2.408-2.968
	c0.225-0.672,0.309-1.353,0.252-2.044c-0.056-0.69-0.233-1.325-0.532-1.904c-0.299-0.578-0.737-1.063-1.315-1.456
	c-0.579-0.392-1.279-0.606-2.101-0.644C106.324,25.876,105.091,25.932,104.083,26.118z M113.883,5.286
	c-0.784,1.307-1.531,2.688-2.24,4.144s-1.399,2.94-2.072,4.452c-0.672,1.512-1.335,3.034-1.987,4.564
	c-0.654,1.531-1.316,3.043-1.988,4.536c1.232-0.225,2.482-0.729,3.752-1.512c1.493-0.858,2.828-1.895,4.004-3.108
	c1.176-1.213,2.118-2.473,2.828-3.78c0.709-1.306,1.148-2.594,1.316-3.864c0.168-1.269-0.028-2.371-0.588-3.304
	c-0.3-0.522-0.72-0.952-1.261-1.288S114.518,5.51,113.883,5.286z"/>
<path d="M130.459,30.038c-0.859,0.821-1.7,1.466-2.521,1.932c-0.821,0.468-1.605,0.822-2.352,1.064
	c-0.748,0.243-1.438,0.383-2.072,0.42c-0.636,0.038-1.176,0.038-1.624,0c0.074,0.598,0.326,1.092,0.756,1.484
	c0.429,0.392,0.971,0.644,1.624,0.756c0.652,0.111,1.4,0.084,2.24-0.084s1.708-0.532,2.604-1.092
	c0.448-0.261,0.905-0.579,1.372-0.952s0.924-0.765,1.372-1.176s0.868-0.812,1.26-1.204c0.393-0.393,0.7-0.757,0.925-1.093
	c0.224-0.336,0.531-0.513,0.924-0.531c0.392-0.019,0.746,0.047,1.063,0.195c0.317,0.15,0.551,0.384,0.7,0.7
	c0.148,0.317,0.112,0.645-0.112,0.98c-0.224,0.336-0.531,0.719-0.924,1.147c-0.392,0.43-0.821,0.888-1.288,1.372
	c-0.467,0.485-0.971,0.972-1.512,1.456c-0.542,0.485-1.092,0.934-1.652,1.344c-1.12,0.859-2.323,1.466-3.611,1.82
	c-1.288,0.355-2.521,0.494-3.696,0.42s-2.222-0.354-3.136-0.84c-0.916-0.484-1.56-1.157-1.933-2.016
	c-0.522-1.157-0.699-2.361-0.531-3.612s0.551-2.417,1.147-3.5c0.709-1.232,1.54-2.324,2.492-3.276s1.94-1.727,2.968-2.324
	c1.026-0.597,2.072-0.97,3.136-1.119c1.064-0.149,2.044-0.057,2.94,0.279c0.82,0.336,1.344,0.84,1.568,1.513
	c0.224,0.672,0.252,1.381,0.084,2.128s-0.468,1.465-0.896,2.155C131.345,29.077,130.907,29.628,130.459,30.038z M122.507,30.654
	c0.82,0.037,1.688-0.103,2.604-0.42c0.914-0.317,1.782-0.868,2.604-1.652c0.896-0.858,1.418-1.66,1.567-2.408
	c0.149-0.746-0.149-1.12-0.896-1.12c-0.374,0-0.804,0.141-1.288,0.421c-0.485,0.279-0.989,0.672-1.512,1.176
	c-0.523,0.504-1.046,1.092-1.568,1.764c-0.523,0.672-1.008,1.4-1.456,2.184L122.507,30.654z"/>
<path d="M149.444,18.726c-0.673,1.195-1.42,2.306-2.24,3.333c-0.822,1.026-1.68,1.969-2.576,2.827
	c-0.896,0.859-1.802,1.634-2.716,2.324c-0.915,0.691-1.765,1.279-2.548,1.765c-0.075,0.896-0.028,1.671,0.14,2.323
	c0.168,0.654,0.42,1.13,0.756,1.429c0.225,0.224,0.578,0.271,1.064,0.14c0.484-0.131,0.998-0.345,1.54-0.645
	c0.54-0.298,1.054-0.644,1.54-1.035c0.484-0.393,0.84-0.757,1.063-1.093c0.225-0.336,0.532-0.513,0.924-0.531
	c0.393-0.019,0.756,0.056,1.093,0.224c0.336,0.168,0.578,0.401,0.728,0.7c0.148,0.299,0.093,0.616-0.168,0.952
	c-0.336,0.447-0.831,0.989-1.484,1.624s-1.372,1.231-2.155,1.792c-0.784,0.56-1.597,1.026-2.437,1.399
	c-0.84,0.374-1.615,0.523-2.324,0.448c-0.783-0.074-1.419-0.364-1.903-0.868c-0.486-0.504-0.766-1.334-0.84-2.492
	c-0.636,1.232-1.252,2.428-1.849,3.584c-0.598,1.158-1.129,2.185-1.596,3.08c-0.467,0.896-0.849,1.652-1.148,2.269
	c-0.298,0.616-0.504,0.998-0.615,1.147c-0.299,0.522-0.729,0.84-1.288,0.952c-0.561,0.112-1.083,0.064-1.568-0.14
	c-0.484-0.206-0.849-0.552-1.092-1.036c-0.242-0.485-0.177-1.064,0.196-1.736c0.261-0.485,0.737-1.363,1.428-2.632
	c0.691-1.269,1.483-2.744,2.38-4.424c0.896-1.68,1.857-3.473,2.884-5.376c1.026-1.904,1.997-3.705,2.912-5.404
	c0.914-1.698,1.727-3.21,2.436-4.536c0.709-1.324,1.213-2.268,1.513-2.828c0.597-1.157,1.324-2.09,2.184-2.8
	c0.858-0.708,1.708-1.212,2.548-1.512c0.84-0.298,1.624-0.373,2.353-0.224c0.728,0.15,1.288,0.504,1.68,1.064
	s0.551,1.335,0.477,2.324C150.656,16.104,150.227,17.308,149.444,18.726z M144.627,18.222c-0.075,0.112-0.243,0.43-0.504,0.952
	c-0.262,0.523-0.552,1.083-0.868,1.68c-0.317,0.598-0.616,1.158-0.896,1.68c-0.28,0.523-0.439,0.84-0.477,0.952
	c0.635-0.597,1.316-1.335,2.044-2.212c0.729-0.876,1.465-1.95,2.212-3.22c0.522-0.896,0.831-1.577,0.924-2.044
	c0.093-0.466,0.047-0.7-0.14-0.7c-0.188,0-0.485,0.234-0.896,0.7C145.616,16.478,145.15,17.214,144.627,18.222z"/>
<path d="M162.714,30.094c0.224-0.336,0.532-0.513,0.924-0.531c0.393-0.019,0.746,0.047,1.064,0.195c0.316,0.15,0.54,0.384,0.672,0.7
	c0.13,0.317,0.084,0.645-0.141,0.98c-0.299,0.447-0.737,0.952-1.315,1.512c-0.579,0.56-1.26,1.056-2.044,1.483
	c-0.784,0.43-1.615,0.729-2.492,0.896c-0.878,0.168-1.728,0.084-2.548-0.252c-1.083,1.195-2.287,2.147-3.612,2.855
	c-1.325,0.71-2.642,1.064-3.948,1.064c-0.971,0-1.811-0.224-2.52-0.672c-0.71-0.448-1.242-1.045-1.596-1.792
	c-0.354-0.746-0.532-1.633-0.532-2.66c0-1.026,0.205-2.118,0.616-3.276c0.447-1.156,1.044-2.248,1.792-3.275
	c0.746-1.026,1.586-1.923,2.52-2.688c0.933-0.765,1.913-1.372,2.94-1.819c1.026-0.448,2.044-0.672,3.052-0.672
	s1.866,0.224,2.576,0.672c0.709,0.447,1.24,1.055,1.596,1.819c0.354,0.766,0.532,1.662,0.532,2.688c0,1.027-0.206,2.119-0.616,3.275
	c-0.112,0.3-0.224,0.58-0.336,0.841s-0.243,0.522-0.392,0.783c0.56,0.038,1.203-0.148,1.932-0.56
	C161.566,31.252,162.191,30.729,162.714,30.094z M156.106,30.374c0.597-1.307,0.747-2.417,0.448-3.332
	c-0.299-0.914-0.934-1.372-1.904-1.372c-0.485,0-0.999,0.122-1.54,0.364c-0.541,0.243-1.063,0.579-1.567,1.008
	c-0.504,0.43-0.98,0.924-1.428,1.484c-0.448,0.56-0.804,1.176-1.064,1.848c-0.56,1.308-0.691,2.418-0.392,3.332
	c0.298,0.915,0.933,1.372,1.903,1.372c0.485,0,0.999-0.121,1.54-0.364c0.541-0.242,1.064-0.578,1.568-1.008
	c0.504-0.429,0.961-0.933,1.372-1.512C155.453,31.615,155.807,31.01,156.106,30.374z"/>
<path d="M162.714,30.094c0.746-0.858,1.549-1.932,2.408-3.22c0.858-1.288,1.643-2.473,2.352-3.556
	c-0.448-0.561-0.793-1.241-1.036-2.044c-0.243-0.802-0.373-1.614-0.392-2.436c-0.02-0.82,0.084-1.596,0.308-2.324
	c0.225-0.728,0.616-1.316,1.177-1.764c0.82-0.634,1.604-0.96,2.352-0.98c0.746-0.018,1.381,0.178,1.904,0.588
	c0.522,0.412,0.904,0.98,1.147,1.708c0.242,0.728,0.289,1.503,0.141,2.324c-0.075,0.486-0.262,1.045-0.561,1.68
	c-0.299,0.635-0.653,1.325-1.063,2.072c0.447,0.111,0.952,0.111,1.512,0c0.597-0.112,1.101-0.084,1.512,0.084
	c0.41,0.168,0.729,0.401,0.952,0.699c0.224,0.3,0.336,0.626,0.336,0.98c0,0.355-0.112,0.644-0.336,0.868
	c-0.149,0.149-0.448,0.485-0.896,1.008c-0.448,0.523-0.962,1.147-1.54,1.876c-0.58,0.728-1.168,1.503-1.765,2.324
	c-0.598,0.821-1.111,1.605-1.54,2.352c-0.43,0.747-0.747,1.41-0.952,1.988c-0.205,0.579-0.177,0.962,0.084,1.147
	c0.411,0.374,0.989,0.411,1.736,0.112c0.746-0.298,1.53-0.756,2.353-1.372c0.82-0.616,1.624-1.307,2.407-2.072
	c0.784-0.765,1.419-1.446,1.904-2.044c0.261-0.298,0.588-0.456,0.98-0.476c0.392-0.019,0.746,0.047,1.063,0.196
	s0.551,0.373,0.7,0.672c0.148,0.299,0.093,0.616-0.168,0.952c-0.561,0.783-1.354,1.708-2.38,2.771
	c-1.027,1.064-2.166,2.017-3.416,2.856c-1.251,0.84-2.53,1.447-3.836,1.819c-1.308,0.373-2.521,0.261-3.641-0.336
	c-0.971-0.484-1.512-1.25-1.624-2.296c-0.111-1.045,0.075-2.174,0.561-3.388c0.484-1.213,1.176-2.437,2.072-3.668
	c0.896-1.232,1.866-2.276,2.911-3.136c0.299-0.261,0.457-0.438,0.477-0.532c0.019-0.093-0.364-0.289-1.148-0.588
	c-0.934,1.456-1.839,2.8-2.716,4.032c-0.878,1.231-1.466,2.053-1.764,2.464c-0.3,0.373-0.645,0.569-1.036,0.588
	s-0.737-0.065-1.036-0.252s-0.513-0.438-0.644-0.756S162.491,30.394,162.714,30.094z M169.882,16.598
	c-0.299,0-0.532,0.122-0.7,0.364c-0.168,0.244-0.279,0.56-0.336,0.952c-0.056,0.392-0.047,0.812,0.028,1.26
	c0.074,0.448,0.224,0.877,0.448,1.288c0.224-0.448,0.429-0.896,0.615-1.344c0.187-0.448,0.317-0.858,0.393-1.232
	c0.074-0.373,0.074-0.681,0-0.924C170.255,16.72,170.106,16.598,169.882,16.598z"/>
<path d="M188.699,30.038c-0.859,0.821-1.7,1.466-2.521,1.932c-0.821,0.468-1.605,0.822-2.352,1.064
	c-0.748,0.243-1.438,0.383-2.072,0.42c-0.636,0.038-1.176,0.038-1.624,0c0.074,0.598,0.326,1.092,0.756,1.484
	c0.429,0.392,0.971,0.644,1.624,0.756c0.652,0.111,1.4,0.084,2.24-0.084s1.708-0.532,2.604-1.092
	c0.448-0.261,0.905-0.579,1.372-0.952s0.924-0.765,1.372-1.176s0.868-0.812,1.26-1.204c0.393-0.393,0.7-0.757,0.925-1.093
	c0.224-0.336,0.531-0.513,0.924-0.531c0.392-0.019,0.746,0.047,1.063,0.195c0.317,0.15,0.551,0.384,0.7,0.7
	c0.148,0.317,0.112,0.645-0.112,0.98c-0.224,0.336-0.531,0.719-0.924,1.147c-0.392,0.43-0.821,0.888-1.288,1.372
	c-0.467,0.485-0.971,0.972-1.512,1.456c-0.542,0.485-1.092,0.934-1.652,1.344c-1.12,0.859-2.323,1.466-3.611,1.82
	c-1.288,0.355-2.521,0.494-3.696,0.42s-2.222-0.354-3.136-0.84c-0.916-0.484-1.56-1.157-1.933-2.016
	c-0.522-1.157-0.699-2.361-0.531-3.612s0.551-2.417,1.147-3.5c0.709-1.232,1.54-2.324,2.492-3.276s1.94-1.727,2.968-2.324
	c1.026-0.597,2.072-0.97,3.136-1.119c1.064-0.149,2.044-0.057,2.94,0.279c0.82,0.336,1.344,0.84,1.568,1.513
	c0.224,0.672,0.252,1.381,0.084,2.128s-0.468,1.465-0.896,2.155C189.584,29.077,189.146,29.628,188.699,30.038z M180.747,30.654
	c0.82,0.037,1.688-0.103,2.604-0.42c0.914-0.317,1.782-0.868,2.604-1.652c0.896-0.858,1.418-1.66,1.567-2.408
	c0.149-0.746-0.149-1.12-0.896-1.12c-0.374,0-0.804,0.141-1.288,0.421c-0.485,0.279-0.989,0.672-1.512,1.176
	c-0.523,0.504-1.046,1.092-1.568,1.764c-0.523,0.672-1.008,1.4-1.456,2.184L180.747,30.654z"/>
<path d="M239.153,1.254c0.373-0.484,0.82-0.792,1.344-0.924c0.523-0.13,0.98-0.121,1.373,0.028c0.391,0.15,0.652,0.42,0.783,0.812
	c0.131,0.392,0.01,0.868-0.363,1.428c-1.568,2.203-3.006,4.713-4.312,7.532c-1.307,2.819-2.596,5.675-3.863,8.568
	c-1.27,2.894-2.559,5.684-3.865,8.372c-1.307,2.688-2.744,5.003-4.311,6.943c0.41,0.448,0.82,0.822,1.23,1.12
	c0.41,0.3,0.859,0.486,1.344,0.561c0.748,0.037,1.541-0.205,2.381-0.729c0.84-0.522,1.576-1.101,2.213-1.735
	c0.672-0.672,1.193-1.204,1.566-1.597c0.373-0.392,0.803-0.904,1.289-1.54c0.223-0.336,0.531-0.513,0.924-0.531
	s0.756,0.056,1.092,0.224s0.578,0.401,0.729,0.7c0.148,0.299,0.092,0.616-0.168,0.952c-0.375,0.447-0.879,1.055-1.512,1.819
	c-0.637,0.766-1.438,1.634-2.408,2.604c-0.637,0.598-1.225,1.102-1.764,1.512c-0.543,0.411-1.074,0.747-1.598,1.008
	c-0.523,0.262-1.055,0.448-1.596,0.561c-0.541,0.111-1.148,0.168-1.82,0.168c-0.859,0-1.615-0.261-2.268-0.784
	c-0.654-0.522-1.279-1.176-1.875-1.96c-1.008,0.859-2.064,1.521-3.164,1.988c-1.102,0.467-2.287,0.699-3.557,0.699
	c-1.119,0-2.166-0.177-3.137-0.531s-1.801-0.841-2.492-1.456c-0.689-0.616-1.213-1.345-1.566-2.185
	c-0.355-0.84-0.496-1.744-0.42-2.716c0.111-1.492,0.504-2.679,1.176-3.556s1.455-1.521,2.352-1.933
	c0.896-0.41,1.82-0.624,2.771-0.644c0.953-0.019,1.764,0.065,2.436,0.252c1.381,0.411,2.482,1.063,3.305,1.96
	c0.82,0.896,1.605,1.867,2.352,2.912c0.896-1.307,1.773-2.8,2.633-4.48c0.857-1.68,1.717-3.472,2.576-5.375
	c-1.008,0.748-2.119,1.344-3.332,1.792c-1.215,0.448-2.529,0.672-3.949,0.672c-0.857,0-1.717-0.214-2.574-0.644
	c-0.859-0.429-1.578-1.055-2.156-1.876c-0.58-0.821-0.924-1.848-1.037-3.08c-0.111-1.232,0.158-2.66,0.812-4.284
	c0.652-1.624,1.764-3.434,3.332-5.432c1.568-1.997,3.77-4.172,6.607-6.524c0.598-0.485,1.186-0.719,1.764-0.7
	c0.58,0.019,1.064,0.168,1.457,0.448c0.393,0.28,0.625,0.635,0.699,1.064c0.074,0.43-0.094,0.793-0.504,1.092
	c-2.24,1.643-4.135,3.37-5.684,5.18c-1.549,1.811-2.68,3.5-3.389,5.068s-0.971,2.884-0.783,3.948
	c0.186,1.063,0.896,1.671,2.129,1.82c1.305,0.149,2.604-0.205,3.891-1.064c1.289-0.858,2.492-1.904,3.613-3.136
	c1.119-1.232,2.1-2.5,2.939-3.808c0.84-1.306,1.484-2.333,1.932-3.08c0.672-1.381,1.371-2.707,2.1-3.976
	C237.558,3.513,238.331,2.337,239.153,1.254z M217.257,35.75c0.822,0,1.598-0.187,2.324-0.56c0.729-0.373,1.447-0.896,2.156-1.568
	c-0.336-0.448-0.654-0.904-0.951-1.372c-0.301-0.466-0.627-0.904-0.98-1.316c-0.355-0.41-0.748-0.773-1.176-1.092
	c-0.43-0.316-0.924-0.531-1.484-0.644c-0.672-0.148-1.27-0.093-1.791,0.168c-0.523,0.262-0.943,0.635-1.262,1.12
	c-0.316,0.485-0.514,1.027-0.588,1.624c-0.074,0.598,0,1.167,0.225,1.708s0.625,0.999,1.203,1.372
	C215.513,35.563,216.286,35.75,217.257,35.75z"/>
<path d="M253.208,30.094c0.225-0.336,0.533-0.513,0.924-0.531c0.393-0.019,0.746,0.047,1.064,0.195
	c0.316,0.15,0.541,0.384,0.672,0.7c0.131,0.317,0.084,0.645-0.141,0.98c-0.299,0.447-0.736,0.952-1.314,1.512
	c-0.58,0.56-1.26,1.056-2.045,1.483c-0.783,0.43-1.615,0.729-2.492,0.896s-1.727,0.084-2.547-0.252
	c-1.084,1.195-2.287,2.147-3.613,2.855c-1.324,0.71-2.641,1.064-3.947,1.064c-0.971,0-1.811-0.224-2.52-0.672
	c-0.711-0.448-1.242-1.045-1.596-1.792c-0.355-0.746-0.533-1.633-0.533-2.66c0-1.026,0.205-2.118,0.617-3.276
	c0.447-1.156,1.043-2.248,1.791-3.275c0.746-1.026,1.586-1.923,2.52-2.688c0.934-0.765,1.914-1.372,2.941-1.819
	c1.025-0.448,2.043-0.672,3.051-0.672s1.867,0.224,2.576,0.672c0.709,0.447,1.24,1.055,1.596,1.819
	c0.355,0.766,0.533,1.662,0.533,2.688c0,1.027-0.207,2.119-0.617,3.275c-0.111,0.3-0.223,0.58-0.336,0.841
	c-0.111,0.261-0.242,0.522-0.391,0.783c0.559,0.038,1.203-0.148,1.932-0.56C252.06,31.252,252.685,30.729,253.208,30.094z
	 M246.601,30.374c0.596-1.307,0.746-2.417,0.447-3.332c-0.299-0.914-0.934-1.372-1.904-1.372c-0.484,0-0.998,0.122-1.539,0.364
	c-0.541,0.243-1.064,0.579-1.568,1.008c-0.504,0.43-0.98,0.924-1.428,1.484c-0.447,0.56-0.803,1.176-1.064,1.848
	c-0.559,1.308-0.691,2.418-0.391,3.332c0.297,0.915,0.932,1.372,1.902,1.372c0.486,0,1-0.121,1.541-0.364
	c0.541-0.242,1.064-0.578,1.568-1.008c0.504-0.429,0.961-0.933,1.371-1.512S246.302,31.01,246.601,30.374z"/>
<path d="M268.944,30.094c0.225-0.336,0.531-0.513,0.924-0.531s0.756,0.056,1.092,0.224s0.578,0.401,0.729,0.7
	c0.148,0.299,0.092,0.616-0.168,0.952c-0.188,0.224-0.439,0.551-0.756,0.979c-0.318,0.43-0.682,0.888-1.092,1.372
	c-0.412,0.485-0.859,0.989-1.344,1.512c-0.486,0.523-0.99,1.009-1.512,1.456c-1.047,0.896-1.961,1.513-2.744,1.849
	c-0.785,0.336-1.467,0.484-2.045,0.447s-1.074-0.224-1.484-0.56s-0.766-0.729-1.062-1.176c-0.301,0.188-0.607,0.383-0.926,0.588
	c-0.316,0.205-0.662,0.401-1.035,0.588c-0.373,0.188-0.812,0.336-1.316,0.448c-0.504,0.111-1.092,0.168-1.764,0.168
	c-1.904,0-3.014-0.774-3.332-2.324c-0.316-1.549,0.289-3.612,1.82-6.188c0.336-0.56,0.689-1.185,1.064-1.876
	c0.373-0.69,0.756-1.372,1.146-2.044c0.393-0.672,0.766-1.306,1.121-1.903c0.354-0.597,0.662-1.101,0.924-1.513
	c0.336-0.521,0.756-0.858,1.26-1.008c0.504-0.148,0.98-0.148,1.428,0c0.449,0.149,0.775,0.402,0.98,0.756
	c0.205,0.355,0.176,0.775-0.084,1.261c-0.412,0.709-0.877,1.54-1.4,2.491c-0.523,0.952-0.99,1.802-1.4,2.549
	s-0.811,1.455-1.203,2.128c-0.393,0.672-0.709,1.288-0.953,1.848c-0.242,0.56-0.41,1.036-0.504,1.428
	c-0.092,0.393-0.047,0.663,0.141,0.812c0.41,0.336,1.111,0.14,2.1-0.588c0.99-0.729,2.045-1.82,3.164-3.276
	c0.41-0.522,0.877-1.25,1.4-2.184s1.027-1.849,1.512-2.744c0.561-1.045,1.139-2.146,1.736-3.305
	c0.225-0.447,0.588-0.773,1.092-0.979c0.504-0.205,0.988-0.28,1.457-0.224c0.465,0.056,0.83,0.233,1.092,0.531
	c0.26,0.3,0.242,0.71-0.057,1.232c-0.299,0.598-0.682,1.335-1.148,2.212c-0.467,0.878-0.943,1.773-1.428,2.688
	s-0.943,1.773-1.371,2.575c-0.43,0.804-0.756,1.392-0.98,1.765c-0.225,0.411-0.309,0.699-0.252,0.867s0.205,0.244,0.447,0.225
	c0.242-0.019,0.541-0.121,0.896-0.309c0.354-0.186,0.699-0.447,1.035-0.783c0.635-0.672,1.139-1.204,1.514-1.597
	C268.028,31.242,268.458,30.729,268.944,30.094z"/>
<path d="M300.864,30.822c0-1.008-0.318-1.866-0.953-2.576c-0.635-0.709-1.391-1.381-2.268-2.016s-1.783-1.297-2.717-1.988
	c-0.934-0.69-1.68-1.53-2.238-2.52c-0.561-0.989-0.842-2.184-0.842-3.584s0.486-3.145,1.457-5.236
	c1.008-2.165,2.332-4.19,3.977-6.076c1.643-1.885,3.471-3.416,5.488-4.592c2.016-1.176,4.133-1.895,6.355-2.156
	c2.221-0.261,4.396,0.131,6.523,1.176c1.156,0.56,1.838,1.41,2.045,2.548c0.203,1.139,0.084,2.417-0.365,3.836
	c-0.447,1.419-1.139,2.884-2.072,4.396c-0.934,1.512-1.959,2.931-3.08,4.256c-1.119,1.326-2.23,2.474-3.332,3.444
	c-1.102,0.971-2.043,1.605-2.826,1.904c-0.486,0.187-0.936,0.187-1.346,0c-0.41-0.187-0.727-0.429-0.951-0.728
	c-0.225-0.298-0.336-0.616-0.336-0.952s0.148-0.578,0.447-0.728c0.635-0.336,1.41-0.905,2.324-1.708
	c0.914-0.802,1.82-1.708,2.717-2.716c0.896-1.008,1.754-2.081,2.576-3.22c0.82-1.138,1.475-2.212,1.959-3.22
	c0.484-1.008,0.736-1.913,0.756-2.716c0.02-0.802-0.289-1.39-0.924-1.764c-0.934-0.522-1.932-0.747-2.996-0.672
	c-1.064,0.076-2.146,0.346-3.248,0.812s-2.184,1.111-3.248,1.932c-1.062,0.822-2.062,1.708-2.996,2.66s-1.764,1.941-2.492,2.968
	c-0.727,1.027-1.297,1.988-1.707,2.884c-0.672,1.419-0.896,2.623-0.672,3.612c0.225,0.99,0.68,1.876,1.371,2.66
	s1.521,1.521,2.492,2.212c0.971,0.691,1.885,1.419,2.744,2.184c0.859,0.766,1.541,1.634,2.045,2.604s0.662,2.147,0.475,3.528
	c-0.223,1.567-0.775,2.921-1.65,4.06c-0.879,1.14-1.943,2.025-3.193,2.66s-2.623,1.008-4.115,1.12
	c-1.494,0.111-2.969-0.094-4.424-0.616c-1.867-0.635-3.23-1.568-4.088-2.8c-0.859-1.232-1.344-2.501-1.457-3.809
	c-0.111-1.306,0.074-2.52,0.561-3.64c0.484-1.12,1.102-1.904,1.848-2.352c0.523-0.336,1.018-0.393,1.484-0.168
	c0.467,0.224,0.84,0.56,1.119,1.008c0.281,0.447,0.42,0.943,0.42,1.483c0,0.542-0.205,0.98-0.615,1.316s-0.672,0.737-0.783,1.204
	c-0.113,0.467-0.104,0.943,0.027,1.428c0.131,0.485,0.4,0.962,0.812,1.428c0.41,0.468,0.951,0.85,1.623,1.148
	c1.008,0.485,2.006,0.719,2.996,0.7c0.988-0.019,1.877-0.225,2.66-0.616c0.785-0.393,1.418-0.933,1.904-1.624
	C300.62,32.512,300.864,31.718,300.864,30.822z"/>
<path d="M320.854,22.702c0.672,0.448,1.166,1.063,1.484,1.848c0.316,0.784,0.457,1.681,0.42,2.688s-0.242,2.072-0.615,3.191
	c-0.375,1.12-0.916,2.222-1.625,3.305c-0.188,0.299-0.383,0.579-0.588,0.84c-0.205,0.262-0.4,0.504-0.588,0.728
	c0.785-0.372,1.625-0.896,2.52-1.567c0.822-0.635,1.457-1.241,1.904-1.82c0.449-0.578,0.934-1.185,1.457-1.82
	c0.223-0.336,0.531-0.513,0.924-0.531s0.746,0.056,1.064,0.224c0.316,0.168,0.549,0.401,0.699,0.7
	c0.148,0.299,0.092,0.616-0.168,0.952c-0.336,0.485-0.877,1.129-1.625,1.932c-0.746,0.804-1.623,1.689-2.631,2.66
	c-0.785,0.71-1.652,1.288-2.604,1.735c-0.953,0.448-1.914,0.784-2.885,1.009c-0.971,0.224-1.904,0.354-2.801,0.392
	c-0.895,0.037-1.68,0.019-2.352-0.056c-0.934,0-1.699-0.205-2.295-0.616c-0.523-0.299-0.973-0.803-1.344-1.512
	c-0.561,1.231-1.094,2.416-1.598,3.556c-0.504,1.139-0.951,2.156-1.344,3.052c-0.391,0.896-0.727,1.652-1.008,2.269
	c-0.279,0.616-0.457,0.998-0.531,1.147c-0.262,0.522-0.662,0.868-1.205,1.036c-0.541,0.168-1.062,0.168-1.566,0
	c-0.506-0.168-0.896-0.485-1.178-0.952c-0.279-0.467-0.252-1.055,0.084-1.764c0.225-0.523,0.654-1.447,1.289-2.772
	s1.354-2.847,2.156-4.563s1.652-3.547,2.547-5.488c0.896-1.94,1.746-3.789,2.549-5.544c0.803-1.754,1.521-3.312,2.156-4.676
	c0.635-1.362,1.082-2.342,1.344-2.94c0.148-0.336,0.467-0.56,0.951-0.672c0.486-0.112,0.961-0.112,1.428,0
	c0.467,0.112,0.842,0.318,1.121,0.616c0.279,0.299,0.326,0.672,0.141,1.12l-1.178,2.688c1.01-0.56,1.988-0.886,2.941-0.979
	C319.259,22.021,320.108,22.218,320.854,22.702z M317.774,31.998c0.486-0.709,0.877-1.428,1.176-2.156
	c0.299-0.728,0.506-1.399,0.617-2.016s0.131-1.148,0.057-1.596c-0.076-0.448-0.244-0.766-0.506-0.952
	c-0.299-0.187-0.682-0.242-1.146-0.168c-0.469,0.075-0.973,0.271-1.512,0.588c-0.543,0.317-1.111,0.747-1.709,1.288
	s-1.139,1.167-1.623,1.876c-0.486,0.747-0.896,1.475-1.232,2.184c-0.336,0.71-0.57,1.363-0.701,1.96
	c-0.131,0.598-0.178,1.111-0.139,1.54c0.037,0.43,0.205,0.738,0.504,0.924c0.373,0.262,0.82,0.364,1.344,0.309
	c0.521-0.057,1.055-0.242,1.596-0.561c0.541-0.316,1.092-0.756,1.652-1.315C316.712,33.342,317.251,32.708,317.774,31.998z"/>
<path d="M336.704,30.038c-0.859,0.821-1.701,1.466-2.521,1.932c-0.82,0.468-1.605,0.822-2.352,1.064
	c-0.748,0.243-1.438,0.383-2.072,0.42c-0.635,0.038-1.176,0.038-1.623,0c0.074,0.598,0.326,1.092,0.756,1.484
	c0.428,0.392,0.971,0.644,1.623,0.756c0.652,0.111,1.4,0.084,2.24-0.084s1.709-0.532,2.604-1.092
	c0.449-0.261,0.906-0.579,1.373-0.952s0.924-0.765,1.371-1.176c0.449-0.411,0.869-0.812,1.26-1.204
	c0.393-0.393,0.701-0.757,0.926-1.093c0.223-0.336,0.531-0.513,0.924-0.531c0.391-0.019,0.746,0.047,1.062,0.195
	c0.318,0.15,0.551,0.384,0.701,0.7c0.148,0.317,0.111,0.645-0.113,0.98c-0.223,0.336-0.531,0.719-0.924,1.147
	c-0.391,0.43-0.82,0.888-1.287,1.372c-0.467,0.485-0.971,0.972-1.512,1.456c-0.543,0.485-1.092,0.934-1.652,1.344
	c-1.121,0.859-2.324,1.466-3.611,1.82c-1.289,0.355-2.521,0.494-3.697,0.42s-2.221-0.354-3.135-0.84
	c-0.916-0.484-1.561-1.157-1.934-2.016c-0.521-1.157-0.699-2.361-0.531-3.612s0.551-2.417,1.148-3.5
	c0.709-1.232,1.539-2.324,2.492-3.276c0.951-0.952,1.939-1.727,2.967-2.324c1.027-0.597,2.072-0.97,3.137-1.119
	s2.043-0.057,2.939,0.279c0.82,0.336,1.344,0.84,1.568,1.513c0.225,0.672,0.252,1.381,0.084,2.128s-0.467,1.465-0.896,2.155
	C337.589,29.077,337.151,29.628,336.704,30.038z M328.751,30.654c0.82,0.037,1.689-0.103,2.604-0.42s1.783-0.868,2.605-1.652
	c0.895-0.858,1.418-1.66,1.566-2.408c0.15-0.746-0.148-1.12-0.895-1.12c-0.375,0-0.805,0.141-1.289,0.421
	c-0.484,0.279-0.988,0.672-1.512,1.176s-1.045,1.092-1.568,1.764s-1.008,1.4-1.455,2.184L328.751,30.654z"/>
<path d="M358.038,30.094c0.262-0.336,0.588-0.513,0.98-0.531s0.756,0.056,1.092,0.224s0.578,0.401,0.729,0.7
	c0.148,0.299,0.092,0.616-0.168,0.952c-0.188,0.224-0.439,0.551-0.756,0.979c-0.318,0.43-0.691,0.888-1.121,1.372
	c-0.43,0.485-0.887,0.989-1.371,1.512c-0.486,0.523-0.99,1.009-1.512,1.456c-1.008,0.896-1.904,1.513-2.689,1.849
	c-0.783,0.336-1.475,0.484-2.07,0.447c-0.598-0.037-1.102-0.224-1.514-0.56c-0.41-0.336-0.766-0.729-1.062-1.176
	c-0.598,0.373-1.242,0.766-1.932,1.176c-0.691,0.411-1.729,0.616-3.109,0.616c-0.971,0-1.811-0.225-2.52-0.672
	c-0.709-0.448-1.232-1.083-1.568-1.904s-0.447-1.801-0.336-2.94c0.111-1.138,0.541-2.38,1.289-3.724
	c0.707-1.344,1.557-2.511,2.547-3.5c0.988-0.989,1.988-1.801,2.996-2.437c1.008-0.634,1.988-1.101,2.939-1.399
	c0.953-0.299,1.783-0.448,2.492-0.448c0.484,0,0.906,0.065,1.26,0.196c0.355,0.131,0.682,0.289,0.98,0.476
	c0.299,0.188,0.578,0.411,0.84,0.672c0.225-0.447,0.598-0.773,1.121-0.979c0.521-0.205,1.016-0.28,1.484-0.224
	c0.465,0.056,0.82,0.233,1.062,0.531c0.242,0.3,0.215,0.71-0.084,1.232c-0.299,0.598-0.672,1.335-1.119,2.212
	c-0.449,0.878-0.916,1.773-1.4,2.688c-0.486,0.915-0.943,1.773-1.371,2.575c-0.43,0.804-0.775,1.392-1.037,1.765
	c-0.225,0.411-0.309,0.699-0.252,0.867s0.215,0.244,0.477,0.225c0.26-0.019,0.561-0.121,0.896-0.309
	c0.336-0.186,0.672-0.447,1.008-0.783c0.633-0.672,1.146-1.204,1.539-1.597C357.171,31.242,357.591,30.729,358.038,30.094z
	 M349.806,31.662c0.561-0.709,1.018-1.428,1.373-2.156c0.354-0.728,0.615-1.399,0.783-2.016s0.234-1.157,0.197-1.624
	c-0.039-0.467-0.207-0.812-0.504-1.036c-0.301-0.224-0.682-0.289-1.148-0.196c-0.467,0.094-0.971,0.309-1.512,0.645
	c-0.543,0.336-1.102,0.784-1.68,1.344c-0.58,0.56-1.148,1.195-1.709,1.904c-0.561,0.747-1.027,1.475-1.4,2.184
	c-0.373,0.71-0.643,1.372-0.811,1.988s-0.225,1.157-0.168,1.624c0.055,0.467,0.232,0.812,0.531,1.036
	c0.26,0.224,0.625,0.299,1.092,0.224c0.467-0.074,0.98-0.28,1.539-0.616c0.561-0.336,1.129-0.784,1.709-1.344
	C348.677,33.062,349.247,32.409,349.806,31.662z"/>
<path d="M367.054,10.494c0.148-0.373,0.467-0.606,0.951-0.7c0.486-0.093,0.961-0.084,1.43,0.028c0.465,0.112,0.84,0.317,1.119,0.616
	c0.279,0.299,0.326,0.672,0.141,1.12l-4.873,11.088l0.393-0.28c1.344-0.858,2.631-1.26,3.863-1.204s2.213,0.411,2.941,1.064
	c0.727,0.653,1.092,1.539,1.092,2.659s-0.561,2.315-1.682,3.584c-0.521,0.598-1.139,1.158-1.848,1.681
	c-0.709,0.523-1.447,0.999-2.211,1.428c-0.766,0.43-1.541,0.794-2.324,1.092c-0.785,0.3-1.494,0.504-2.129,0.616
	c0.037,0.374,0.131,0.728,0.281,1.063c0.111,0.3,0.289,0.58,0.531,0.841c0.242,0.262,0.588,0.447,1.035,0.56
	c0.373,0.112,0.99,0.084,1.85-0.084c0.857-0.168,1.996-0.812,3.416-1.932c0.857-0.635,1.539-1.241,2.043-1.82
	c0.504-0.578,0.998-1.185,1.484-1.82c0.225-0.336,0.531-0.513,0.924-0.531s0.756,0.056,1.092,0.224s0.578,0.401,0.729,0.7
	c0.148,0.299,0.092,0.616-0.168,0.952c-0.412,0.522-0.775,0.961-1.092,1.315c-0.318,0.355-0.635,0.7-0.953,1.036
	c-0.316,0.336-0.652,0.672-1.008,1.008s-0.775,0.747-1.26,1.232c-0.896,0.859-1.84,1.54-2.828,2.044s-1.959,0.84-2.912,1.008
	c-0.951,0.168-1.857,0.177-2.715,0.028c-0.859-0.149-1.605-0.467-2.24-0.952c-0.412-0.299-0.775-0.729-1.092-1.288
	c-0.318-0.56-0.588-1.12-0.812-1.68l-1.344,2.968c-0.262,0.523-0.664,0.858-1.205,1.008c-0.539,0.148-1.062,0.14-1.566-0.028
	s-0.887-0.484-1.148-0.951s-0.225-1.055,0.111-1.765c0.225-0.522,0.645-1.437,1.26-2.744c0.617-1.306,1.326-2.818,2.129-4.535
	s1.652-3.547,2.547-5.488c0.896-1.941,1.746-3.789,2.549-5.544s1.521-3.313,2.156-4.676
	C366.345,12.072,366.792,11.092,367.054,10.494z M366.661,25.334c-0.746,0.598-1.492,1.372-2.24,2.324
	c-0.746,0.952-1.438,1.913-2.072,2.884c1.195-0.224,2.361-0.662,3.5-1.315s2.082-1.316,2.828-1.988
	c0.672-0.635,1.074-1.185,1.205-1.652c0.131-0.466,0.074-0.802-0.168-1.008c-0.244-0.205-0.645-0.261-1.205-0.168
	C367.95,24.504,367.333,24.812,366.661,25.334z"/>
<path d="M379.935,36.702c-0.188,0.299-0.43,0.598-0.729,0.896c-0.299,0.3-0.541,0.523-0.729,0.673
	c-0.484,0.299-0.988,0.504-1.512,0.615c-0.523,0.112-0.961,0.131-1.316,0.057s-0.598-0.261-0.727-0.561
	c-0.133-0.298-0.029-0.708,0.307-1.231c0.113-0.225,0.281-0.513,0.504-0.868c0.225-0.354,0.43-0.681,0.617-0.98
	c0.299-0.447,0.709-0.718,1.232-0.812c0.521-0.093,1.008-0.064,1.455,0.084c0.447,0.149,0.783,0.411,1.008,0.784
	S380.233,36.18,379.935,36.702z"/>
<path d="M395.501,13.294c-0.037,0.188-0.262,0.607-0.672,1.26c-0.412,0.653-0.85,1.344-1.316,2.072s-0.916,1.392-1.344,1.988
	c-0.43,0.598-0.682,0.952-0.756,1.064c-0.373,0.448-0.756,0.784-1.148,1.008s-0.709,0.327-0.951,0.308
	c-0.244-0.019-0.402-0.158-0.477-0.42c-0.076-0.261,0.018-0.672,0.279-1.232c0.225-0.485,0.457-1.036,0.701-1.652
	c0.242-0.616,0.475-1.241,0.699-1.876l-2.631,3.864c-0.375,0.448-0.758,0.784-1.148,1.008c-0.393,0.224-0.711,0.327-0.953,0.308
	c-0.242-0.019-0.4-0.158-0.475-0.42c-0.076-0.261,0.018-0.672,0.279-1.232c0.225-0.522,0.467-1.12,0.729-1.792
	c0.26-0.672,0.504-1.325,0.727-1.96c0.225-0.634,0.422-1.185,0.59-1.652c0.168-0.466,0.27-0.756,0.307-0.868
	c0.225-0.373,0.541-0.69,0.953-0.952c0.41-0.261,0.82-0.42,1.23-0.476c0.412-0.056,0.793-0.019,1.148,0.112
	c0.355,0.131,0.588,0.364,0.701,0.7c0.336-0.298,0.736-0.522,1.203-0.672c0.467-0.149,0.896-0.196,1.289-0.14
	c0.391,0.056,0.699,0.224,0.924,0.504C395.612,12.426,395.649,12.81,395.501,13.294z"/>
</svg>
