<?xml version="1.0" standalone="no"?>
<!DOCTYPE svg PUBLIC "-//W3C//DTD SVG 1.1//EN" "http://www.w3.org/Graphics/SVG/1.1/DTD/svg11.dtd" >
<svg>
<metadata>
Created by FontForge 20090914 at Wed Aug 13 01:17:17 2014
 By www-data
(c) 2001-2012 Typodermic Fonts Inc. See attached license agreement. If agreement is missing visit typodermicfonts.com for more info.
</metadata>
<defs>
<font id="Stentiga-Regular" horiz-adv-x="799" >
  <font-face 
    font-family="Stentiga"
    font-weight="400"
    font-stretch="normal"
    units-per-em="1000"
    panose-1="4 1 5 6 0 0 0 2 0 4"
    ascent="749"
    descent="-251"
    x-height="713"
    cap-height="713"
    bbox="-49 -251.001 1406 949"
    underline-thickness="20"
    underline-position="-113"
    unicode-range="U+0020-U+2122"
  />
<missing-glyph horiz-adv-x="482" 
d="M138 0c-69.333 0 -104 30 -104 90v520c0 60.667 34.667 91 104 91h205c70 0 105 -30.333 105 -91v-520c0 -60 -35 -90 -105 -90h-205zM393 610c0 28 -16.667 42 -50 42h-205c-32.667 0 -49 -14 -49 -42v-520c0 -28 16.333 -42 49 -42h205c33.333 0 50 14 50 42v520z" />
    <glyph glyph-name=".notdef" horiz-adv-x="482" 
d="M138 0c-69.333 0 -104 30 -104 90v520c0 60.667 34.667 91 104 91h205c70 0 105 -30.333 105 -91v-520c0 -60 -35 -90 -105 -90h-205zM393 610c0 28 -16.667 42 -50 42h-205c-32.667 0 -49 -14 -49 -42v-520c0 -28 16.333 -42 49 -42h205c33.333 0 50 14 50 42v520z" />
    <glyph glyph-name="space" unicode=" " horiz-adv-x="284" 
 />
    <glyph glyph-name="exclam" unicode="!" horiz-adv-x="225" 
d="M195 65c0 -24 -8 -44 -24 -60s-36 -24 -60 -24c-23.333 0 -43 8 -59 24s-24 36 -24 60c0 23.333 8 42.833 24 58.5s35.667 23.5 59 23.5c24 0 44 -7.83301 60 -23.5s24 -35.167 24 -58.5zM167 510c-0.666992 -8 -1.5 -14.834 -2.5 -20.501s-2 -11.667 -3 -18
s-2 -14.166 -3 -23.499s-2.16699 -22 -3.5 -38l-22 -185h-42l-34 285v203h110v-203z" />
    <glyph glyph-name="quotedbl" unicode="&#x22;" horiz-adv-x="413" 
d="M116 627h-58l-17 262h108zM341 627h-58l-16 262h107z" />
    <glyph glyph-name="numbersign" unicode="#" horiz-adv-x="762" 
d="M588 149v-149h-113v149h-188v-149h-112v149h-150v113h150v188h-150v113h151v150h112v-150h188v150h112v-150h149v-113h-149v-188h149v-113h-149zM476 431l-1 19h-187v-188h187l1 20v149z" />
    <glyph glyph-name="dollar" unicode="$" horiz-adv-x="598" 
d="M287 0l-265 -0.000976562v111h265v207h-18c-146 0 -219 68.333 -219 205c0 126.667 72.667 190 218 190h19v57h48v-57h133v-111h-133v-173c161.333 -1.33301 242 -72.666 242 -213.999c0 -143.333 -80.667 -215 -242 -215v-71h-48v71zM468 216.999
c0 67.333 -40 101 -120 101h-13v-207h13c80 0 120 35.333 120 106zM254 601.999c-63.333 0 -95 -27 -95 -81c0 -61.333 31.667 -92 95 -92h33v173h-33z" />
    <glyph glyph-name="percent" unicode="%" horiz-adv-x="605" 
d="M510 128c0 21.333 -6.33301 38.333 -19 51s-29.334 19 -50.001 19c-19.333 0 -36.166 -6.33301 -50.499 -19s-21.5 -29.667 -21.5 -51c0 -18.667 7.16699 -35 21.5 -49s31.166 -21 50.499 -21c20.667 0 37.334 7 50.001 21s19 30.333 19 49zM237 590
c0 18.667 -6.66699 34.834 -20 48.501s-30.666 20.5 -51.999 20.5c-18.667 0 -34.834 -6.83301 -48.501 -20.5s-20.5 -29.834 -20.5 -48.501c0 -21.333 6.83301 -38.666 20.5 -51.999s29.834 -20 48.501 -20c21.333 0 38.666 6.66699 51.999 20s20 30.666 20 51.999zM149 0
h-89l386 713h88zM301 590c0 -18.667 -3.66895 -36.1689 -11.002 -52.502s-17.166 -30.666 -29.499 -42.999s-26.666 -22.166 -42.999 -29.499s-33.833 -11 -52.5 -11c-18 0 -35 3.66699 -51 11s-30 17.333 -42 30s-21.667 27.167 -29 43.5s-11 33.5 -11 51.5
c0 34.667 13.667 65.667 41 93v2c25.333 25.333 56 38 92 38c38 0 69.667 -12.667 95 -38v-2c27.333 -27.333 41 -58.333 41 -93zM573.998 127.998c0 -18.667 -3.5 -36.166 -10.5 -52.499s-16.667 -30.5 -29 -42.5s-26.5 -21.5 -42.5 -28.5s-33 -10.5 -51 -10.5
c-19.333 0 -37.166 3.5 -53.499 10.5s-30.5 16.5 -42.5 28.5s-21.333 26.167 -28 42.5s-10 33.833 -10 52.5c0 18 3.5 35 10.5 51s16.667 30.167 29 42.5s26.666 22.166 42.999 29.499s33.5 11 51.5 11s35 -3.5 51 -10.5s30.167 -16.5 42.5 -28.5s22 -26.167 29 -42.5
s10.5 -33.833 10.5 -52.5z" />
    <glyph glyph-name="ampersand" unicode="&#x26;" horiz-adv-x="659" 
d="M278 0c-164 0 -246 77.001 -246 231.001c0 118 43.333 188 130 210c-41.333 19.333 -62 56.666 -62 111.999c0 106.667 67 160 201 160h81v-111h-99c-47.333 0 -71 -20.667 -71 -62c0 -40 23.667 -60 71 -60l223 1v-370h136v-111h-364zM144 241.001
c0 -86.667 42.333 -130 127 -130h124v258h-122c-86 0 -129 -42.667 -129 -128z" />
    <glyph glyph-name="quotesingle" unicode="'" horiz-adv-x="237" 
d="M209 803c0 -26 -4.83301 -48.332 -14.5 -66.999s-21.5 -34.167 -35.5 -46.5s-29.167 -21.5 -45.5 -27.5s-30.833 -9.33301 -43.5 -10l-11 24c12 4 22.667 8.33301 32 13s16 12 20 22c-27.333 2 -48 11 -62 27s-21 38 -21 66c0 28.667 8.5 51.667 25.5 69
s38.167 26 63.5 26c30 0 52.833 -8.33301 68.5 -25s23.5 -40.334 23.5 -71.001z" />
    <glyph glyph-name="parenleft" unicode="(" horiz-adv-x="299" 
d="M147 -214c-70.667 211.333 -106 405.666 -106 582.999c0 174.667 35.333 368 106 580h111c-70 -209.333 -105 -402.666 -105 -579.999c0 -180.667 35 -375 105 -583h-111z" />
    <glyph glyph-name="parenright" unicode=")" horiz-adv-x="268" 
d="M245 369c0 -171.333 -35.667 -365.665 -107 -582.998h-110c69.333 211.333 104 405.666 104 582.999c0 175.333 -34.667 368.666 -104 579.999h110c71.333 -216 107 -409.333 107 -580z" />
    <glyph glyph-name="asterisk" unicode="*" horiz-adv-x="335" 
d="M215 501l103 -58l-26 -44l-100 58v-115h-51v111l-99 -54l-26 44l103 55l-103 62l26 44l99 -59v118h51v-119l100 60l26 -44z" />
    <glyph glyph-name="plus" unicode="+" horiz-adv-x="437" 
d="M275 301v-152h-114v152h-149v111h150v151h113v-151h150v-111h-150z" />
    <glyph glyph-name="comma" unicode="," horiz-adv-x="237" 
d="M210 67c0 -26 -4.83398 -48.168 -14.501 -66.501s-21.667 -33.666 -36 -45.999s-29.666 -21.5 -45.999 -27.5s-30.833 -9.33301 -43.5 -10l-10 24c12 3.33301 22.833 7.5 32.5 12.5s16.167 12.833 19.5 23.5c-27.333 1.33301 -48 9.83301 -62 25.5s-21 37.5 -21 65.5
c0 30 8.5 53.5 25.5 70.5s38.167 25.5 63.5 25.5c61.333 0 92 -32.333 92 -97z" />
    <glyph glyph-name="hyphen" unicode="-" horiz-adv-x="501" 
d="M45 224v111h412v-111h-412z" />
    <glyph glyph-name="period" unicode="." horiz-adv-x="233" 
d="M199 65c0 -24 -8.16699 -44 -24.5 -60s-36.166 -24 -59.499 -24c-24 0 -44 8 -60 24s-24 36 -24 60c0 23.333 8 42.833 24 58.5s36 23.5 60 23.5c23.333 0 43.166 -7.83301 59.499 -23.5s24.5 -35.167 24.5 -58.5z" />
    <glyph glyph-name="slash" unicode="/" horiz-adv-x="485" 
d="M78 0h-75l404 713h75z" />
    <glyph glyph-name="zero" unicode="0" 
d="M657 356c0 34.667 -6.83301 67.667 -20.5 99s-32.334 58.833 -56.001 82.5s-51.167 42.334 -82.5 56.001s-64.333 20.5 -99 20.5c-35.333 0 -68.666 -6.83301 -99.999 -20.5s-58.666 -32.334 -81.999 -56.001s-41.833 -51.167 -55.5 -82.5s-20.5 -64.333 -20.5 -99
c0 -35.333 6.83301 -68.666 20.5 -99.999s32.167 -58.666 55.5 -81.999s50.666 -41.833 81.999 -55.5s64.666 -20.5 99.999 -20.5c34.667 0 67.667 6.83301 99 20.5s58.833 32.167 82.5 55.5s42.334 50.666 56.001 81.999s20.5 64.666 20.5 99.999zM768 356
c0 -50 -9.83203 -97.3311 -29.499 -141.998s-46.334 -83.834 -80.001 -117.501s-72.834 -60.334 -117.501 -80.001s-92 -29.5 -142 -29.5s-97.5 9.83301 -142.5 29.5s-84.167 46.167 -117.5 79.5s-59.833 72.5 -79.5 117.5s-29.5 92.5 -29.5 142.5s9.83301 97.5 29.5 142.5
s46.167 84.167 79.5 117.5s72.5 59.833 117.5 79.5s92.5 29.5 142.5 29.5c50.667 0 98.334 -9.83301 143.001 -29.5s83.667 -46.167 117 -79.5s59.833 -72.5 79.5 -117.5s29.5 -92.5 29.5 -142.5z" />
    <glyph glyph-name="one" unicode="1" horiz-adv-x="419" 
d="M43 0v111h134v491h-134v111h245v-602h107v-111h-352z" />
    <glyph glyph-name="two" unicode="2" horiz-adv-x="599" 
d="M144 111h421v-111h-529v215c0 142.667 81 214 243 214h54c64 0 96 30.667 96 92c0 54 -32 81 -96 81h-232v111h218c145.333 0 218 -63.333 218 -190c0 -136.667 -73 -205 -219 -205h-52c-81.333 0 -122 -33.667 -122 -101v-106z" />
    <glyph glyph-name="three" unicode="3" horiz-adv-x="512" 
d="M303 540c0 41.333 -23.333 62 -70 62h-155v111h137c134 0 201 -53.333 201 -160c0 -56 -21 -93.333 -63 -112c87.333 -22 131 -92 131 -210c0 -154 -82.333 -231 -247 -231h-202v111h210c84 0 126 43.333 126 130c0 85.333 -43 128 -129 128h-164v111h155
c46.667 0 70 20 70 60z" />
    <glyph glyph-name="four" unicode="4" horiz-adv-x="625" 
d="M506 224v-224h-112v224h-380v489h112v-378h268v487h112v-487h93v-111h-93z" />
    <glyph glyph-name="five" unicode="5" horiz-adv-x="628" 
d="M479 219c0 71.333 -40.667 107 -122 107h-296v387h495v-111h-387v-165h174c162.667 0 244 -73.333 244 -220c0 -144.667 -81.333 -217 -244 -217h-302v111h316c81.333 0 122 36 122 108z" />
    <glyph glyph-name="six" unicode="6" horiz-adv-x="571" 
d="M548 252c0 -36.667 -6.99805 -71.001 -20.998 -103.001s-33 -60 -57 -84s-52 -43 -84 -57s-66 -21 -102 -21c-37.333 0 -72.166 7.16699 -104.499 21.5s-60.333 33.5 -84 57.5s-42.334 51.333 -56.001 82s-20.5 62.334 -20.5 95.001c0 22 1.66699 41.5 5 58.5
s8.16602 33.5 14.499 49.5s14.166 32.167 23.499 48.5s20.333 34.5 33 54.5l219 368h120l-187 -316c8 1.33301 15.833 2.33301 23.5 3s15.5 1 23.5 1c35.333 0 68.5 -7 99.5 -21s58 -32.833 81 -56.5s41 -51.167 54 -82.5s19.5 -64 19.5 -98zM441.002 251.999
c0 21.333 -4.16602 41.334 -12.499 60.001s-19.666 35 -33.999 49s-31 25.167 -50 33.5s-39.167 12.5 -60.5 12.5c-22 0 -42.5 -4 -61.5 -12s-35.5 -19 -49.5 -33s-25.167 -30.5 -33.5 -49.5s-12.5 -39.167 -12.5 -60.5c0 -22 4.16699 -42.5 12.5 -61.5
s19.666 -35.5 33.999 -49.5s31 -25.167 50 -33.5s39.167 -12.5 60.5 -12.5s41.5 4.16699 60.5 12.5s35.667 19.666 50 33.999s25.666 31 33.999 50s12.5 39.167 12.5 60.5z" />
    <glyph glyph-name="seven" unicode="7" horiz-adv-x="525" 
d="M141 -140h-113l359 742h-325v111h456v-77z" />
    <glyph glyph-name="eight" unicode="8" horiz-adv-x="597" 
d="M277 -7c-164 0 -246 78.333 -246 235c0 120 43.333 191 130 213c-41.333 18.667 -62 57.667 -62 117c0 107.333 67 161 201 161c132 0 198 -53.667 198 -161c0 -59.333 -20.667 -98.333 -62 -117c86.667 -22 130 -93 130 -213c0 -156.667 -82 -235 -246 -235h-43z
M272 369c-86 0 -129 -43.667 -129 -131c0 -90 42.333 -135 127 -135h57c84.667 0 127 45 127 135c0 87.333 -43 131 -129 131h-53zM211 545c0 -43.333 23.667 -65 71 -65h34c46.667 0 70 21.667 70 65c0 42 -23.333 63 -70 63h-34c-47.333 0 -71 -21 -71 -63z" />
    <glyph glyph-name="nine" unicode="9" horiz-adv-x="570" 
d="M23 465c0 36.667 7.00098 71.001 21.001 103.001s33 60 57 84s52.167 43 84.5 57s66.5 21 102.5 21s70 -7 102 -21s60 -32.5 84 -55.5s42.833 -49.667 56.5 -80s20.5 -61.5 20.5 -93.5c0 -21.333 -1.66699 -40.833 -5 -58.5s-8.33301 -34.834 -15 -51.501
s-14.5 -33.667 -23.5 -51s-19.5 -36.333 -31.5 -57l-231 -402h-121l199 351c-12.667 -2.66699 -28.667 -4 -48 -4c-35.333 0 -68.333 7.16699 -99 21.5s-57.334 33.333 -80.001 57s-40.5 51 -53.5 82s-19.5 63.5 -19.5 97.5zM130.001 465.001
c0 -21.333 4.16699 -41.5 12.5 -60.5s19.833 -35.5 34.5 -49.5s31.5 -25.167 50.5 -33.5s39.167 -12.5 60.5 -12.5s41.5 4.16699 60.5 12.5s35.5 19.5 49.5 33.5s25.167 30.5 33.5 49.5s12.5 39.167 12.5 60.5s-4.16699 41.5 -12.5 60.5s-19.5 35.667 -33.5 50
s-30.5 25.666 -49.5 33.999s-39.167 12.5 -60.5 12.5s-41.5 -4.16699 -60.5 -12.5s-35.833 -19.666 -50.5 -33.999s-26.167 -31 -34.5 -50s-12.5 -39.167 -12.5 -60.5z" />
    <glyph glyph-name="colon" unicode=":" horiz-adv-x="239" 
d="M204 65c0 -24 -8.33301 -44 -25 -60s-36.667 -24 -60 -24s-43.166 8 -59.499 24s-24.5 36 -24.5 60c0 23.333 8.16699 42.833 24.5 58.5s36.166 23.5 59.499 23.5s43.333 -7.83301 60 -23.5s25 -35.167 25 -58.5zM204 507c0 -24 -8.33301 -44.1689 -25 -60.502
s-36.667 -24.5 -60 -24.5s-43.166 8.16699 -59.499 24.5s-24.5 36.5 -24.5 60.5c0 10.667 2.16699 21.167 6.5 31.5s10.333 19.333 18 27s16.667 13.834 27 18.501s21.166 7 32.499 7c22.667 0 42.5 -8.16699 59.5 -24.5s25.5 -36.166 25.5 -59.499z" />
    <glyph glyph-name="semicolon" unicode=";" horiz-adv-x="237" 
d="M203 507c0 -24 -8.50098 -44.165 -25.501 -60.498s-37.167 -24.5 -60.5 -24.5s-43.166 8.16699 -59.499 24.5s-24.5 36.5 -24.5 60.5c0 11.333 2.33301 22.166 7 32.499s10.834 19.333 18.501 27s16.5 13.667 26.5 18s20.667 6.5 32 6.5s22.166 -2.33301 32.499 -7
s19.5 -10.834 27.5 -18.501s14.333 -16.667 19 -27s7 -20.833 7 -31.5zM206.999 76.002c0 -26 -4.83398 -48.332 -14.501 -66.999s-21.667 -34 -36 -46s-29.666 -21.167 -45.999 -27.5s-30.833 -9.83301 -43.5 -10.5l-10 25c12 2.66699 22.5 6.66699 31.5 12
s15.833 13 20.5 23c-28 1.33301 -48.833 10 -62.5 26s-20.5 38 -20.5 66c0 29.333 8.5 52.666 25.5 69.999s38.167 26 63.5 26c61.333 0 92 -32.333 92 -97z" />
    <glyph glyph-name="less" unicode="&#x3c;" horiz-adv-x="406" 
d="M295 9l-291 291l291 290l78 -78l-198 -198v-29l198 -198z" />
    <glyph glyph-name="equal" unicode="=" horiz-adv-x="473" 
d="M45 149v113h413v-113h-413zM45 450v113h413v-113h-413z" />
    <glyph glyph-name="greater" unicode="&#x3e;" horiz-adv-x="405" 
d="M110 9l-78 78l198 198v29l-198 198l78 78l291 -290z" />
    <glyph glyph-name="question" unicode="?" horiz-adv-x="530" 
d="M260 65c0 -24 -8 -44 -24 -60s-35.667 -24 -59 -24c-24 0 -44.167 8 -60.5 24s-24.5 36 -24.5 60c0 23.333 8.16699 42.833 24.5 58.5s36.5 23.5 60.5 23.5c23.333 0 43 -7.83301 59 -23.5s24 -35.167 24 -58.5zM122 217c0 141.333 65 212 195 212c60 0 90 30.667 90 92
c0 54 -32 81 -96 81h-280v111h267c144.667 0 217 -63.333 217 -190c0 -136.667 -65.667 -205 -197 -205c-58.667 0 -88 -33.667 -88 -101h-108z" />
    <glyph glyph-name="at" unicode="@" horiz-adv-x="454" 
d="M45 137v492h378v-340h-266v187h153v-85h-40v32l-19 20h-33l-20 -20v-80l20 -20h144l20 20v233l-20 19h-256l-19 -19v-386l19 -20h317v-33h-378z" />
    <glyph glyph-name="A" unicode="A" horiz-adv-x="757" 
d="M838 -140h-127l-129 252h-411l-54 -112h-127l383 769zM224 224h305l-152 320z" />
    <glyph glyph-name="B" unicode="B" horiz-adv-x="679" 
d="M45 713h333c133.333 0 200 -53.333 200 -160c0 -56 -20.667 -93.333 -62 -112c86.667 -22 130 -92 130 -210c0 -154 -82 -231 -246 -231h-355v713zM534 241c0 85.333 -43 128 -129 128h-249v-258h251c84.667 0 127 43.333 127 130zM466 540c0 41.333 -23.333 62 -70 62
h-240v-122h240c46.667 0 70 20 70 60z" />
    <glyph glyph-name="C" unicode="C" horiz-adv-x="730" 
d="M579 174c6.66699 6.66699 12.832 13.499 18.499 20.499s11.167 14.5 16.5 22.5l96 -56c-36 -54 -80.667 -96.5 -134 -127.5s-112.333 -46.5 -177 -46.5c-50.667 0 -98.334 9.83301 -143.001 29.5s-83.834 46.167 -117.501 79.5s-60.334 72.5 -80.001 117.5
s-29.5 92.5 -29.5 142.5s9.83301 97.5 29.5 142.5s46.334 84.167 80.001 117.5s72.834 59.833 117.501 79.5s92.334 29.5 143.001 29.5c30 0 60.833 -3.83301 92.5 -11.5s60.167 -19.834 85.5 -36.501l-61 -92l-19 9c-15.333 7.33301 -31.166 12.333 -47.499 15
s-33.166 4.33398 -50.499 5.00098c-35.333 0 -68.666 -6.83301 -99.999 -20.5s-58.833 -32.334 -82.5 -56.001s-42.334 -51.167 -56.001 -82.5s-20.5 -64.333 -20.5 -99c0 -35.333 6.83301 -68.666 20.5 -99.999s32.334 -58.666 56.001 -81.999s51.167 -41.833 82.5 -55.5
s64.666 -20.5 99.999 -20.5c36 0 69.167 6.83301 99.5 20.5s57.166 32.167 80.499 55.5z" />
    <glyph glyph-name="D" unicode="D" horiz-adv-x="685" 
d="M45 713h256c234 0 351 -114.667 351 -344c0 -246 -116.333 -369 -349 -369h-258v713zM539 369c0 155.333 -69 233 -207 233h-176v-490h176c138 0 207 85.667 207 257z" />
    <glyph glyph-name="E" unicode="E" horiz-adv-x="519" 
d="M153 111h325v-111h-437v713h384v-111h-272v-122h272v-111h-272v-258z" />
    <glyph glyph-name="F" unicode="F" horiz-adv-x="493" 
d="M156 224v-364h-111v853h444v-111h-333v-267h280v-111h-280z" />
    <glyph glyph-name="G" unicode="G" horiz-adv-x="733" 
d="M702 -140l-113.001 -0.000976562v189c-30 -19.333 -62 -34.5 -96 -45.5s-69.667 -16.5 -107 -16.5c-50 0 -97.333 9.83301 -142 29.5s-83.834 46.167 -117.501 79.5s-60.334 72.5 -80.001 117.5s-29.5 92.5 -29.5 142.5s9.83301 97.5 29.5 142.5
s46.334 84.167 80.001 117.5s72.834 59.833 117.501 79.5s92 29.5 142 29.5c31.333 0 62.5 -3.83301 93.5 -11.5s59.5 -19.834 85.5 -36.501l-60 -92l-20 9c-15.333 7.33301 -31.166 12.333 -47.499 15s-33.5 4.33398 -51.5 5.00098
c-35.333 0 -68.666 -6.83301 -99.999 -20.5s-58.666 -32.334 -81.999 -56.001s-41.833 -51.167 -55.5 -82.5s-20.5 -64.333 -20.5 -99c0 -35.333 6.83301 -68.666 20.5 -99.999s32.167 -58.666 55.5 -81.999s50.666 -41.833 81.999 -55.5s64.666 -20.5 99.999 -20.5
c42 0 80.5 9 115.5 27s64.167 42.333 87.5 73v26h-156v111h269v-475z" />
    <glyph glyph-name="H" unicode="H" horiz-adv-x="679" 
d="M535 0v224h-378v-224h-112v822h112v-487h378v378h111v-713h-111z" />
    <glyph glyph-name="I" unicode="I" horiz-adv-x="203" 
d="M45 0v713h111v-713h-111z" />
    <glyph glyph-name="J" unicode="J" horiz-adv-x="553" 
d="M275 109c90 0 135 55.333 135 166v547h111v-528c0 -199.333 -82 -299 -246 -299c-44 0 -81.5 7.83301 -112.5 23.5s-56.333 36.5 -76 62.5s-34 55.833 -43 89.5s-13.5 68.5 -13.5 104.5h112c0 -110.667 44.333 -166 133 -166z" />
    <glyph glyph-name="K" unicode="K" horiz-adv-x="582" 
d="M413 0l-257 257v-257h-111v822h111v-368l257 259h160l-367 -358l367 -355h-160z" />
    <glyph glyph-name="L" unicode="L" horiz-adv-x="489" 
d="M45 0v822h111v-711h330v-111h-441z" />
    <glyph glyph-name="M" unicode="M" horiz-adv-x="748" 
d="M703 -140h-112v624l-196 -377h-60l-196 377v-484h-112v713h112l226 -438l226 438h112v-853z" />
    <glyph glyph-name="N" unicode="N" horiz-adv-x="612" 
d="M500 0l-357 478v-478h-111v713h68l358 -478v587h108v-822h-66z" />
    <glyph glyph-name="O" unicode="O" 
d="M657 356c0 34.667 -6.83301 67.667 -20.5 99s-32.334 58.833 -56.001 82.5s-51.167 42.334 -82.5 56.001s-64.333 20.5 -99 20.5c-35.333 0 -68.666 -6.83301 -99.999 -20.5s-58.666 -32.334 -81.999 -56.001s-41.833 -51.167 -55.5 -82.5s-20.5 -64.333 -20.5 -99
c0 -35.333 6.83301 -68.666 20.5 -99.999s32.167 -58.666 55.5 -81.999s50.666 -41.833 81.999 -55.5s64.666 -20.5 99.999 -20.5c34.667 0 67.667 6.83301 99 20.5s58.833 32.167 82.5 55.5s42.334 50.666 56.001 81.999s20.5 64.666 20.5 99.999zM768 356
c0 -50 -9.83203 -97.3311 -29.499 -141.998s-46.334 -83.834 -80.001 -117.501s-72.834 -60.334 -117.501 -80.001s-92 -29.5 -142 -29.5s-97.5 9.83301 -142.5 29.5s-84.167 46.167 -117.5 79.5s-59.833 72.5 -79.5 117.5s-29.5 92.5 -29.5 142.5s9.83301 97.5 29.5 142.5
s46.167 84.167 79.5 117.5s72.5 59.833 117.5 79.5s92.5 29.5 142.5 29.5c50.667 0 98.334 -9.83301 143.001 -29.5s83.667 -46.167 117 -79.5s59.833 -72.5 79.5 -117.5s29.5 -92.5 29.5 -142.5z" />
    <glyph glyph-name="P" unicode="P" horiz-adv-x="655" 
d="M156 -140h-111v853h341c173.333 0 260 -80.667 260 -242c0 -164.667 -86.667 -247 -260 -247h-230v-364zM539 470c0 88 -46.333 132 -139 132h-244v-267h244c92.667 0 139 45 139 135z" />
    <glyph glyph-name="Q" unicode="Q" horiz-adv-x="786" 
d="M762 356c0 -41.333 -6.66797 -81.834 -20.001 -121.501s-33.166 -76 -59.499 -109s-59 -61.167 -98 -84.5s-84.167 -39 -135.5 -47v-134h-112v134c-50.667 8 -95.5 23.333 -134.5 46s-71.833 50.334 -98.5 83.001s-46.834 69 -60.501 109s-20.5 81.333 -20.5 124
c0 50 9.83301 97.5 29.5 142.5s46.334 84.167 80.001 117.5s73 59.833 118 79.5s92.833 29.5 143.5 29.5c50 0 97.333 -9.83301 142 -29.5s83.667 -46.167 117 -79.5s59.833 -72.5 79.5 -117.5s29.5 -92.5 29.5 -142.5zM650.999 355.999c0 34.667 -6.83301 67.667 -20.5 99
s-32.167 58.833 -55.5 82.5s-50.666 42.334 -81.999 56.001s-64.333 20.5 -99 20.5c-35.333 0 -68.666 -6.83301 -99.999 -20.5s-58.833 -32.334 -82.5 -56.001s-42.5 -51.167 -56.5 -82.5s-21 -64.333 -21 -99c0 -35.333 7 -68.666 21 -99.999s32.833 -58.666 56.5 -81.999
s51.167 -41.833 82.5 -55.5s64.666 -20.5 99.999 -20.5c34.667 0 67.667 6.83301 99 20.5s58.666 32.167 81.999 55.5s41.833 50.666 55.5 81.999s20.5 64.666 20.5 99.999z" />
    <glyph glyph-name="R" unicode="R" horiz-adv-x="667" 
d="M29 713h342c173.333 0 260 -80.667 260 -242c0 -151.333 -73 -233.333 -219 -246l211 -365h-120l-210 364h-152v-224h-112v713zM523 470c0 88 -46 132 -138 132h-244v-267h244c92 0 138 45 138 135z" />
    <glyph glyph-name="S" unicode="S" horiz-adv-x="597" 
d="M457 217c0 67.333 -40.667 101 -122 101h-78c-146 0 -219 68.333 -219 205c0 126.667 72.667 190 218 190h250v-111h-264c-63.333 0 -95 -27 -95 -81c0 -61.333 31.667 -92 95 -92h79c162.667 0 244 -71.333 244 -214c0 -143.333 -81 -215 -243 -215h-277v111h290
c81.333 0 122 35.333 122 106z" />
    <glyph glyph-name="T" unicode="T" horiz-adv-x="796" 
d="M331 602v-602h-112v602h-190v111h190v109h112v-109h436v-111h-436z" />
    <glyph glyph-name="U" unicode="U" horiz-adv-x="671" 
d="M345 109c117.333 0 176 80.333 176 241v363h110v-359c0 -239.333 -95.333 -359 -286 -359c-204.667 0 -307 119 -307 357v361h112v-363c0 -160.667 65 -241 195 -241z" />
    <glyph glyph-name="V" unicode="V" horiz-adv-x="761" 
d="M-11 713h126l260 -544l325 653h122l-443 -879z" />
    <glyph glyph-name="W" unicode="W" horiz-adv-x="1019" 
d="M-11 713h126l260 -544l76 156l-196 388h125l127 -276l127 276h125l-194 -392l75 -152l319 653h123l-439 -879l-133 272l-131 -272z" />
    <glyph glyph-name="X" unicode="X" horiz-adv-x="651" 
d="M153 0h-139l237 356l-237 357h141l158 -259l224 368h131l-294 -466l238 -356h-139l-160 262z" />
    <glyph glyph-name="Y" unicode="Y" horiz-adv-x="578" 
d="M237 352l-243 361h140l158 -259l230 368h129l-302 -470v-352h-112v352z" />
    <glyph glyph-name="Z" unicode="Z" horiz-adv-x="617" 
d="M41 0v49l366 553h-366v111h533v-50l-366 -552h366v-111h-533z" />
    <glyph glyph-name="bracketleft" unicode="[" horiz-adv-x="331" 
d="M45 -150v1013h260v-112h-149v-789h149v-112h-260z" />
    <glyph glyph-name="backslash" unicode="\" horiz-adv-x="484" 
d="M407 0l-405 713h75l404 -713h-74z" />
    <glyph glyph-name="bracketright" unicode="]" horiz-adv-x="331" 
d="M23 -150v112h151v789h-151v112h263v-1013h-263z" />
    <glyph glyph-name="asciicircum" unicode="^" horiz-adv-x="617" 
d="M96 479l-78 78l291 290l290 -290l-77 -78l-213 216z" />
    <glyph glyph-name="underscore" unicode="_" horiz-adv-x="801" 
d="M45 -250v112h712v-112h-712z" />
    <glyph glyph-name="grave" unicode="`" horiz-adv-x="166" 
d="M-49 931h115l59 -150h-83z" />
    <glyph glyph-name="a" unicode="a" horiz-adv-x="758" 
d="M768 0h-127l-58 112h-411l-54 -112h-127l382 769zM224 224h306l-152 320z" />
    <glyph glyph-name="b" unicode="b" horiz-adv-x="679" 
d="M45 713h333c133.333 0 200 -53.333 200 -160c0 -56 -20.667 -93.333 -62 -112c86.667 -22 130 -92 130 -210c0 -154 -82 -231 -246 -231h-355v713zM534 241c0 85.333 -43 128 -129 128h-249v-258h251c84.667 0 127 43.333 127 130zM466 540c0 41.333 -23.333 62 -70 62
h-240v-122h240c46.667 0 70 20 70 60z" />
    <glyph glyph-name="c" unicode="c" horiz-adv-x="730" 
d="M579 174c6.66699 6.66699 12.832 13.499 18.499 20.499s11.167 14.5 16.5 22.5l96 -56c-36 -54 -80.667 -96.5 -134 -127.5s-112.333 -46.5 -177 -46.5c-50.667 0 -98.334 9.83301 -143.001 29.5s-83.834 46.167 -117.501 79.5s-60.334 72.5 -80.001 117.5
s-29.5 92.5 -29.5 142.5s9.83301 97.5 29.5 142.5s46.334 84.167 80.001 117.5s72.834 59.833 117.501 79.5s92.334 29.5 143.001 29.5c30 0 60.833 -3.83301 92.5 -11.5s60.167 -19.834 85.5 -36.501l-61 -92l-19 9c-15.333 7.33301 -31.166 12.333 -47.499 15
s-33.166 4.33398 -50.499 5.00098c-35.333 0 -68.666 -6.83301 -99.999 -20.5s-58.833 -32.334 -82.5 -56.001s-42.334 -51.167 -56.001 -82.5s-20.5 -64.333 -20.5 -99c0 -35.333 6.83301 -68.666 20.5 -99.999s32.334 -58.666 56.001 -81.999s51.167 -41.833 82.5 -55.5
s64.666 -20.5 99.999 -20.5c36 0 69.167 6.83301 99.5 20.5s57.166 32.167 80.499 55.5z" />
    <glyph glyph-name="d" unicode="d" horiz-adv-x="685" 
d="M45 713h256c234 0 351 -114.667 351 -344c0 -246 -116.333 -369 -349 -369h-258v713zM539 369c0 155.333 -69 233 -207 233h-176v-490h176c138 0 207 85.667 207 257z" />
    <glyph glyph-name="e" unicode="e" horiz-adv-x="557" 
d="M45 0v713h383v-111h-272v-122h272v-111h-272v-258h374v-111h-485z" />
    <glyph glyph-name="f" unicode="f" horiz-adv-x="511" 
d="M156 0h-111v713h460v-111h-349v-267h280v-111h-280v-224z" />
    <glyph glyph-name="g" unicode="g" horiz-adv-x="743" 
d="M714 0l-113.002 -0.000976562v49c-28.667 -20 -60.5 -35.333 -95.5 -46s-70.5 -16 -106.5 -16c-50.667 0 -98.334 9.83301 -143.001 29.5s-83.834 46.167 -117.501 79.5s-60.334 72.5 -80.001 117.5s-29.5 92.5 -29.5 142.5s9.83301 97.5 29.5 142.5
s46.334 84.167 80.001 117.5s72.834 59.833 117.501 79.5s92.334 29.5 143.001 29.5c30 0 60.833 -3.83301 92.5 -11.5s60.167 -19.834 85.5 -36.501l-61 -92l-19 9c-15.333 7.33301 -31.166 12.333 -47.499 15s-33.166 4.33398 -50.499 5.00098
c-35.333 0 -68.666 -6.83301 -99.999 -20.5s-58.833 -32.334 -82.5 -56.001s-42.334 -51.167 -56.001 -82.5s-20.5 -64.333 -20.5 -99c0 -35.333 6.83301 -68.666 20.5 -99.999s32.334 -58.666 56.001 -81.999s51.167 -41.833 82.5 -55.5s64.666 -20.5 99.999 -20.5
c41.333 0 79.5 9 114.5 27s64.167 42.333 87.5 73v26h-156v111h269v-335z" />
    <glyph glyph-name="h" unicode="h" horiz-adv-x="692" 
d="M535 224h-378v-224h-112v713h112v-378h378v378h111v-713h-111v224z" />
    <glyph glyph-name="i" unicode="i" horiz-adv-x="203" 
d="M45 0v713h111v-713h-111z" />
    <glyph glyph-name="j" unicode="j" horiz-adv-x="534" 
d="M250 109c88.667 0 133 55.333 133 166v438h111v-419c0 -199.333 -81.333 -299 -244 -299c-44 0 -81.5 7.83301 -112.5 23.5s-56.5 36.5 -76.5 62.5s-34.667 55.833 -44 89.5s-14 68.5 -14 104.5h112c0 -110.667 45 -166 135 -166z" />
    <glyph glyph-name="k" unicode="k" horiz-adv-x="603" 
d="M156 257v-257h-111v713h111v-259l257 259h160l-367 -358l367 -355h-160z" />
    <glyph glyph-name="l" unicode="l" horiz-adv-x="374" 
d="M45 713h111v-602h211v-111h-322v713z" />
    <glyph glyph-name="m" unicode="m" horiz-adv-x="766" 
d="M608 484l-195 -377h-61l-195 377v-484h-112v713h111l227 -438l226 438h112v-713h-113v484z" />
    <glyph glyph-name="n" unicode="n" horiz-adv-x="624" 
d="M155 478v-478h-110v713h68l356 -478v478h109v-713h-66z" />
    <glyph glyph-name="o" unicode="o" 
d="M657 356c0 34.667 -6.83301 67.667 -20.5 99s-32.334 58.833 -56.001 82.5s-51.167 42.334 -82.5 56.001s-64.333 20.5 -99 20.5c-35.333 0 -68.666 -6.83301 -99.999 -20.5s-58.666 -32.334 -81.999 -56.001s-41.833 -51.167 -55.5 -82.5s-20.5 -64.333 -20.5 -99
c0 -35.333 6.83301 -68.666 20.5 -99.999s32.167 -58.666 55.5 -81.999s50.666 -41.833 81.999 -55.5s64.666 -20.5 99.999 -20.5c34.667 0 67.667 6.83301 99 20.5s58.833 32.167 82.5 55.5s42.334 50.666 56.001 81.999s20.5 64.666 20.5 99.999zM768 356
c0 -50 -9.83203 -97.3311 -29.499 -141.998s-46.334 -83.834 -80.001 -117.501s-72.834 -60.334 -117.501 -80.001s-92 -29.5 -142 -29.5s-97.5 9.83301 -142.5 29.5s-84.167 46.167 -117.5 79.5s-59.833 72.5 -79.5 117.5s-29.5 92.5 -29.5 142.5s9.83301 97.5 29.5 142.5
s46.167 84.167 79.5 117.5s72.5 59.833 117.5 79.5s92.5 29.5 142.5 29.5c50.667 0 98.334 -9.83301 143.001 -29.5s83.667 -46.167 117 -79.5s59.833 -72.5 79.5 -117.5s29.5 -92.5 29.5 -142.5z" />
    <glyph glyph-name="p" unicode="p" horiz-adv-x="659" 
d="M156 0h-111v713h341c173.333 0 260 -80.667 260 -242c0 -164.667 -86.667 -247 -260 -247h-230v-224zM539 470c0 88 -46.333 132 -139 132h-244v-267h244c92.667 0 139 45 139 135z" />
    <glyph glyph-name="q" unicode="q" horiz-adv-x="786" 
d="M762 356c0 -41.333 -6.66797 -81.834 -20.001 -121.501s-33.166 -76 -59.499 -109s-59 -61.167 -98 -84.5s-84.167 -39 -135.5 -47v-134h-112v134c-50.667 8 -95.5 23.333 -134.5 46s-71.833 50.334 -98.5 83.001s-46.834 69 -60.501 109s-20.5 81.333 -20.5 124
c0 50 9.83301 97.5 29.5 142.5s46.334 84.167 80.001 117.5s73 59.833 118 79.5s92.833 29.5 143.5 29.5c50 0 97.333 -9.83301 142 -29.5s83.667 -46.167 117 -79.5s59.833 -72.5 79.5 -117.5s29.5 -92.5 29.5 -142.5zM650.999 355.999c0 34.667 -6.83301 67.667 -20.5 99
s-32.167 58.833 -55.5 82.5s-50.666 42.334 -81.999 56.001s-64.333 20.5 -99 20.5c-35.333 0 -68.666 -6.83301 -99.999 -20.5s-58.833 -32.334 -82.5 -56.001s-42.5 -51.167 -56.5 -82.5s-21 -64.333 -21 -99c0 -35.333 7 -68.666 21 -99.999s32.833 -58.666 56.5 -81.999
s51.167 -41.833 82.5 -55.5s64.666 -20.5 99.999 -20.5c34.667 0 67.667 6.83301 99 20.5s58.666 32.167 81.999 55.5s41.833 50.666 55.5 81.999s20.5 64.666 20.5 99.999z" />
    <glyph glyph-name="r" unicode="r" horiz-adv-x="676" 
d="M45 713h341c173.333 0 260 -80.667 260 -242c0 -151.333 -72.667 -233.333 -218 -246l130 -225h-121l-128 224h-153v-224h-111v713zM539 470c0 88 -46.333 132 -139 132h-244v-267h244c92.667 0 139 45 139 135z" />
    <glyph glyph-name="s" unicode="s" horiz-adv-x="594" 
d="M457 217c0 67.333 -40.667 101 -122 101h-78c-146 0 -219 68.333 -219 205c0 126.667 72.667 190 218 190h211v-111h-225c-63.333 0 -95 -27 -95 -81c0 -61.333 31.667 -92 95 -92h79c162.667 0 244 -71.333 244 -214c0 -143.333 -81 -215 -243 -215h-277v111h290
c81.333 0 122 35.333 122 106z" />
    <glyph glyph-name="t" unicode="t" horiz-adv-x="539" 
d="M320 0h-112v602h-189v111h502v-111h-201v-602z" />
    <glyph glyph-name="u" unicode="u" horiz-adv-x="671" 
d="M345 109c117.333 0 176 80.333 176 241v363h110v-359c0 -239.333 -95.333 -359 -286 -359c-204.667 0 -307 119 -307 357v361h112v-363c0 -160.667 65 -241 195 -241z" />
    <glyph glyph-name="v" unicode="v" horiz-adv-x="762" 
d="M-7 713h125l261 -544l270 544h121l-388 -770z" />
    <glyph glyph-name="w" unicode="w" horiz-adv-x="1012" 
d="M-13 713h126l260 -544l77 156l-196 388h124l128 -276l127 276h124l-194 -392l75 -152l265 544h122l-383 -770l-134 272l-130 -272z" />
    <glyph glyph-name="x" unicode="x" horiz-adv-x="655" 
d="M169 0h-139l237 356l-237 357h141l158 -259l157 259h128l-224 -357l238 -356h-139l-160 262z" />
    <glyph glyph-name="y" unicode="y" horiz-adv-x="565" 
d="M233 352l-244 361h141l158 -259l160 259h127l-232 -361v-352h-110v352z" />
    <glyph glyph-name="z" unicode="z" horiz-adv-x="617" 
d="M41 0v49l366 553h-366v111h533v-50l-366 -552h366v-111h-533z" />
    <glyph glyph-name="braceleft" unicode="{" horiz-adv-x="415" 
d="M385 -150h-261v376l-6 15l-106 105l106 105l6 15v397h261v-112h-150v-318l-75 -74v-28l76 -74v-295h149v-112z" />
    <glyph glyph-name="bar" unicode="|" horiz-adv-x="185" 
d="M45 -204v1109h92v-1109h-92z" />
    <glyph glyph-name="braceright" unicode="}" horiz-adv-x="415" 
d="M30 861h261v-377l6 -13l106 -105l-106 -107l-6 -14v-396h-261v110h150v318l74 75v28l-75 74v296h-149v111z" />
    <glyph glyph-name="exclamdown" unicode="&#xa1;" horiz-adv-x="225" 
d="M27 628c0 24 8 44.167 24 60.5s36 24.5 60 24.5c23.333 0 43 -8.16699 59 -24.5s24 -36.5 24 -60.5c0 -23.333 -8 -42.833 -24 -58.5s-35.667 -23.5 -59 -23.5c-24 0 -44 7.83301 -60 23.5s-24 35.167 -24 58.5zM54 183c0.666992 8.66699 1.66699 15.834 3 21.501
s2.5 11.667 3.5 18s2 14.166 3 23.499s2.16699 22 3.5 38l22 184h42l34 -285v-202h-111v202z" />
    <glyph glyph-name="cent" unicode="&#xa2;" horiz-adv-x="749" 
d="M351 -223l0.00195312 195c-44.667 6.66699 -86.5 20.667 -125.5 42s-72.833 48.166 -101.5 80.499s-51.167 69.166 -67.5 110.499s-24.5 85 -24.5 131s8.16699 89.667 24.5 131s38.833 78.333 67.5 111s62.5 59.834 101.5 81.501s80.833 35.834 125.5 42.501v183h92v-181
c53.333 -6 102.166 -21 146.499 -45s80.5 -56.667 108.5 -98l-105 -51c-37.333 48 -87.333 75.333 -150 82v-511c63.333 8 113.333 35.333 150 82l105 -51c-32 -41.333 -69.833 -73.833 -113.5 -97.5s-90.834 -38.5 -141.501 -44.5v-193h-92zM220.002 518
c-50 -52 -75 -112.667 -75 -182c0 -70 25 -130 75 -180v-1c36.667 -38 80.334 -62 131.001 -72v507c-50.667 -10 -94.334 -34 -131.001 -72z" />
    <glyph glyph-name="sterling" unicode="&#xa3;" horiz-adv-x="797" 
d="M44 582c0 18.667 3.33008 35.999 9.99707 51.999s15.834 29.833 27.501 41.5s25.334 20.834 41.001 27.501s32.834 10 51.501 10h582v-111h-582l-19 -20v-151l19 -19h310v-111h-310l-19 -19v-152l19 -19h582v-111h-712v582z" />
    <glyph glyph-name="yen" unicode="&#xa5;" horiz-adv-x="656" 
d="M366 144v-145h-112v145h-103v38h103v67h-103v39h103v62l-243 361h140l158 -259l229 371h137l-309 -473v-62h99v-39h-99v-67h99v-38h-99z" />
    <glyph glyph-name="brokenbar" unicode="&#xa6;" horiz-adv-x="762" 
d="M769 0h-126l-260 544l-270 -544h-122l389 769z" />
    <glyph glyph-name="section" unicode="&#xa7;" horiz-adv-x="1012" 
d="M1024 0h-126l-260 544l-77 -157l196 -387h-123l-128 275l-127 -275h-125l194 391l-75 153l-265 -544h-122l383 769l134 -272l131 272z" />
    <glyph glyph-name="dieresis" unicode="&#xa8;" horiz-adv-x="358" 
d="M386 849c0 -24 -8.16699 -44 -24.5 -60s-36.166 -24 -59.499 -24c-24 0 -44 8 -60 24s-24 36 -24 60c0 23.333 8 42.833 24 58.5s36 23.5 60 23.5c23.333 0 43.166 -7.83301 59.499 -23.5s24.5 -35.167 24.5 -58.5zM140 849c0 -24 -8.33301 -44.001 -25 -60.001
s-36.667 -24 -60 -24c-24 0 -44 8 -60 24s-24 36 -24 60c0 23.333 8 42.833 24 58.5s36 23.5 60 23.5c12 0 23.167 -2.16699 33.5 -6.5s19.333 -10.166 27 -17.499s13.667 -16 18 -26s6.5 -20.667 6.5 -32z" />
    <glyph glyph-name="copyright" unicode="&#xa9;" horiz-adv-x="995" 
d="M714 279c-21.333 -31.333 -50.165 -55.501 -86.498 -72.501s-76.833 -25.5 -121.5 -25.5c-36.667 0 -71 7 -103 21s-59.833 33 -83.5 57s-42.334 51.833 -56.001 83.5s-20.5 65.167 -20.5 100.5c0 34.667 7 68 21 100s33 60 57 84s51.833 43.167 83.5 57.5
s65.5 21.5 101.5 21.5c44.667 0 85.167 -8.16699 121.5 -24.5s65.166 -40.5 86.499 -72.5l-68 -33c-28.667 40 -75.334 60 -140.001 60c-26.667 0 -51.667 -5.16699 -75 -15.5s-43.666 -24.333 -60.999 -42s-31 -38.167 -41 -61.5s-15 -48 -15 -74s5 -50.5 15 -73.5
s23.5 -43.167 40.5 -60.5s37.167 -31.166 60.5 -41.499s48.666 -15.5 75.999 -15.5c64.667 0 111.334 19.333 140.001 58zM61.001 447.999c0 -60.667 11.5 -117.667 34.5 -171s54.333 -99.833 94 -139.5s86 -71 139 -94s109.833 -34.5 170.5 -34.5s117.667 11.5 171 34.5
s100 54.333 140 94s71.667 86.167 95 139.5s35 110.333 35 171s-11.667 117.667 -35 171s-55 100 -95 140s-86.667 71.667 -140 95s-110.333 35 -171 35s-117.5 -11.667 -170.5 -35s-99.333 -55 -139 -95s-71 -86.667 -94 -140s-34.5 -110.333 -34.5 -171zM31.001 449.999
c0 64.667 12.167 125.5 36.5 182.5s57.5 106.5 99.5 148.5s91.333 75.167 148 99.5s117.334 36.5 182.001 36.5s125.334 -12.167 182.001 -36.5s106.167 -57.5 148.5 -99.5s75.666 -91.5 99.999 -148.5s36.5 -117.833 36.5 -182.5
c0 -65.333 -12.167 -126.166 -36.5 -182.499s-57.666 -105.5 -99.999 -147.5s-91.833 -75 -148.5 -99s-117.334 -36 -182.001 -36s-125.334 12 -182.001 36s-106 57 -148 99s-75.167 91.167 -99.5 147.5s-36.5 117.166 -36.5 182.499z" />
    <glyph glyph-name="guillemotleft" unicode="&#xab;" horiz-adv-x="809" 
d="M700 -9l-291 292l291 290l78 -78l-199 -198v-29l199 -198zM321 -9l-291 292l291 290l78 -78l-198 -198v-29l198 -198z" />
    <glyph glyph-name="plusminus" unicode="&#xb1;" horiz-adv-x="587" 
d="M215 540c0 -40 23.667 -59.999 71 -59.999h176v-111h-186c-86 0 -129 -42.667 -129 -128c0 -86.667 42 -130 126 -130h273v-111h-264c-165.333 0 -248 77 -248 231c0 118 43.667 188 131 210c-42 19.333 -63 56.666 -63 111.999c0 106.667 67 160 201 160h206v-111h-223
c-47.333 0 -71 -20.667 -71 -62z" />
    <glyph glyph-name="acute" unicode="&#xb4;" horiz-adv-x="165" 
d="M117 783h-83l59 148h115z" />
    <glyph glyph-name="paragraph" unicode="&#xb6;" horiz-adv-x="628" 
d="M148 219c0 -72 40.667 -108 122 -108h317v-111h-303c-162 -0 -243 72.333 -243 217c0 146.667 81 220 243 220h175v165h-388v111h495v-387h-296c-81.333 0 -122 -35.667 -122 -107z" />
    <glyph glyph-name="cedilla" unicode="&#xb8;" horiz-adv-x="193" 
d="M166 -131c0 -20.667 -3.83398 -38.332 -11.501 -52.999s-17.167 -27 -28.5 -37s-23.5 -17.333 -36.5 -22s-24.5 -7.33398 -34.5 -8.00098l-8 20c9.33301 2 17.833 5 25.5 9s13.167 10 16.5 18c-44.667 3.33301 -67 28 -67 74c0 23.333 6.83301 41.833 20.5 55.5
s30.834 20.5 51.501 20.5c48 0 72 -25.667 72 -77z" />
    <glyph glyph-name="guillemotright" unicode="&#xbb;" horiz-adv-x="829" 
d="M507 -9l-78 79l198 198v29l-198 198l78 78l291 -290zM108 -9l-78 79l198 198v29l-198 198l78 78l291 -290z" />
    <glyph glyph-name="questiondown" unicode="&#xbf;" horiz-adv-x="530" 
d="M286 628c0 24 8 44.167 24 60.5s35.667 24.5 59 24.5c24 0 44.167 -8.16699 60.5 -24.5s24.5 -36.5 24.5 -60.5c0 -23.333 -8.16699 -42.833 -24.5 -58.5s-36.5 -23.5 -60.5 -23.5c-23.333 0 -43 7.83301 -59 23.5s-24 35.167 -24 58.5zM425 477
c0 -141.333 -65.333 -212 -196 -212c-60 0 -90 -30.667 -90 -92c0 -54 32 -81 96 -81h280v-111h-266c-145.333 0 -218 63.333 -218 190c0 136 65.667 204 197 204c58.667 0 88 34 88 102h109z" />
    <glyph glyph-name="Agrave" unicode="&#xc0;" horiz-adv-x="757" 
d="M838 -140h-127l-129 252h-411l-54 -112h-127l383 769zM224 224h305l-152 320zM291 931h115l59 -150h-83z" />
    <glyph glyph-name="Aacute" unicode="&#xc1;" horiz-adv-x="757" 
d="M838 -140h-127l-129 252h-411l-54 -112h-127l383 769zM224 224h305l-152 320zM374 783h-83l59 148h115z" />
    <glyph glyph-name="Acircumflex" unicode="&#xc2;" horiz-adv-x="757" 
d="M838 -140h-127l-129 252h-411l-54 -112h-127l383 769zM224 224h305l-152 320zM378 898l-52 -105h-98l86 138h127l88 -138h-99z" />
    <glyph glyph-name="Atilde" unicode="&#xc3;" horiz-adv-x="757" 
d="M838 -140h-127l-129 252h-411l-54 -112h-127l383 769zM224 224h305l-152 320zM535 870c-16 -47.333 -47.668 -71.001 -95.001 -71.001c-11.333 0 -21.666 2.16699 -30.999 6.5s-18.333 9.33301 -27 15s-17.167 10.667 -25.5 15s-17.5 6.5 -27.5 6.5
c-10.667 0 -21 -3.66699 -31 -11s-20.333 -20.666 -31 -39.999l-45 45c12.667 28 27 48 43 60s34 18 54 18c15.333 0 28 -2.16699 38 -6.5s19 -9 27 -14s16 -9.66699 24 -14s17.667 -6.5 29 -6.5c24.667 0 44 17.333 58 52z" />
    <glyph glyph-name="Adieresis" unicode="&#xc4;" horiz-adv-x="757" 
d="M838 -140h-127l-129 252h-411l-54 -112h-127l383 769zM224 224h305l-152 320zM585 849c0 -24 -8.16699 -44 -24.5 -60s-36.166 -24 -59.499 -24c-24 0 -44 8 -60 24s-24 36 -24 60c0 23.333 8 42.833 24 58.5s36 23.5 60 23.5c23.333 0 43.166 -7.83301 59.499 -23.5
s24.5 -35.167 24.5 -58.5zM339 849c0 -24 -8.33301 -44.001 -25 -60.001s-36.667 -24 -60 -24c-24 0 -44 8 -60 24s-24 36 -24 60c0 23.333 8 42.833 24 58.5s36 23.5 60 23.5c12 0 23.167 -2.16699 33.5 -6.5s19.333 -10.166 27 -17.499s13.667 -16 18 -26
s6.5 -20.667 6.5 -32z" />
    <glyph glyph-name="Aring" unicode="&#xc5;" horiz-adv-x="757" 
d="M-10 0l374.001 750.001c-23.333 2 -42.333 10.833 -57 26.5s-22 35.834 -22 60.501c0 27.333 8.16699 49.833 24.5 67.5s37.166 26.5 62.499 26.5c12.667 0 24.5 -2.5 35.5 -7.5s20.5 -11.667 28.5 -20s14.333 -18.333 19 -30s7 -23.834 7 -36.501
c0 -24 -7.33301 -43.833 -22 -59.5s-33.667 -24.834 -57 -27.501l455 -890h-127l-129 252h-411l-54 -112h-127zM224.001 224.001h305l-152 320zM372.001 885.001c-11.333 0 -20.833 -4.16699 -28.5 -12.5s-11.5 -19.5 -11.5 -33.5c0 -12.667 3.83301 -23.167 11.5 -31.5
s17.167 -12.5 28.5 -12.5c12.667 0 23.167 4.16699 31.5 12.5s12.5 18.833 12.5 31.5c0 14 -4.5 25.167 -13.5 33.5s-19.167 12.5 -30.5 12.5z" />
    <glyph glyph-name="AE" unicode="&#xc6;" horiz-adv-x="998" 
d="M867 713v-111h-272v-122h272v-111h-272v-258h375v-111h-486v112h-312l-54 -112h-127l358 713h518zM224 224h260v378h-64z" />
    <glyph glyph-name="Ccedilla" unicode="&#xc7;" horiz-adv-x="730" 
d="M579 174c6.66699 6.66699 12.832 13.499 18.499 20.499s11.167 14.5 16.5 22.5l96 -56c-36 -54 -80.667 -96.5 -134 -127.5s-112.333 -46.5 -177 -46.5c-50.667 0 -98.334 9.83301 -143.001 29.5s-83.834 46.167 -117.501 79.5s-60.334 72.5 -80.001 117.5
s-29.5 92.5 -29.5 142.5s9.83301 97.5 29.5 142.5s46.334 84.167 80.001 117.5s72.834 59.833 117.501 79.5s92.334 29.5 143.001 29.5c30 0 60.833 -3.83301 92.5 -11.5s60.167 -19.834 85.5 -36.501l-61 -92l-19 9c-15.333 7.33301 -31.166 12.333 -47.499 15
s-33.166 4.33398 -50.499 5.00098c-35.333 0 -68.666 -6.83301 -99.999 -20.5s-58.833 -32.334 -82.5 -56.001s-42.334 -51.167 -56.001 -82.5s-20.5 -64.333 -20.5 -99c0 -35.333 6.83301 -68.666 20.5 -99.999s32.334 -58.666 56.001 -81.999s51.167 -41.833 82.5 -55.5
s64.666 -20.5 99.999 -20.5c36 0 69.167 6.83301 99.5 20.5s57.166 32.167 80.499 55.5zM464.998 -131.001c0 -20.667 -3.83398 -38.332 -11.501 -52.999s-17.167 -27 -28.5 -37s-23.5 -17.333 -36.5 -22s-24.5 -7.33398 -34.5 -8.00098l-8 20c9.33301 2 17.833 5 25.5 9
s13.167 10 16.5 18c-44.667 3.33301 -67 28 -67 74c0 23.333 6.83301 41.833 20.5 55.5s30.834 20.5 51.501 20.5c48 0 72 -25.667 72 -77z" />
    <glyph glyph-name="Egrave" unicode="&#xc8;" horiz-adv-x="519" 
d="M153 111h325v-111h-437v713h384v-111h-272v-122h272v-111h-272v-258zM173 931h115l59 -150h-83z" />
    <glyph glyph-name="Eacute" unicode="&#xc9;" horiz-adv-x="519" 
d="M153 111h325v-111h-437v713h384v-111h-272v-122h272v-111h-272v-258zM256 783h-83l59 148h115z" />
    <glyph glyph-name="Ecircumflex" unicode="&#xca;" horiz-adv-x="519" 
d="M153 111h325v-111h-437v713h384v-111h-272v-122h272v-111h-272v-258zM259 898l-52 -105h-98l86 138h127l88 -138h-99z" />
    <glyph glyph-name="Edieresis" unicode="&#xcb;" horiz-adv-x="519" 
d="M153 111h325v-111h-437v713h384v-111h-272v-122h272v-111h-272v-258zM466 849c0 -24 -8.16699 -44 -24.5 -60s-36.166 -24 -59.499 -24c-24 0 -44 8 -60 24s-24 36 -24 60c0 23.333 8 42.833 24 58.5s36 23.5 60 23.5c23.333 0 43.166 -7.83301 59.499 -23.5
s24.5 -35.167 24.5 -58.5zM220 849c0 -24 -8.33301 -44.001 -25 -60.001s-36.667 -24 -60 -24c-24 0 -44 8 -60 24s-24 36 -24 60c0 23.333 8 42.833 24 58.5s36 23.5 60 23.5c12 0 23.167 -2.16699 33.5 -6.5s19.333 -10.166 27 -17.499s13.667 -16 18 -26
s6.5 -20.667 6.5 -32z" />
    <glyph glyph-name="Igrave" unicode="&#xcc;" horiz-adv-x="229" 
d="M72 0v713h111v-713h-111zM41 931h115l59 -150h-83z" />
    <glyph glyph-name="Iacute" unicode="&#xcd;" horiz-adv-x="225" 
d="M45 0v713h111v-713h-111zM101 783h-83l59 148h115z" />
    <glyph glyph-name="Icircumflex" unicode="&#xce;" horiz-adv-x="262" 
d="M73 0v713h111v-713h-111zM132 898l-52 -105h-98l86 138h127l88 -138h-99z" />
    <glyph glyph-name="Idieresis" unicode="&#xcf;" horiz-adv-x="400" 
d="M142 0v713h111v-713h-111zM407 849c0 -24 -8.16699 -44 -24.5 -60s-36.166 -24 -59.499 -24c-24 0 -44 8 -60 24s-24 36 -24 60c0 23.333 8 42.833 24 58.5s36 23.5 60 23.5c23.333 0 43.166 -7.83301 59.499 -23.5s24.5 -35.167 24.5 -58.5zM161 849
c0 -24 -8.33301 -44.001 -25 -60.001s-36.667 -24 -60 -24c-24 0 -44 8 -60 24s-24 36 -24 60c0 23.333 8 42.833 24 58.5s36 23.5 60 23.5c12 0 23.167 -2.16699 33.5 -6.5s19.333 -10.166 27 -17.499s13.667 -16 18 -26s6.5 -20.667 6.5 -32z" />
    <glyph glyph-name="Eth" unicode="&#xd0;" horiz-adv-x="711" 
d="M7 297v110h64v306h256c234 0 351 -114.667 351 -344c0 -246 -116 -369 -348 -369h-259v297h-64zM565 369c0 155.333 -69 233 -207 233h-176v-195h112v-110h-112v-185h176c138 0 207 85.667 207 257z" />
    <glyph glyph-name="Ntilde" unicode="&#xd1;" horiz-adv-x="612" 
d="M500 0l-357 478v-478h-111v713h68l358 -478v587h108v-822h-66zM429 870c-16 -47.333 -47.668 -71.001 -95.001 -71.001c-11.333 0 -21.666 2.16699 -30.999 6.5s-18.333 9.33301 -27 15s-17.167 10.667 -25.5 15s-17.5 6.5 -27.5 6.5c-10.667 0 -21 -3.66699 -31 -11
s-20.333 -20.666 -31 -39.999l-45 45c12.667 28 27 48 43 60s34 18 54 18c15.333 0 28 -2.16699 38 -6.5s19 -9 27 -14s16 -9.66699 24 -14s17.667 -6.5 29 -6.5c24.667 0 44 17.333 58 52z" />
    <glyph glyph-name="Ograve" unicode="&#xd2;" 
d="M657 356c0 34.667 -6.83301 67.667 -20.5 99s-32.334 58.833 -56.001 82.5s-51.167 42.334 -82.5 56.001s-64.333 20.5 -99 20.5c-35.333 0 -68.666 -6.83301 -99.999 -20.5s-58.666 -32.334 -81.999 -56.001s-41.833 -51.167 -55.5 -82.5s-20.5 -64.333 -20.5 -99
c0 -35.333 6.83301 -68.666 20.5 -99.999s32.167 -58.666 55.5 -81.999s50.666 -41.833 81.999 -55.5s64.666 -20.5 99.999 -20.5c34.667 0 67.667 6.83301 99 20.5s58.833 32.167 82.5 55.5s42.334 50.666 56.001 81.999s20.5 64.666 20.5 99.999zM768 356
c0 -50 -9.83203 -97.3311 -29.499 -141.998s-46.334 -83.834 -80.001 -117.501s-72.834 -60.334 -117.501 -80.001s-92 -29.5 -142 -29.5s-97.5 9.83301 -142.5 29.5s-84.167 46.167 -117.5 79.5s-59.833 72.5 -79.5 117.5s-29.5 92.5 -29.5 142.5s9.83301 97.5 29.5 142.5
s46.167 84.167 79.5 117.5s72.5 59.833 117.5 79.5s92.5 29.5 142.5 29.5c50.667 0 98.334 -9.83301 143.001 -29.5s83.667 -46.167 117 -79.5s59.833 -72.5 79.5 -117.5s29.5 -92.5 29.5 -142.5zM313.001 931.002h115l59 -150h-83z" />
    <glyph glyph-name="Oacute" unicode="&#xd3;" 
d="M657 356c0 34.667 -6.83301 67.667 -20.5 99s-32.334 58.833 -56.001 82.5s-51.167 42.334 -82.5 56.001s-64.333 20.5 -99 20.5c-35.333 0 -68.666 -6.83301 -99.999 -20.5s-58.666 -32.334 -81.999 -56.001s-41.833 -51.167 -55.5 -82.5s-20.5 -64.333 -20.5 -99
c0 -35.333 6.83301 -68.666 20.5 -99.999s32.167 -58.666 55.5 -81.999s50.666 -41.833 81.999 -55.5s64.666 -20.5 99.999 -20.5c34.667 0 67.667 6.83301 99 20.5s58.833 32.167 82.5 55.5s42.334 50.666 56.001 81.999s20.5 64.666 20.5 99.999zM768 356
c0 -50 -9.83203 -97.3311 -29.499 -141.998s-46.334 -83.834 -80.001 -117.501s-72.834 -60.334 -117.501 -80.001s-92 -29.5 -142 -29.5s-97.5 9.83301 -142.5 29.5s-84.167 46.167 -117.5 79.5s-59.833 72.5 -79.5 117.5s-29.5 92.5 -29.5 142.5s9.83301 97.5 29.5 142.5
s46.167 84.167 79.5 117.5s72.5 59.833 117.5 79.5s92.5 29.5 142.5 29.5c50.667 0 98.334 -9.83301 143.001 -29.5s83.667 -46.167 117 -79.5s59.833 -72.5 79.5 -117.5s29.5 -92.5 29.5 -142.5zM395.001 783.002h-83l59 148h115z" />
    <glyph glyph-name="Ocircumflex" unicode="&#xd4;" 
d="M657 356c0 34.667 -6.83301 67.667 -20.5 99s-32.334 58.833 -56.001 82.5s-51.167 42.334 -82.5 56.001s-64.333 20.5 -99 20.5c-35.333 0 -68.666 -6.83301 -99.999 -20.5s-58.666 -32.334 -81.999 -56.001s-41.833 -51.167 -55.5 -82.5s-20.5 -64.333 -20.5 -99
c0 -35.333 6.83301 -68.666 20.5 -99.999s32.167 -58.666 55.5 -81.999s50.666 -41.833 81.999 -55.5s64.666 -20.5 99.999 -20.5c34.667 0 67.667 6.83301 99 20.5s58.833 32.167 82.5 55.5s42.334 50.666 56.001 81.999s20.5 64.666 20.5 99.999zM768 356
c0 -50 -9.83203 -97.3311 -29.499 -141.998s-46.334 -83.834 -80.001 -117.501s-72.834 -60.334 -117.501 -80.001s-92 -29.5 -142 -29.5s-97.5 9.83301 -142.5 29.5s-84.167 46.167 -117.5 79.5s-59.833 72.5 -79.5 117.5s-29.5 92.5 -29.5 142.5s9.83301 97.5 29.5 142.5
s46.167 84.167 79.5 117.5s72.5 59.833 117.5 79.5s92.5 29.5 142.5 29.5c50.667 0 98.334 -9.83301 143.001 -29.5s83.667 -46.167 117 -79.5s59.833 -72.5 79.5 -117.5s29.5 -92.5 29.5 -142.5zM399.001 898.002l-52 -105h-98l86 138h127l88 -138h-99z" />
    <glyph glyph-name="Otilde" unicode="&#xd5;" 
d="M657 356c0 34.667 -6.83301 67.667 -20.5 99s-32.334 58.833 -56.001 82.5s-51.167 42.334 -82.5 56.001s-64.333 20.5 -99 20.5c-35.333 0 -68.666 -6.83301 -99.999 -20.5s-58.666 -32.334 -81.999 -56.001s-41.833 -51.167 -55.5 -82.5s-20.5 -64.333 -20.5 -99
c0 -35.333 6.83301 -68.666 20.5 -99.999s32.167 -58.666 55.5 -81.999s50.666 -41.833 81.999 -55.5s64.666 -20.5 99.999 -20.5c34.667 0 67.667 6.83301 99 20.5s58.833 32.167 82.5 55.5s42.334 50.666 56.001 81.999s20.5 64.666 20.5 99.999zM768 356
c0 -50 -9.83203 -97.3311 -29.499 -141.998s-46.334 -83.834 -80.001 -117.501s-72.834 -60.334 -117.501 -80.001s-92 -29.5 -142 -29.5s-97.5 9.83301 -142.5 29.5s-84.167 46.167 -117.5 79.5s-59.833 72.5 -79.5 117.5s-29.5 92.5 -29.5 142.5s9.83301 97.5 29.5 142.5
s46.167 84.167 79.5 117.5s72.5 59.833 117.5 79.5s92.5 29.5 142.5 29.5c50.667 0 98.334 -9.83301 143.001 -29.5s83.667 -46.167 117 -79.5s59.833 -72.5 79.5 -117.5s29.5 -92.5 29.5 -142.5zM556.001 870.002c-16 -47.333 -47.668 -71.001 -95.001 -71.001
c-11.333 0 -21.666 2.16699 -30.999 6.5s-18.333 9.33301 -27 15s-17.167 10.667 -25.5 15s-17.5 6.5 -27.5 6.5c-10.667 0 -21 -3.66699 -31 -11s-20.333 -20.666 -31 -39.999l-45 45c12.667 28 27 48 43 60s34 18 54 18c15.333 0 28 -2.16699 38 -6.5s19 -9 27 -14
s16 -9.66699 24 -14s17.667 -6.5 29 -6.5c24.667 0 44 17.333 58 52z" />
    <glyph glyph-name="Odieresis" unicode="&#xd6;" 
d="M657 356c0 34.667 -6.83301 67.667 -20.5 99s-32.334 58.833 -56.001 82.5s-51.167 42.334 -82.5 56.001s-64.333 20.5 -99 20.5c-35.333 0 -68.666 -6.83301 -99.999 -20.5s-58.666 -32.334 -81.999 -56.001s-41.833 -51.167 -55.5 -82.5s-20.5 -64.333 -20.5 -99
c0 -35.333 6.83301 -68.666 20.5 -99.999s32.167 -58.666 55.5 -81.999s50.666 -41.833 81.999 -55.5s64.666 -20.5 99.999 -20.5c34.667 0 67.667 6.83301 99 20.5s58.833 32.167 82.5 55.5s42.334 50.666 56.001 81.999s20.5 64.666 20.5 99.999zM768 356
c0 -50 -9.83203 -97.3311 -29.499 -141.998s-46.334 -83.834 -80.001 -117.501s-72.834 -60.334 -117.501 -80.001s-92 -29.5 -142 -29.5s-97.5 9.83301 -142.5 29.5s-84.167 46.167 -117.5 79.5s-59.833 72.5 -79.5 117.5s-29.5 92.5 -29.5 142.5s9.83301 97.5 29.5 142.5
s46.167 84.167 79.5 117.5s72.5 59.833 117.5 79.5s92.5 29.5 142.5 29.5c50.667 0 98.334 -9.83301 143.001 -29.5s83.667 -46.167 117 -79.5s59.833 -72.5 79.5 -117.5s29.5 -92.5 29.5 -142.5zM606.001 849.002c0 -24 -8.16699 -44 -24.5 -60s-36.166 -24 -59.499 -24
c-24 0 -44 8 -60 24s-24 36 -24 60c0 23.333 8 42.833 24 58.5s36 23.5 60 23.5c23.333 0 43.166 -7.83301 59.499 -23.5s24.5 -35.167 24.5 -58.5zM360.001 849.002c0 -24 -8.33301 -44.001 -25 -60.001s-36.667 -24 -60 -24c-24 0 -44 8 -60 24s-24 36 -24 60
c0 23.333 8 42.833 24 58.5s36 23.5 60 23.5c12 0 23.167 -2.16699 33.5 -6.5s19.333 -10.166 27 -17.499s13.667 -16 18 -26s6.5 -20.667 6.5 -32z" />
    <glyph glyph-name="Oslash" unicode="&#xd8;" 
d="M608 658c48 -34 86.6689 -77.166 116.002 -129.499s44 -109.833 44 -172.5c0 -50 -9.83301 -97.333 -29.5 -142s-46.334 -83.834 -80.001 -117.501s-72.834 -60.334 -117.501 -80.001s-92 -29.5 -142 -29.5c-27.333 0 -53.833 3 -79.5 9s-50.167 14.333 -73.5 25l-11 -21
h-75l30 53c-48 34 -86.667 77.333 -116 130s-44 110.334 -44 173.001c0 50 9.83301 97.5 29.5 142.5s46.167 84.167 79.5 117.5s72.5 59.833 117.5 79.5s92.5 29.5 142.5 29.5c54 0 104.667 -11.333 152 -34l13 22h75zM141.002 356.001
c0 -42 9.16504 -80.999 27.498 -116.999s43.5 -66 75.5 -90l253 445c-32 13.333 -64.667 20 -98 20c-35.333 0 -68.666 -6.83301 -99.999 -20.5s-58.666 -32.334 -81.999 -56.001s-41.833 -51.167 -55.5 -82.5s-20.5 -64.333 -20.5 -99zM657 356.002
c0 41.333 -9.50098 80.002 -28.501 116.002s-44.167 65.667 -75.5 89l-252 -444c31.333 -12.667 64 -19 98 -19c34.667 0 67.667 6.83301 99 20.5s58.833 32.167 82.5 55.5s42.334 50.666 56.001 81.999s20.5 64.666 20.5 99.999z" />
    <glyph glyph-name="Ugrave" unicode="&#xd9;" horiz-adv-x="671" 
d="M345 109c117.333 0 176 80.333 176 241v363h110v-359c0 -239.333 -95.333 -359 -286 -359c-204.667 0 -307 119 -307 357v361h112v-363c0 -160.667 65 -241 195 -241zM249 931h115l59 -150h-83z" />
    <glyph glyph-name="Uacute" unicode="&#xda;" horiz-adv-x="671" 
d="M345 109c117.333 0 176 80.333 176 241v363h110v-359c0 -239.333 -95.333 -359 -286 -359c-204.667 0 -307 119 -307 357v361h112v-363c0 -160.667 65 -241 195 -241zM331 783h-83l59 148h115z" />
    <glyph glyph-name="Ucircumflex" unicode="&#xdb;" horiz-adv-x="671" 
d="M345 109c117.333 0 176 80.333 176 241v363h110v-359c0 -239.333 -95.333 -359 -286 -359c-204.667 0 -307 119 -307 357v361h112v-363c0 -160.667 65 -241 195 -241zM335 898l-52 -105h-98l86 138h127l88 -138h-99z" />
    <glyph glyph-name="Udieresis" unicode="&#xdc;" horiz-adv-x="671" 
d="M345 109c117.333 0 176 80.333 176 241v363h110v-359c0 -239.333 -95.333 -359 -286 -359c-204.667 0 -307 119 -307 357v361h112v-363c0 -160.667 65 -241 195 -241zM542 849c0 -24 -8.16699 -44 -24.5 -60s-36.166 -24 -59.499 -24c-24 0 -44 8 -60 24s-24 36 -24 60
c0 23.333 8 42.833 24 58.5s36 23.5 60 23.5c23.333 0 43.166 -7.83301 59.499 -23.5s24.5 -35.167 24.5 -58.5zM296 849c0 -24 -8.33301 -44.001 -25 -60.001s-36.667 -24 -60 -24c-24 0 -44 8 -60 24s-24 36 -24 60c0 23.333 8 42.833 24 58.5s36 23.5 60 23.5
c12 0 23.167 -2.16699 33.5 -6.5s19.333 -10.166 27 -17.499s13.667 -16 18 -26s6.5 -20.667 6.5 -32z" />
    <glyph glyph-name="Yacute" unicode="&#xdd;" horiz-adv-x="578" 
d="M237 352l-243 361h140l158 -259l230 368h129l-302 -470v-352h-112v352zM284 783h-83l59 148h115z" />
    <glyph glyph-name="Thorn" unicode="&#xde;" horiz-adv-x="659" 
d="M156 0h-111v713h111v-116h230c173.333 0 260 -80.333 260 -241c0 -164.667 -86.667 -247 -260 -247h-230v-109zM539 355c0 87.333 -46.333 131 -139 131h-244v-266h244c92.667 0 139 45 139 135z" />
    <glyph glyph-name="germandbls" unicode="&#xdf;" horiz-adv-x="1188" 
d="M457 217c0 67.333 -40.667 101 -122 101h-78c-146 0 -219 68.333 -219 205c0 126.667 72.667 190 218 190h211v-111h-225c-63.333 0 -95 -27 -95 -81c0 -61.333 31.667 -92 95 -92h79c162.667 0 244 -71.333 244 -214c0 -143.333 -81 -215 -243 -215h-277v111h290
c81.333 0 122 35.333 122 106zM1051 217c0 67.333 -40.667 101 -122 101h-78c-146 0 -219 68.333 -219 205c0 126.667 72.667 190 218 190h211v-111h-225c-63.333 0 -95 -27 -95 -81c0 -61.333 31.667 -92 95 -92h79c162.667 0 244 -71.333 244 -214
c0 -143.333 -81 -215 -243 -215h-277v111h290c81.333 0 122 35.333 122 106z" />
    <glyph glyph-name="agrave" unicode="&#xe0;" horiz-adv-x="758" 
d="M768 0h-127l-58 112h-411l-54 -112h-127l382 769zM224 224h306l-152 320zM292 931h115l59 -150h-83z" />
    <glyph glyph-name="aacute" unicode="&#xe1;" horiz-adv-x="758" 
d="M768 0h-127l-58 112h-411l-54 -112h-127l382 769zM224 224h306l-152 320zM375 783h-83l59 148h115z" />
    <glyph glyph-name="acircumflex" unicode="&#xe2;" horiz-adv-x="758" 
d="M768 0h-127l-58 112h-411l-54 -112h-127l382 769zM224 224h306l-152 320zM379 898l-52 -105h-98l86 138h127l88 -138h-99z" />
    <glyph glyph-name="atilde" unicode="&#xe3;" horiz-adv-x="758" 
d="M768 0h-127l-58 112h-411l-54 -112h-127l382 769zM224 224h306l-152 320zM535 870c-16 -47.333 -47.668 -71.001 -95.001 -71.001c-11.333 0 -21.666 2.16699 -30.999 6.5s-18.333 9.33301 -27 15s-17.167 10.667 -25.5 15s-17.5 6.5 -27.5 6.5
c-10.667 0 -21 -3.66699 -31 -11s-20.333 -20.666 -31 -39.999l-45 45c12.667 28 27 48 43 60s34 18 54 18c15.333 0 28 -2.16699 38 -6.5s19 -9 27 -14s16 -9.66699 24 -14s17.667 -6.5 29 -6.5c24.667 0 44 17.333 58 52z" />
    <glyph glyph-name="adieresis" unicode="&#xe4;" horiz-adv-x="758" 
d="M768 0h-127l-58 112h-411l-54 -112h-127l382 769zM224 224h306l-152 320zM585 849c0 -24 -8.16699 -44 -24.5 -60s-36.166 -24 -59.499 -24c-24 0 -44 8 -60 24s-24 36 -24 60c0 23.333 8 42.833 24 58.5s36 23.5 60 23.5c23.333 0 43.166 -7.83301 59.499 -23.5
s24.5 -35.167 24.5 -58.5zM339 849c0 -24 -8.33301 -44.001 -25 -60.001s-36.667 -24 -60 -24c-24 0 -44 8 -60 24s-24 36 -24 60c0 23.333 8 42.833 24 58.5s36 23.5 60 23.5c12 0 23.167 -2.16699 33.5 -6.5s19.333 -10.166 27 -17.499s13.667 -16 18 -26
s6.5 -20.667 6.5 -32z" />
    <glyph glyph-name="aring" unicode="&#xe5;" horiz-adv-x="758" 
d="M-9 0l373.001 750.001c-23.333 2 -42.333 10.833 -57 26.5s-22 35.834 -22 60.501c0 27.333 8.16699 49.833 24.5 67.5s37.166 26.5 62.499 26.5c12.667 0 24.5 -2.5 35.5 -7.5s20.5 -11.667 28.5 -20s14.333 -18.333 19 -30s7 -23.834 7 -36.501
c0 -24 -7.33301 -43.833 -22 -59.5s-33.667 -24.834 -57 -27.501l385 -750h-127l-58 112h-411l-54 -112h-127zM224.001 224.001h306l-152 320zM372.001 885.001c-11.333 0 -20.833 -4.16699 -28.5 -12.5s-11.5 -19.5 -11.5 -33.5c0 -12.667 3.83301 -23.167 11.5 -31.5
s17.167 -12.5 28.5 -12.5c12.667 0 23.167 4.16699 31.5 12.5s12.5 18.833 12.5 31.5c0 14 -4.5 25.167 -13.5 33.5s-19.167 12.5 -30.5 12.5z" />
    <glyph glyph-name="ae" unicode="&#xe6;" horiz-adv-x="998" 
d="M867 713v-111h-272v-122h272v-111h-272v-258h375v-111h-486v112h-312l-54 -112h-127l358 713h518zM224 224h260v378h-64z" />
    <glyph glyph-name="ccedilla" unicode="&#xe7;" horiz-adv-x="730" 
d="M465 -131c0 -20.667 -3.83398 -38.332 -11.501 -52.999s-17.167 -27 -28.5 -37s-23.5 -17.333 -36.5 -22s-24.5 -7.33398 -34.5 -8.00098l-8 20c9.33301 2 17.833 5 25.5 9s13.167 10 16.5 18c-44.667 3.33301 -67 28 -67 74c0 23.333 6.83301 41.833 20.5 55.5
s30.834 20.5 51.501 20.5c48 0 72 -25.667 72 -77zM578.999 174.002c6.66699 6.66699 12.832 13.499 18.499 20.499s11.167 14.5 16.5 22.5l96 -56c-36 -54 -80.667 -96.5 -134 -127.5s-112.333 -46.5 -177 -46.5c-50.667 0 -98.334 9.83301 -143.001 29.5
s-83.834 46.167 -117.501 79.5s-60.334 72.5 -80.001 117.5s-29.5 92.5 -29.5 142.5s9.83301 97.5 29.5 142.5s46.334 84.167 80.001 117.5s72.834 59.833 117.501 79.5s92.334 29.5 143.001 29.5c30 0 60.833 -3.83301 92.5 -11.5s60.167 -19.834 85.5 -36.501l-61 -92
l-19 9c-15.333 7.33301 -31.166 12.333 -47.499 15s-33.166 4.33398 -50.499 5.00098c-35.333 0 -68.666 -6.83301 -99.999 -20.5s-58.833 -32.334 -82.5 -56.001s-42.334 -51.167 -56.001 -82.5s-20.5 -64.333 -20.5 -99c0 -35.333 6.83301 -68.666 20.5 -99.999
s32.334 -58.666 56.001 -81.999s51.167 -41.833 82.5 -55.5s64.666 -20.5 99.999 -20.5c36 0 69.167 6.83301 99.5 20.5s57.166 32.167 80.499 55.5z" />
    <glyph glyph-name="egrave" unicode="&#xe8;" horiz-adv-x="557" 
d="M45 0v713h383v-111h-272v-122h272v-111h-272v-258h374v-111h-485zM191 931h115l59 -150h-83z" />
    <glyph glyph-name="eacute" unicode="&#xe9;" horiz-adv-x="557" 
d="M45 0v713h383v-111h-272v-122h272v-111h-272v-258h374v-111h-485zM274 783h-83l59 148h115z" />
    <glyph glyph-name="ecircumflex" unicode="&#xea;" horiz-adv-x="557" 
d="M45 0v713h383v-111h-272v-122h272v-111h-272v-258h374v-111h-485zM277 898l-52 -105h-98l86 138h127l88 -138h-99z" />
    <glyph glyph-name="edieresis" unicode="&#xeb;" horiz-adv-x="557" 
d="M45 0v713h383v-111h-272v-122h272v-111h-272v-258h374v-111h-485zM485 849c0 -24 -8.16699 -44 -24.5 -60s-36.166 -24 -59.499 -24c-24 0 -44 8 -60 24s-24 36 -24 60c0 23.333 8 42.833 24 58.5s36 23.5 60 23.5c23.333 0 43.166 -7.83301 59.499 -23.5
s24.5 -35.167 24.5 -58.5zM239 849c0 -24 -8.33301 -44.001 -25 -60.001s-36.667 -24 -60 -24c-24 0 -44 8 -60 24s-24 36 -24 60c0 23.333 8 42.833 24 58.5s36 23.5 60 23.5c12 0 23.167 -2.16699 33.5 -6.5s19.333 -10.166 27 -17.499s13.667 -16 18 -26
s6.5 -20.667 6.5 -32z" />
    <glyph glyph-name="igrave" unicode="&#xec;" horiz-adv-x="229" 
d="M72 0v713h111v-713h-111zM41 931h115l59 -150h-83z" />
    <glyph glyph-name="iacute" unicode="&#xed;" horiz-adv-x="225" 
d="M45 0v713h111v-713h-111zM101 783h-83l59 148h115z" />
    <glyph glyph-name="icircumflex" unicode="&#xee;" horiz-adv-x="262" 
d="M73 0v713h111v-713h-111zM132 898l-52 -105h-98l86 138h127l88 -138h-99z" />
    <glyph glyph-name="idieresis" unicode="&#xef;" horiz-adv-x="400" 
d="M142 0v713h111v-713h-111zM407 849c0 -24 -8.16699 -44 -24.5 -60s-36.166 -24 -59.499 -24c-24 0 -44 8 -60 24s-24 36 -24 60c0 23.333 8 42.833 24 58.5s36 23.5 60 23.5c23.333 0 43.166 -7.83301 59.499 -23.5s24.5 -35.167 24.5 -58.5zM161 849
c0 -24 -8.33301 -44.001 -25 -60.001s-36.667 -24 -60 -24c-24 0 -44 8 -60 24s-24 36 -24 60c0 23.333 8 42.833 24 58.5s36 23.5 60 23.5c12 0 23.167 -2.16699 33.5 -6.5s19.333 -10.166 27 -17.499s13.667 -16 18 -26s6.5 -20.667 6.5 -32z" />
    <glyph glyph-name="eth" unicode="&#xf0;" horiz-adv-x="711" 
d="M7 297v110h64v306h256c234 0 351 -114.667 351 -344c0 -246 -116 -369 -348 -369h-259v297h-64zM565 369c0 155.333 -69 233 -207 233h-176v-195h112v-110h-112v-185h176c138 0 207 85.667 207 257z" />
    <glyph glyph-name="ntilde" unicode="&#xf1;" horiz-adv-x="624" 
d="M155 478v-478h-110v713h68l356 -478v478h109v-713h-66zM468 870c-16 -47.333 -47.668 -71.001 -95.001 -71.001c-11.333 0 -21.666 2.16699 -30.999 6.5s-18.333 9.33301 -27 15s-17.167 10.667 -25.5 15s-17.5 6.5 -27.5 6.5c-10.667 0 -21 -3.66699 -31 -11
s-20.333 -20.666 -31 -39.999l-45 45c12.667 28 27 48 43 60s34 18 54 18c15.333 0 28 -2.16699 38 -6.5s19 -9 27 -14s16 -9.66699 24 -14s17.667 -6.5 29 -6.5c24.667 0 44 17.333 58 52z" />
    <glyph glyph-name="ograve" unicode="&#xf2;" 
d="M657 356c0 34.667 -6.83301 67.667 -20.5 99s-32.334 58.833 -56.001 82.5s-51.167 42.334 -82.5 56.001s-64.333 20.5 -99 20.5c-35.333 0 -68.666 -6.83301 -99.999 -20.5s-58.666 -32.334 -81.999 -56.001s-41.833 -51.167 -55.5 -82.5s-20.5 -64.333 -20.5 -99
c0 -35.333 6.83301 -68.666 20.5 -99.999s32.167 -58.666 55.5 -81.999s50.666 -41.833 81.999 -55.5s64.666 -20.5 99.999 -20.5c34.667 0 67.667 6.83301 99 20.5s58.833 32.167 82.5 55.5s42.334 50.666 56.001 81.999s20.5 64.666 20.5 99.999zM768 356
c0 -50 -9.83203 -97.3311 -29.499 -141.998s-46.334 -83.834 -80.001 -117.501s-72.834 -60.334 -117.501 -80.001s-92 -29.5 -142 -29.5s-97.5 9.83301 -142.5 29.5s-84.167 46.167 -117.5 79.5s-59.833 72.5 -79.5 117.5s-29.5 92.5 -29.5 142.5s9.83301 97.5 29.5 142.5
s46.167 84.167 79.5 117.5s72.5 59.833 117.5 79.5s92.5 29.5 142.5 29.5c50.667 0 98.334 -9.83301 143.001 -29.5s83.667 -46.167 117 -79.5s59.833 -72.5 79.5 -117.5s29.5 -92.5 29.5 -142.5zM313.001 931.002h115l59 -150h-83z" />
    <glyph glyph-name="oacute" unicode="&#xf3;" 
d="M657 356c0 34.667 -6.83301 67.667 -20.5 99s-32.334 58.833 -56.001 82.5s-51.167 42.334 -82.5 56.001s-64.333 20.5 -99 20.5c-35.333 0 -68.666 -6.83301 -99.999 -20.5s-58.666 -32.334 -81.999 -56.001s-41.833 -51.167 -55.5 -82.5s-20.5 -64.333 -20.5 -99
c0 -35.333 6.83301 -68.666 20.5 -99.999s32.167 -58.666 55.5 -81.999s50.666 -41.833 81.999 -55.5s64.666 -20.5 99.999 -20.5c34.667 0 67.667 6.83301 99 20.5s58.833 32.167 82.5 55.5s42.334 50.666 56.001 81.999s20.5 64.666 20.5 99.999zM768 356
c0 -50 -9.83203 -97.3311 -29.499 -141.998s-46.334 -83.834 -80.001 -117.501s-72.834 -60.334 -117.501 -80.001s-92 -29.5 -142 -29.5s-97.5 9.83301 -142.5 29.5s-84.167 46.167 -117.5 79.5s-59.833 72.5 -79.5 117.5s-29.5 92.5 -29.5 142.5s9.83301 97.5 29.5 142.5
s46.167 84.167 79.5 117.5s72.5 59.833 117.5 79.5s92.5 29.5 142.5 29.5c50.667 0 98.334 -9.83301 143.001 -29.5s83.667 -46.167 117 -79.5s59.833 -72.5 79.5 -117.5s29.5 -92.5 29.5 -142.5zM395.001 783.002h-83l59 148h115z" />
    <glyph glyph-name="ocircumflex" unicode="&#xf4;" 
d="M657 356c0 34.667 -6.83301 67.667 -20.5 99s-32.334 58.833 -56.001 82.5s-51.167 42.334 -82.5 56.001s-64.333 20.5 -99 20.5c-35.333 0 -68.666 -6.83301 -99.999 -20.5s-58.666 -32.334 -81.999 -56.001s-41.833 -51.167 -55.5 -82.5s-20.5 -64.333 -20.5 -99
c0 -35.333 6.83301 -68.666 20.5 -99.999s32.167 -58.666 55.5 -81.999s50.666 -41.833 81.999 -55.5s64.666 -20.5 99.999 -20.5c34.667 0 67.667 6.83301 99 20.5s58.833 32.167 82.5 55.5s42.334 50.666 56.001 81.999s20.5 64.666 20.5 99.999zM768 356
c0 -50 -9.83203 -97.3311 -29.499 -141.998s-46.334 -83.834 -80.001 -117.501s-72.834 -60.334 -117.501 -80.001s-92 -29.5 -142 -29.5s-97.5 9.83301 -142.5 29.5s-84.167 46.167 -117.5 79.5s-59.833 72.5 -79.5 117.5s-29.5 92.5 -29.5 142.5s9.83301 97.5 29.5 142.5
s46.167 84.167 79.5 117.5s72.5 59.833 117.5 79.5s92.5 29.5 142.5 29.5c50.667 0 98.334 -9.83301 143.001 -29.5s83.667 -46.167 117 -79.5s59.833 -72.5 79.5 -117.5s29.5 -92.5 29.5 -142.5zM399.001 898.002l-52 -105h-98l86 138h127l88 -138h-99z" />
    <glyph glyph-name="otilde" unicode="&#xf5;" 
d="M657 356c0 34.667 -6.83301 67.667 -20.5 99s-32.334 58.833 -56.001 82.5s-51.167 42.334 -82.5 56.001s-64.333 20.5 -99 20.5c-35.333 0 -68.666 -6.83301 -99.999 -20.5s-58.666 -32.334 -81.999 -56.001s-41.833 -51.167 -55.5 -82.5s-20.5 -64.333 -20.5 -99
c0 -35.333 6.83301 -68.666 20.5 -99.999s32.167 -58.666 55.5 -81.999s50.666 -41.833 81.999 -55.5s64.666 -20.5 99.999 -20.5c34.667 0 67.667 6.83301 99 20.5s58.833 32.167 82.5 55.5s42.334 50.666 56.001 81.999s20.5 64.666 20.5 99.999zM768 356
c0 -50 -9.83203 -97.3311 -29.499 -141.998s-46.334 -83.834 -80.001 -117.501s-72.834 -60.334 -117.501 -80.001s-92 -29.5 -142 -29.5s-97.5 9.83301 -142.5 29.5s-84.167 46.167 -117.5 79.5s-59.833 72.5 -79.5 117.5s-29.5 92.5 -29.5 142.5s9.83301 97.5 29.5 142.5
s46.167 84.167 79.5 117.5s72.5 59.833 117.5 79.5s92.5 29.5 142.5 29.5c50.667 0 98.334 -9.83301 143.001 -29.5s83.667 -46.167 117 -79.5s59.833 -72.5 79.5 -117.5s29.5 -92.5 29.5 -142.5zM556.001 870.002c-16 -47.333 -47.668 -71.001 -95.001 -71.001
c-11.333 0 -21.666 2.16699 -30.999 6.5s-18.333 9.33301 -27 15s-17.167 10.667 -25.5 15s-17.5 6.5 -27.5 6.5c-10.667 0 -21 -3.66699 -31 -11s-20.333 -20.666 -31 -39.999l-45 45c12.667 28 27 48 43 60s34 18 54 18c15.333 0 28 -2.16699 38 -6.5s19 -9 27 -14
s16 -9.66699 24 -14s17.667 -6.5 29 -6.5c24.667 0 44 17.333 58 52z" />
    <glyph glyph-name="odieresis" unicode="&#xf6;" 
d="M657 356c0 34.667 -6.83301 67.667 -20.5 99s-32.334 58.833 -56.001 82.5s-51.167 42.334 -82.5 56.001s-64.333 20.5 -99 20.5c-35.333 0 -68.666 -6.83301 -99.999 -20.5s-58.666 -32.334 -81.999 -56.001s-41.833 -51.167 -55.5 -82.5s-20.5 -64.333 -20.5 -99
c0 -35.333 6.83301 -68.666 20.5 -99.999s32.167 -58.666 55.5 -81.999s50.666 -41.833 81.999 -55.5s64.666 -20.5 99.999 -20.5c34.667 0 67.667 6.83301 99 20.5s58.833 32.167 82.5 55.5s42.334 50.666 56.001 81.999s20.5 64.666 20.5 99.999zM768 356
c0 -50 -9.83203 -97.3311 -29.499 -141.998s-46.334 -83.834 -80.001 -117.501s-72.834 -60.334 -117.501 -80.001s-92 -29.5 -142 -29.5s-97.5 9.83301 -142.5 29.5s-84.167 46.167 -117.5 79.5s-59.833 72.5 -79.5 117.5s-29.5 92.5 -29.5 142.5s9.83301 97.5 29.5 142.5
s46.167 84.167 79.5 117.5s72.5 59.833 117.5 79.5s92.5 29.5 142.5 29.5c50.667 0 98.334 -9.83301 143.001 -29.5s83.667 -46.167 117 -79.5s59.833 -72.5 79.5 -117.5s29.5 -92.5 29.5 -142.5zM606.001 849.002c0 -24 -8.16699 -44 -24.5 -60s-36.166 -24 -59.499 -24
c-24 0 -44 8 -60 24s-24 36 -24 60c0 23.333 8 42.833 24 58.5s36 23.5 60 23.5c23.333 0 43.166 -7.83301 59.499 -23.5s24.5 -35.167 24.5 -58.5zM360.001 849.002c0 -24 -8.33301 -44.001 -25 -60.001s-36.667 -24 -60 -24c-24 0 -44 8 -60 24s-24 36 -24 60
c0 23.333 8 42.833 24 58.5s36 23.5 60 23.5c12 0 23.167 -2.16699 33.5 -6.5s19.333 -10.166 27 -17.499s13.667 -16 18 -26s6.5 -20.667 6.5 -32z" />
    <glyph glyph-name="oslash" unicode="&#xf8;" 
d="M608 658c48 -34 86.6689 -77.166 116.002 -129.499s44 -109.833 44 -172.5c0 -50 -9.83301 -97.333 -29.5 -142s-46.334 -83.834 -80.001 -117.501s-72.834 -60.334 -117.501 -80.001s-92 -29.5 -142 -29.5c-27.333 0 -53.833 3 -79.5 9s-50.167 14.333 -73.5 25l-11 -21
h-75l30 53c-48 34 -86.667 77.333 -116 130s-44 110.334 -44 173.001c0 50 9.83301 97.5 29.5 142.5s46.167 84.167 79.5 117.5s72.5 59.833 117.5 79.5s92.5 29.5 142.5 29.5c54 0 104.667 -11.333 152 -34l13 22h75zM141.002 356.001
c0 -42 9.16504 -80.999 27.498 -116.999s43.5 -66 75.5 -90l253 445c-32 13.333 -64.667 20 -98 20c-35.333 0 -68.666 -6.83301 -99.999 -20.5s-58.666 -32.334 -81.999 -56.001s-41.833 -51.167 -55.5 -82.5s-20.5 -64.333 -20.5 -99zM657 356.002
c0 41.333 -9.50098 80.002 -28.501 116.002s-44.167 65.667 -75.5 89l-252 -444c31.333 -12.667 64 -19 98 -19c34.667 0 67.667 6.83301 99 20.5s58.833 32.167 82.5 55.5s42.334 50.666 56.001 81.999s20.5 64.666 20.5 99.999z" />
    <glyph glyph-name="ugrave" unicode="&#xf9;" horiz-adv-x="671" 
d="M249 931h115l59 -150h-83zM345 109c117.333 0 176 80.333 176 241v363h110v-359c0 -239.333 -95.333 -359 -286 -359c-204.667 0 -307 119 -307 357v361h112v-363c0 -160.667 65 -241 195 -241z" />
    <glyph glyph-name="uacute" unicode="&#xfa;" horiz-adv-x="671" 
d="M331 783h-83l59 148h115zM345 109c117.333 0 176 80.333 176 241v363h110v-359c0 -239.333 -95.333 -359 -286 -359c-204.667 0 -307 119 -307 357v361h112v-363c0 -160.667 65 -241 195 -241z" />
    <glyph glyph-name="ucircumflex" unicode="&#xfb;" horiz-adv-x="671" 
d="M335 898l-52 -105h-98l86 138h127l88 -138h-99zM345 109c117.333 0 176 80.333 176 241v363h110v-359c0 -239.333 -95.333 -359 -286 -359c-204.667 0 -307 119 -307 357v361h112v-363c0 -160.667 65 -241 195 -241z" />
    <glyph glyph-name="udieresis" unicode="&#xfc;" horiz-adv-x="671" 
d="M542 849c0 -24 -8.16699 -44 -24.5 -60s-36.166 -24 -59.499 -24c-24 0 -44 8 -60 24s-24 36 -24 60c0 23.333 8 42.833 24 58.5s36 23.5 60 23.5c23.333 0 43.166 -7.83301 59.499 -23.5s24.5 -35.167 24.5 -58.5zM296 849c0 -24 -8.33301 -44.001 -25 -60.001
s-36.667 -24 -60 -24c-24 0 -44 8 -60 24s-24 36 -24 60c0 23.333 8 42.833 24 58.5s36 23.5 60 23.5c12 0 23.167 -2.16699 33.5 -6.5s19.333 -10.166 27 -17.499s13.667 -16 18 -26s6.5 -20.667 6.5 -32zM345 108.999c117.333 0 176 80.333 176 241v363h110v-359
c0 -239.333 -95.333 -359 -286 -359c-204.667 0 -307 119 -307 357v361h112v-363c0 -160.667 65 -241 195 -241z" />
    <glyph glyph-name="yacute" unicode="&#xfd;" horiz-adv-x="565" 
d="M233 352l-244 361h141l158 -259l160 259h127l-232 -361v-352h-110v352zM278 783h-83l59 148h115z" />
    <glyph glyph-name="thorn" unicode="&#xfe;" horiz-adv-x="659" 
d="M156 0h-111v713h111v-116h230c173.333 0 260 -80.333 260 -241c0 -164.667 -86.667 -247 -260 -247h-230v-109zM539 355c0 87.333 -46.333 131 -139 131h-244v-266h244c92.667 0 139 45 139 135z" />
    <glyph glyph-name="ydieresis" unicode="&#xff;" horiz-adv-x="565" 
d="M233 352l-244 361h141l158 -259l160 259h127l-232 -361v-352h-110v352zM489 849c0 -24 -8.16699 -44 -24.5 -60s-36.166 -24 -59.499 -24c-24 0 -44 8 -60 24s-24 36 -24 60c0 23.333 8 42.833 24 58.5s36 23.5 60 23.5c23.333 0 43.166 -7.83301 59.499 -23.5
s24.5 -35.167 24.5 -58.5zM243 849c0 -24 -8.33301 -44.001 -25 -60.001s-36.667 -24 -60 -24c-24 0 -44 8 -60 24s-24 36 -24 60c0 23.333 8 42.833 24 58.5s36 23.5 60 23.5c12 0 23.167 -2.16699 33.5 -6.5s19.333 -10.166 27 -17.499s13.667 -16 18 -26
s6.5 -20.667 6.5 -32z" />
    <glyph glyph-name="Lslash" unicode="&#x141;" horiz-adv-x="489" 
d="M156 443v-332h330v-111h-441v822h111v-272l207 104v-108z" />
    <glyph glyph-name="lslash" unicode="&#x142;" horiz-adv-x="374" 
d="M156 410v-299h211v-111h-322v713h111v-196l143 66v-107z" />
    <glyph glyph-name="OE" unicode="&#x152;" horiz-adv-x="1129" 
d="M661 356c0 34.667 -6.83398 67.668 -20.501 99.001s-32.334 58.833 -56.001 82.5s-51.167 42.334 -82.5 56.001s-64.333 20.5 -99 20.5c-71.333 0 -132 -25 -182 -75v-1c-49.333 -53.333 -74 -114 -74 -182s24.667 -128.333 74 -181v-1
c50.667 -50.667 111.334 -76 182.001 -76c34.667 0 67.667 6.83301 99 20.5s58.833 32.167 82.5 55.5s42.334 50.666 56.001 81.999s20.5 64.666 20.5 99.999zM667.999 0.000976562v113c-70 -84 -158.333 -126 -265 -126c-50 0 -97.333 9.83301 -142 29.5
s-83.834 46.167 -117.501 79.5s-60.334 72.5 -80.001 117.5s-29.5 92.5 -29.5 142.5s9.83301 97.5 29.5 142.5s46.334 84.167 80.001 117.5s72.834 59.833 117.501 79.5s92 29.5 142 29.5c88 0 176.333 -34.333 265 -103v91h421v-111h-310v-267h310v-111h-310v-113h310v-111
h-421z" />
    <glyph glyph-name="oe" unicode="&#x153;" horiz-adv-x="1440" 
d="M1263 412l18.002 25c-8.66699 26.667 -21 50.834 -37 72.501s-34.833 40.334 -56.5 56.001s-45.334 27.667 -71.001 36s-52.5 12.5 -80.5 12.5c-27.333 0 -53.833 -4.16699 -79.5 -12.5s-49.334 -20.333 -71.001 -36s-40.667 -34.334 -57 -56.001
s-28.833 -45.834 -37.5 -72.501l19 -25h453zM663.002 356c0 34.667 -6.83008 67.667 -20.4971 99s-32.167 58.833 -55.5 82.5s-50.5 42.334 -81.5 56.001s-64.167 20.5 -99.5 20.5s-68.666 -6.83301 -99.999 -20.5s-58.666 -32.334 -81.999 -56.001s-42 -51.167 -56 -82.5
s-21 -64.333 -21 -99c0 -35.333 7 -68.666 21 -99.999s32.667 -58.666 56 -81.999s50.666 -41.833 81.999 -55.5s64.666 -20.5 99.999 -20.5s68.666 6.83301 99.999 20.5s58.666 32.167 81.999 55.5s41.666 50.666 54.999 81.999s20 64.666 20 99.999zM1406 356
c0 -26 -1.33594 -44.3359 -4.00293 -55.0029h-592l-19 -25c8.66699 -26.667 21.334 -51 38.001 -73s35.834 -40.667 57.501 -56s45.167 -27.333 70.5 -36s51.666 -13 78.999 -13c82 0 147 29.667 195 89h134c-10 -25.333 -25.5 -49.833 -46.5 -73.5s-46.167 -45 -75.5 -64
s-61.666 -34.167 -96.999 -45.5s-72 -17 -110 -17c-30 0 -60.333 3.83301 -91 11.5s-60 18.834 -88 33.501s-53.833 32.834 -77.5 54.501s-43.5 46.834 -59.5 75.501c-36.667 -57.333 -82.5 -100.833 -137.5 -130.5s-113.833 -44.5 -176.5 -44.5
c-50 0 -97.5 9.83301 -142.5 29.5s-84.333 46.167 -118 79.5s-60.334 72.5 -80.001 117.5s-29.5 92.5 -29.5 142.5s9.83301 97.5 29.5 142.5s46.334 84.167 80.001 117.5s73 59.833 118 79.5s92.5 29.5 142.5 29.5c64.667 0 123.334 -14.667 176.001 -44
s98.667 -73 138 -131c16.667 28.667 36.834 54 60.501 76s49.167 40.333 76.5 55s56.166 25.667 86.499 33s61.166 11 92.499 11c50 0 97.5 -9.83301 142.5 -29.5s84.333 -46.167 118 -79.5s60.334 -72.5 80.001 -117.5s29.5 -92.5 29.5 -142.5z" />
    <glyph glyph-name="Scaron" unicode="&#x160;" horiz-adv-x="597" 
d="M457 217c0 67.333 -40.667 101 -122 101h-78c-146 0 -219 68.333 -219 205c0 126.667 72.667 190 218 190h250v-111h-264c-63.333 0 -95 -27 -95 -81c0 -61.333 31.667 -92 95 -92h79c162.667 0 244 -71.333 244 -214c0 -143.333 -81 -215 -243 -215h-277v111h290
c81.333 0 122 35.333 122 106zM304 826l52 105h98l-86 -138h-127l-88 138h99z" />
    <glyph glyph-name="scaron" unicode="&#x161;" horiz-adv-x="597" 
d="M457 217c0 67.333 -40.667 101 -122 101h-78c-146 0 -219 68.333 -219 205c0 126.667 72.667 190 218 190h250v-111h-264c-63.333 0 -95 -27 -95 -81c0 -61.333 31.667 -92 95 -92h79c162.667 0 244 -71.333 244 -214c0 -143.333 -81 -215 -243 -215h-277v111h290
c81.333 0 122 35.333 122 106zM304 826l52 105h98l-86 -138h-127l-88 138h99z" />
    <glyph glyph-name="Ydieresis" unicode="&#x178;" horiz-adv-x="578" 
d="M237 352l-243 361h140l158 -259l230 368h129l-302 -470v-352h-112v352zM465 849c0 -24 -8.16699 -44 -24.5 -60s-36.166 -24 -59.499 -24c-24 0 -44 8 -60 24s-24 36 -24 60c0 23.333 8 42.833 24 58.5s36 23.5 60 23.5c23.333 0 43.166 -7.83301 59.499 -23.5
s24.5 -35.167 24.5 -58.5zM219 849c0 -24 -8.33301 -44.001 -25 -60.001s-36.667 -24 -60 -24c-24 0 -44 8 -60 24s-24 36 -24 60c0 23.333 8 42.833 24 58.5s36 23.5 60 23.5c12 0 23.167 -2.16699 33.5 -6.5s19.333 -10.166 27 -17.499s13.667 -16 18 -26
s6.5 -20.667 6.5 -32z" />
    <glyph glyph-name="Zcaron" unicode="&#x17d;" horiz-adv-x="617" 
d="M41 0v49l366 553h-366v111h533v-50l-366 -552h366v-111h-533zM315 826l52 105h98l-86 -138h-127l-88 138h99z" />
    <glyph glyph-name="zcaron" unicode="&#x17e;" horiz-adv-x="617" 
d="M41 0v49l366 553h-366v111h533v-50l-366 -552h366v-111h-533zM315 826l52 105h98l-86 -138h-127l-88 138h99z" />
    <glyph glyph-name="circumflex" unicode="&#x2c6;" horiz-adv-x="288" 
d="M143 898l-52 -105h-98l86 138h127l88 -138h-99z" />
    <glyph glyph-name="caron" unicode="&#x2c7;" horiz-adv-x="288" 
d="M144 826l52 105h98l-86 -138h-127l-88 138h99z" />
    <glyph glyph-name="ring" unicode="&#x2da;" horiz-adv-x="244" 
d="M124 885c-11.333 0 -21 -4.16699 -29 -12.5s-12 -19.5 -12 -33.5c0 -12.667 4 -23.167 12 -31.5s17.667 -12.5 29 -12.5c12 0 22.167 4.16699 30.5 12.5s12.5 18.833 12.5 31.5c0 14 -4.33301 25.167 -13 33.5s-18.667 12.5 -30 12.5zM124 750
c-25.333 0 -46.333 8.16699 -63 24.5s-25 37.166 -25 62.499c0 27.333 8.33301 49.833 25 67.5s37.667 26.5 63 26.5s46.5 -9.16699 63.5 -27.5s25.5 -40.5 25.5 -66.5c0 -25.333 -8.5 -46.166 -25.5 -62.499s-38.167 -24.5 -63.5 -24.5z" />
    <glyph glyph-name="tilde" unicode="&#x2dc;" horiz-adv-x="334" 
d="M323 870c-16 -47.333 -47.668 -71.001 -95.001 -71.001c-11.333 0 -21.666 2.16699 -30.999 6.5s-18.333 9.33301 -27 15s-17.167 10.667 -25.5 15s-17.5 6.5 -27.5 6.5c-10.667 0 -21 -3.66699 -31 -11s-20.333 -20.666 -31 -39.999l-45 45c12.667 28 27 48 43 60
s34 18 54 18c15.333 0 28 -2.16699 38 -6.5s19 -9 27 -14s16 -9.66699 24 -14s17.667 -6.5 29 -6.5c24.667 0 44 17.333 58 52z" />
    <glyph glyph-name="endash" unicode="&#x2013;" horiz-adv-x="515" 
d="M45 224v108h425v-108h-425z" />
    <glyph glyph-name="emdash" unicode="&#x2014;" horiz-adv-x="958" 
d="M45 224v111h868v-111h-868z" />
    <glyph glyph-name="quoteleft" unicode="&#x2018;" horiz-adv-x="237" 
d="M28 762c0 26 4.83203 48.1689 14.499 66.502s21.5 33.666 35.5 45.999s29 21.5 45 27.5s30.333 9.33301 43 10l11 -25c-12 -3.33301 -22.667 -7.33301 -32 -12s-15.666 -12.334 -18.999 -23.001c27.333 -1.33301 47.833 -9.83301 61.5 -25.5s20.5 -37.5 20.5 -65.5
c0 -30 -8.5 -53.5 -25.5 -70.5s-38.5 -25.5 -64.5 -25.5c-60 0 -90 32.333 -90 97z" />
    <glyph glyph-name="quoteright" unicode="&#x2019;" horiz-adv-x="237" 
d="M209 816c0 -26 -4.83301 -48.498 -14.5 -67.498s-21.5 -34.5 -35.5 -46.5s-29.167 -21 -45.5 -27s-30.833 -9.33301 -43.5 -10l-11 24c12 4 22.667 8.33301 32 13s16 12 20 22c-27.333 1.33301 -48 10.166 -62 26.499s-21 38.5 -21 66.5c0 28.667 8.5 51.667 25.5 69
s38.167 26 63.5 26c30 0 52.833 -8.33301 68.5 -25s23.5 -40.334 23.5 -71.001z" />
    <glyph glyph-name="quotesinglbase" unicode="&#x201a;" horiz-adv-x="237" 
d="M209 48c0 -26 -4.83301 -48.498 -14.5 -67.498s-21.5 -34.5 -35.5 -46.5s-29.167 -21 -45.5 -27s-30.833 -9.33301 -43.5 -10l-11 24c12 4 22.667 8.33301 32 13s16 12 20 22c-27.333 1.33301 -48 10.166 -62 26.499s-21 38.5 -21 66.5c0 28.667 8.5 51.667 25.5 69
s38.167 26 63.5 26c30 0 52.833 -8.33301 68.5 -25s23.5 -40.334 23.5 -71.001z" />
    <glyph glyph-name="quotedblleft" unicode="&#x201c;" horiz-adv-x="459" 
d="M36 762c0 26 4.83203 48.1689 14.499 66.502s21.667 33.666 36 45.999s29.5 21.5 45.5 27.5s30.333 9.33301 43 10l11 -25c-12.667 -3.33301 -23.5 -7.33301 -32.5 -12s-15.5 -12.334 -19.5 -23.001c28 -1.33301 48.833 -9.83301 62.5 -25.5s20.5 -37.5 20.5 -65.5
c0 -30 -8.66699 -53.5 -26 -70.5s-38.666 -25.5 -63.999 -25.5c-60.667 0 -91 32.333 -91 97zM240.999 762.002c0 26 4.83301 48.1689 14.5 66.502s21.667 33.666 36 45.999s29.5 21.5 45.5 27.5s30.333 9.33301 43 10l10 -25c-12 -3.33301 -22.5 -7.33301 -31.5 -12
s-15.5 -12.334 -19.5 -23.001c28 -1.33301 48.667 -9.83301 62 -25.5s20 -37.5 20 -65.5c0 -30 -8.5 -53.5 -25.5 -70.5s-38.167 -25.5 -63.5 -25.5c-60.667 0 -91 32.333 -91 97z" />
    <glyph glyph-name="quotedblright" unicode="&#x201d;" horiz-adv-x="459" 
d="M422 816c0 -26 -4.83203 -48.498 -14.499 -67.498s-21.5 -34.5 -35.5 -46.5s-29 -21 -45 -27s-30.333 -9.33301 -43 -10l-12 24c12.667 4 23.667 8.33301 33 13s15.666 12 18.999 22c-27.333 1.33301 -48 10.166 -62 26.499s-21 38.5 -21 66.5
c0 28.667 8.5 51.667 25.5 69s38.5 26 64.5 26c30 0 52.667 -8.33301 68 -25s23 -40.334 23 -71.001zM218.001 816.002c0 -26 -4.83105 -48.498 -14.498 -67.498s-21.667 -34.5 -36 -46.5s-29.5 -21 -45.5 -27s-30.333 -9.33301 -43 -10l-12 24
c12.667 4 23.667 8.33301 33 13s15.666 12 18.999 22c-27.333 1.33301 -48 10.166 -62 26.499s-21 38.5 -21 66.5c0 28.667 8.66699 51.667 26 69s38.666 26 63.999 26c30 0 52.833 -8.33301 68.5 -25s23.5 -40.334 23.5 -71.001z" />
    <glyph glyph-name="quotedblbase" unicode="&#x201e;" horiz-adv-x="467" 
d="M431 48c0 -26 -4.83301 -48.498 -14.5 -67.498s-21.667 -34.5 -36 -46.5s-29.5 -21 -45.5 -27s-30.333 -9.33301 -43 -10l-11 24c12 4 22.667 8.33301 32 13s16 12 20 22c-28 1.33301 -48.833 10.166 -62.5 26.499s-20.5 38.5 -20.5 66.5c0 28.667 8.5 51.667 25.5 69
s38.167 26 63.5 26c30 0 52.833 -8.33301 68.5 -25s23.5 -40.334 23.5 -71.001zM218 48.002c0 -26 -4.83105 -48.498 -14.498 -67.498s-21.667 -34.5 -36 -46.5s-29.5 -21 -45.5 -27s-30.333 -9.33301 -43 -10l-12 24c12.667 4 23.667 8.33301 33 13s15.666 12 18.999 22
c-27.333 1.33301 -48 10.166 -62 26.499s-21 38.5 -21 66.5c0 28.667 8.66699 51.667 26 69s38.666 26 63.999 26c30 0 52.833 -8.33301 68.5 -25s23.5 -40.334 23.5 -71.001z" />
    <glyph glyph-name="dagger" unicode="&#x2020;" horiz-adv-x="679" 
d="M225 540c0 -40 23.333 -60 70 -60h240v122h-240c-46.667 0 -70 -20.667 -70 -62zM157 241c0 -86.667 42.333 -130 127 -130h251v258h-249c-86 0 -129 -42.667 -129 -128zM646 0h-355c-164 0 -246 77 -246 231c0 118 43.333 188 130 210c-41.333 18.667 -62 56 -62 112
c0 106.667 67 160 201 160h332v-713z" />
    <glyph glyph-name="daggerdbl" unicode="&#x2021;" horiz-adv-x="685" 
d="M157 369c0 -171.333 69 -257 207 -257h176v490h-176c-138 0 -207 -77.667 -207 -233zM651 0h-258c-232.667 0 -349 123 -349 369c0 229.333 117 344 351 344h256v-713z" />
    <glyph glyph-name="bullet" unicode="&#x2022;" horiz-adv-x="620" 
d="M45 156v549h529v-549h-529z" />
    <glyph glyph-name="ellipsis" unicode="&#x2026;" horiz-adv-x="675" 
d="M209 63c0 -23.333 -8.16797 -43.166 -24.501 -59.499s-36.166 -24.5 -59.499 -24.5c-24 0 -44 8.16699 -60 24.5s-24 36.166 -24 59.499s8 43 24 59s36 24 60 24c12 0 23 -2.16699 33 -6.5s18.833 -10.333 26.5 -18s13.667 -16.5 18 -26.5s6.5 -20.667 6.5 -32z
M420.999 63c0 -23.333 -8.16797 -43.166 -24.501 -59.499s-36.166 -24.5 -59.499 -24.5c-24 0 -44 8.16699 -60 24.5s-24 36.166 -24 59.499s8 43 24 59s36 24 60 24c12 0 23 -2.16699 33 -6.5s18.833 -10.333 26.5 -18s13.667 -16.5 18 -26.5s6.5 -20.667 6.5 -32z
M633.998 63c0 -23.333 -8.33301 -43.166 -25 -59.499s-36.667 -24.5 -60 -24.5c-24 0 -44 8.16699 -60 24.5s-24 36.166 -24 59.499s8 43 24 59s36 24 60 24c12 0 23.167 -2.16699 33.5 -6.5s19.333 -10.333 27 -18s13.667 -16.5 18 -26.5s6.5 -20.667 6.5 -32z" />
    <glyph glyph-name="perthousand" unicode="&#x2030;" horiz-adv-x="597" 
d="M147 217c0 -70.667 40.667 -106 122 -106h290v-111h-277c-162.667 0 -244 71.667 -244 215c0 142.667 81.667 214 245 214h79c63.333 0 95 30.667 95 92c0 54 -31.667 81 -95 81h-264v111h250c144.667 0 217 -63.333 217 -190c0 -136.667 -72.667 -205 -218 -205h-78
c-81.333 0 -122 -33.667 -122 -101z" />
    <glyph glyph-name="guilsinglleft" unicode="&#x2039;" horiz-adv-x="430" 
d="M321 -9l-291 292l291 290l78 -78l-198 -198v-29l198 -198z" />
    <glyph glyph-name="guilsinglright" unicode="&#x203a;" horiz-adv-x="430" 
d="M108 -9l-78 79l198 198v29l-198 198l78 78l291 -290z" />
    <glyph glyph-name="Euro" unicode="&#x20ac;" horiz-adv-x="781" 
d="M202 258l7.99902 -21.998c10 -22.667 23.167 -43.667 39.5 -63s34.833 -36 55.5 -50s43.167 -24.833 67.5 -32.5s49.5 -11.5 75.5 -11.5c44.667 0 86.334 10.833 125.001 32.5s68.667 50.167 90 85.5l96 -55c-35.333 -54 -79.833 -96.5 -133.5 -127.5
s-112.834 -46.5 -177.501 -46.5c-44 0 -85.667 7.33301 -125 22s-74.833 35 -106.5 61s-58.834 56.667 -81.501 92s-39 73.666 -49 114.999h-65v42h59c-0.666992 5.33301 -1 11 -1 17v19v32h-58v39h64c8.66699 42 24.334 81.333 47.001 118s50 68.334 82 95.001
s68 47.667 108 63s82 23 126 23c30 0 60.667 -3.83301 92 -11.5s60 -19.834 86 -36.501l-61 -93l-18 9c-16 7.33301 -32.167 12.5 -48.5 15.5s-33.166 4.83301 -50.499 5.5c-26 0 -51.333 -4 -76 -12s-47.5 -19 -68.5 -33s-39.5 -30.833 -55.5 -50.5
s-28.667 -40.834 -38 -63.501l-12 -29h266v-39h-273c-0.666992 -8 -1 -15.667 -1 -23v-24v-10.5c0 -3.66699 0.666992 -7.16699 2 -10.5h272v-42h-262z" />
    <glyph glyph-name="trademark" unicode="&#x2122;" horiz-adv-x="897" 
d="M378 707h-145v-292h-56v292h-148v57h349v-57zM850 415h-55v234l-113 -234h-83l-113 235v-235h-55v349h56l141 -282h23l142 282h57v-349z" />
    <glyph glyph-name="nonmarkingreturn" horiz-adv-x="284" 
 />
    <glyph glyph-name=".null" horiz-adv-x="0" 
 />
    <glyph glyph-name=".ttfautohint" horiz-adv-x="288" 
d="M0 0z" />
    </font>
</defs>
</svg>
